<?xml version="1.0" encoding="utf-8" standalone="no"?>
<!DOCTYPE svg PUBLIC "-//W3C//DTD SVG 1.1//EN"
  "http://www.w3.org/Graphics/SVG/1.1/DTD/svg11.dtd">
<!-- Created with matplotlib (http://matplotlib.org/) -->
<svg height="172.943359pt" version="1.1" viewBox="0 0 219.041406 172.943359" width="219.041406pt" xmlns="http://www.w3.org/2000/svg" xmlns:xlink="http://www.w3.org/1999/xlink">
 <defs>
  <style type="text/css">
*{stroke-linecap:butt;stroke-linejoin:round;}
  </style>
 </defs>
 <g id="figure_1">
  <g id="patch_1">
   <path d="M 0 172.943359 
L 219.041406 172.943359 
L 219.041406 0 
L 0 0 
z
" style="fill:none;"/>
  </g>
  <g id="axes_1">
   <g id="patch_2">
    <path d="M 48.395703 136.7 
L 174.395703 136.7 
L 174.395703 10.7 
L 48.395703 10.7 
z
" style="fill:none;"/>
   </g>
   <g id="matplotlib.axis_1">
    <g id="xtick_1">
     <g id="line2d_1">
      <defs>
       <path d="M 0 0 
L 0 3.5 
" id="mf68a1de68f" style="stroke:#000000;stroke-width:0.85;"/>
      </defs>
      <g>
       <use style="stroke:#000000;stroke-width:0.85;" x="48.395703" xlink:href="#mf68a1de68f" y="136.7"/>
      </g>
     </g>
     <g id="text_1">
      <text style="font-family:Helvetica;font-size:7.5px;font-style:normal;font-weight:500;text-anchor:middle;" transform="rotate(-0, 48.395703, 149.080078)" x="48.395703" y="149.080078">10</text>
     </g>
    </g>
    <g id="xtick_2">
     <g id="line2d_2">
      <g>
       <use style="stroke:#000000;stroke-width:0.85;" x="73.595703" xlink:href="#mf68a1de68f" y="136.7"/>
      </g>
     </g>
     <g id="text_2">
      <text style="font-family:Helvetica;font-size:7.5px;font-style:normal;font-weight:500;text-anchor:middle;" transform="rotate(-0, 73.595703, 149.080078)" x="73.595703" y="149.080078">20</text>
     </g>
    </g>
    <g id="xtick_3">
     <g id="line2d_3">
      <g>
       <use style="stroke:#000000;stroke-width:0.85;" x="98.795703" xlink:href="#mf68a1de68f" y="136.7"/>
      </g>
     </g>
     <g id="text_3">
      <text style="font-family:Helvetica;font-size:7.5px;font-style:normal;font-weight:500;text-anchor:middle;" transform="rotate(-0, 98.795703, 149.080078)" x="98.795703" y="149.080078">30</text>
     </g>
    </g>
    <g id="xtick_4">
     <g id="line2d_4">
      <g>
       <use style="stroke:#000000;stroke-width:0.85;" x="123.995703" xlink:href="#mf68a1de68f" y="136.7"/>
      </g>
     </g>
     <g id="text_4">
      <text style="font-family:Helvetica;font-size:7.5px;font-style:normal;font-weight:500;text-anchor:middle;" transform="rotate(-0, 123.995703, 149.080078)" x="123.995703" y="149.080078">40</text>
     </g>
    </g>
    <g id="xtick_5">
     <g id="line2d_5">
      <g>
       <use style="stroke:#000000;stroke-width:0.85;" x="149.195703" xlink:href="#mf68a1de68f" y="136.7"/>
      </g>
     </g>
     <g id="text_5">
      <text style="font-family:Helvetica;font-size:7.5px;font-style:normal;font-weight:500;text-anchor:middle;" transform="rotate(-0, 149.195703, 149.080078)" x="149.195703" y="149.080078">50</text>
     </g>
    </g>
    <g id="xtick_6">
     <g id="line2d_6">
      <g>
       <use style="stroke:#000000;stroke-width:0.85;" x="174.395703" xlink:href="#mf68a1de68f" y="136.7"/>
      </g>
     </g>
     <g id="text_6">
      <text style="font-family:Helvetica;font-size:7.5px;font-style:normal;font-weight:500;text-anchor:middle;" transform="rotate(-0, 174.395703, 149.080078)" x="174.395703" y="149.080078">60</text>
     </g>
    </g>
    <g id="text_7">
     <!-- $L$ ($\AA$) -->
     <g transform="translate(103.258203 164.168359)">
      <text>
       <tspan style="font-family:Arial;font-size:7.5px;font-style:italic;font-weight:italic;" x="0 8.752441" y="-0.125">LÅ</tspan>
       <tspan style="font-family:Helvetica;font-size:7.5px;font-style:regular;font-weight:regular;" x="4.171143 6.254883 13.754883" y="-0.125"> ()</tspan>
      </text>
     </g>
    </g>
   </g>
   <g id="matplotlib.axis_2">
    <g id="ytick_1">
     <g id="line2d_7">
      <defs>
       <path d="M 0 0 
L -3.5 0 
" id="m6fbd88596b" style="stroke:#000000;stroke-width:0.85;"/>
      </defs>
      <g>
       <use style="stroke:#000000;stroke-width:0.85;" x="48.395703" xlink:href="#m6fbd88596b" y="127.600215"/>
      </g>
     </g>
     <g id="text_8">
      <text style="font-family:Helvetica;font-size:7.5px;font-style:normal;font-weight:500;text-anchor:end;" transform="rotate(-0, 41.395703, 130.290254)" x="41.395703" y="130.290254">1.25</text>
     </g>
    </g>
    <g id="ytick_2">
     <g id="line2d_8">
      <g>
       <use style="stroke:#000000;stroke-width:0.85;" x="48.395703" xlink:href="#m6fbd88596b" y="110.45927"/>
      </g>
     </g>
     <g id="text_9">
      <text style="font-family:Helvetica;font-size:7.5px;font-style:normal;font-weight:500;text-anchor:end;" transform="rotate(-0, 41.395703, 113.149309)" x="41.395703" y="113.149309">1.50</text>
     </g>
    </g>
    <g id="ytick_3">
     <g id="line2d_9">
      <g>
       <use style="stroke:#000000;stroke-width:0.85;" x="48.395703" xlink:href="#m6fbd88596b" y="93.318326"/>
      </g>
     </g>
     <g id="text_10">
      <text style="font-family:Helvetica;font-size:7.5px;font-style:normal;font-weight:500;text-anchor:end;" transform="rotate(-0, 41.395703, 96.008365)" x="41.395703" y="96.008365">1.75</text>
     </g>
    </g>
    <g id="ytick_4">
     <g id="line2d_10">
      <g>
       <use style="stroke:#000000;stroke-width:0.85;" x="48.395703" xlink:href="#m6fbd88596b" y="76.177381"/>
      </g>
     </g>
     <g id="text_11">
      <text style="font-family:Helvetica;font-size:7.5px;font-style:normal;font-weight:500;text-anchor:end;" transform="rotate(-0, 41.395703, 78.86742)" x="41.395703" y="78.86742">2.00</text>
     </g>
    </g>
    <g id="ytick_5">
     <g id="line2d_11">
      <g>
       <use style="stroke:#000000;stroke-width:0.85;" x="48.395703" xlink:href="#m6fbd88596b" y="59.036436"/>
      </g>
     </g>
     <g id="text_12">
      <text style="font-family:Helvetica;font-size:7.5px;font-style:normal;font-weight:500;text-anchor:end;" transform="rotate(-0, 41.395703, 61.726475)" x="41.395703" y="61.726475">2.25</text>
     </g>
    </g>
    <g id="ytick_6">
     <g id="line2d_12">
      <g>
       <use style="stroke:#000000;stroke-width:0.85;" x="48.395703" xlink:href="#m6fbd88596b" y="41.895491"/>
      </g>
     </g>
     <g id="text_13">
      <text style="font-family:Helvetica;font-size:7.5px;font-style:normal;font-weight:500;text-anchor:end;" transform="rotate(-0, 41.395703, 44.58553)" x="41.395703" y="44.58553">2.50</text>
     </g>
    </g>
    <g id="ytick_7">
     <g id="line2d_13">
      <g>
       <use style="stroke:#000000;stroke-width:0.85;" x="48.395703" xlink:href="#m6fbd88596b" y="24.754546"/>
      </g>
     </g>
     <g id="text_14">
      <text style="font-family:Helvetica;font-size:7.5px;font-style:normal;font-weight:500;text-anchor:end;" transform="rotate(-0, 41.395703, 27.444585)" x="41.395703" y="27.444585">2.75</text>
     </g>
    </g>
    <g id="text_15">
     <!-- $\epsilon^{\perp}_{\mathrm{SL}}$ -->
     <g transform="translate(15.975 78.7625)rotate(-90)">
      <text>
       <tspan style="font-family:Arial;font-size:7.5px;font-style:italic;font-weight:italic;" x="0" y="-0.06515625000000114">ε</tspan>
       <tspan style="font-family:STIXGeneral;font-size:5.25px;font-style:regular;font-weight:regular;" x="4.329971" y="-5.292187500000001">⟂</tspan>
       <tspan style="font-family:Arial;font-size:5.25px;font-style:regular;font-weight:regular;" x="3.295898 6.797607" y="3.6684374999999996">SL</tspan>
      </text>
     </g>
    </g>
   </g>
   <g id="line2d_14">
    <path clip-path="url(#pbb5721599e)" d="M 48.395703 10.7 
L 60.995703 95.259229 
L 73.595703 113.243097 
L 86.195703 121.654981 
L 98.795703 126.523901 
L 111.395703 129.695799 
L 123.995703 131.927275 
L 149.195703 134.861051 
L 174.395703 136.7 
" style="fill:none;stroke:#00aad4;stroke-linecap:square;stroke-width:0.85;"/>
    <defs>
     <path d="M 0 3.25 
C 0.86191 3.25 1.688635 2.907559 2.298097 2.298097 
C 2.907559 1.688635 3.25 0.86191 3.25 0 
C 3.25 -0.86191 2.907559 -1.688635 2.298097 -2.298097 
C 1.688635 -2.907559 0.86191 -3.25 0 -3.25 
C -0.86191 -3.25 -1.688635 -2.907559 -2.298097 -2.298097 
C -2.907559 -1.688635 -3.25 -0.86191 -3.25 0 
C -3.25 0.86191 -2.907559 1.688635 -2.298097 2.298097 
C -1.688635 2.907559 -0.86191 3.25 0 3.25 
z
" id="mfe0034bb71"/>
    </defs>
    <g clip-path="url(#pbb5721599e)">
     <use style="fill:#00aad4;" x="48.395703" xlink:href="#mfe0034bb71" y="10.7"/>
     <use style="fill:#00aad4;" x="60.995703" xlink:href="#mfe0034bb71" y="95.259229"/>
     <use style="fill:#00aad4;" x="73.595703" xlink:href="#mfe0034bb71" y="113.243097"/>
     <use style="fill:#00aad4;" x="86.195703" xlink:href="#mfe0034bb71" y="121.654981"/>
     <use style="fill:#00aad4;" x="98.795703" xlink:href="#mfe0034bb71" y="126.523901"/>
     <use style="fill:#00aad4;" x="111.395703" xlink:href="#mfe0034bb71" y="129.695799"/>
     <use style="fill:#00aad4;" x="123.995703" xlink:href="#mfe0034bb71" y="131.927275"/>
     <use style="fill:#00aad4;" x="149.195703" xlink:href="#mfe0034bb71" y="134.861051"/>
     <use style="fill:#00aad4;" x="174.395703" xlink:href="#mfe0034bb71" y="136.7"/>
    </g>
   </g>
   <g id="patch_3">
    <path d="M 48.395703 136.7 
L 48.395703 10.7 
" style="fill:none;stroke:#000000;stroke-linecap:square;stroke-linejoin:miter;stroke-width:0.85;"/>
   </g>
   <g id="patch_4">
    <path d="M 174.395703 136.7 
L 174.395703 10.7 
" style="fill:none;stroke:#000000;stroke-linecap:square;stroke-linejoin:miter;stroke-width:0.85;"/>
   </g>
   <g id="patch_5">
    <path d="M 48.395703 136.7 
L 174.395703 136.7 
" style="fill:none;stroke:#000000;stroke-linecap:square;stroke-linejoin:miter;stroke-width:0.85;"/>
   </g>
   <g id="patch_6">
    <path d="M 48.395703 10.7 
L 174.395703 10.7 
" style="fill:none;stroke:#000000;stroke-linecap:square;stroke-linejoin:miter;stroke-width:0.85;"/>
   </g>
  </g>
  <g id="axes_2">
   <g id="matplotlib.axis_3">
    <g id="ytick_8">
     <g id="line2d_15">
      <defs>
       <path d="M 0 0 
L 3.5 0 
" id="m9fdeee4914" style="stroke:#000000;stroke-width:0.85;"/>
      </defs>
      <g>
       <use style="stroke:#000000;stroke-width:0.85;" x="174.395703" xlink:href="#m9fdeee4914" y="125.680968"/>
      </g>
     </g>
     <g id="text_16">
      <text style="font-family:Helvetica;font-size:7.5px;font-style:normal;font-weight:500;text-anchor:start;" transform="rotate(-0, 181.395703, 128.371007)" x="181.395703" y="128.371007">0.40</text>
     </g>
    </g>
    <g id="ytick_9">
     <g id="line2d_16">
      <g>
       <use style="stroke:#000000;stroke-width:0.85;" x="174.395703" xlink:href="#m9fdeee4914" y="103.405998"/>
      </g>
     </g>
     <g id="text_17">
      <text style="font-family:Helvetica;font-size:7.5px;font-style:normal;font-weight:500;text-anchor:start;" transform="rotate(-0, 181.395703, 106.096037)" x="181.395703" y="106.096037">0.45</text>
     </g>
    </g>
    <g id="ytick_10">
     <g id="line2d_17">
      <g>
       <use style="stroke:#000000;stroke-width:0.85;" x="174.395703" xlink:href="#m9fdeee4914" y="81.131029"/>
      </g>
     </g>
     <g id="text_18">
      <text style="font-family:Helvetica;font-size:7.5px;font-style:normal;font-weight:500;text-anchor:start;" transform="rotate(-0, 181.395703, 83.821068)" x="181.395703" y="83.821068">0.50</text>
     </g>
    </g>
    <g id="ytick_11">
     <g id="line2d_18">
      <g>
       <use style="stroke:#000000;stroke-width:0.85;" x="174.395703" xlink:href="#m9fdeee4914" y="58.856059"/>
      </g>
     </g>
     <g id="text_19">
      <text style="font-family:Helvetica;font-size:7.5px;font-style:normal;font-weight:500;text-anchor:start;" transform="rotate(-0, 181.395703, 61.546098)" x="181.395703" y="61.546098">0.55</text>
     </g>
    </g>
    <g id="ytick_12">
     <g id="line2d_19">
      <g>
       <use style="stroke:#000000;stroke-width:0.85;" x="174.395703" xlink:href="#m9fdeee4914" y="36.581089"/>
      </g>
     </g>
     <g id="text_20">
      <text style="font-family:Helvetica;font-size:7.5px;font-style:normal;font-weight:500;text-anchor:start;" transform="rotate(-0, 181.395703, 39.271128)" x="181.395703" y="39.271128">0.60</text>
     </g>
    </g>
    <g id="ytick_13">
     <g id="line2d_20">
      <g>
       <use style="stroke:#000000;stroke-width:0.85;" x="174.395703" xlink:href="#m9fdeee4914" y="14.30612"/>
      </g>
     </g>
     <g id="text_21">
      <text style="font-family:Helvetica;font-size:7.5px;font-style:normal;font-weight:500;text-anchor:start;" transform="rotate(-0, 181.395703, 16.996159)" x="181.395703" y="16.996159">0.65</text>
     </g>
    </g>
    <g id="text_22">
     <!-- $\alpha_{\perp}/(4\pi \varepsilon_0) (\AA)$ -->
     <g transform="translate(209.516406 95.15)rotate(-90)">
      <text>
       <tspan style="font-family:Arial;font-size:7.5px;font-style:italic;font-weight:italic;" x="0 18.790707 23.815121 35.399296" y="-0.125">απεÅ</tspan>
       <tspan style="font-family:STIXGeneral;font-size:5.25px;font-style:regular;font-weight:regular;" x="5.152002" y="2.11515625">⟂</tspan>
       <tspan style="font-family:Arial;font-size:7.5px;font-style:regular;font-weight:regular;" x="10.038266 12.122006 14.619565 30.404179 32.901737 40.401737" y="-0.125">/(4)()</tspan>
       <tspan style="font-family:Arial;font-size:5.25px;font-style:regular;font-weight:regular;" x="27.11102" y="2.11515625">0</tspan>
      </text>
     </g>
    </g>
   </g>
   <g id="line2d_21">
    <path clip-path="url(#pbb5721599e)" d="M 48.395703 69.336145 
L 60.995703 80.973092 
L 73.595703 80.686681 
L 86.195703 80.627859 
L 98.795703 80.617755 
L 111.395703 80.598494 
L 123.995703 80.588893 
L 149.195703 80.621257 
L 174.395703 80.60041 
" style="fill:none;stroke:#ff6600;stroke-linecap:square;stroke-width:0.85;"/>
    <defs>
     <path d="M 0 3.25 
C 0.86191 3.25 1.688635 2.907559 2.298097 2.298097 
C 2.907559 1.688635 3.25 0.86191 3.25 0 
C 3.25 -0.86191 2.907559 -1.688635 2.298097 -2.298097 
C 1.688635 -2.907559 0.86191 -3.25 0 -3.25 
C -0.86191 -3.25 -1.688635 -2.907559 -2.298097 -2.298097 
C -2.907559 -1.688635 -3.25 -0.86191 -3.25 0 
C -3.25 0.86191 -2.907559 1.688635 -2.298097 2.298097 
C -1.688635 2.907559 -0.86191 3.25 0 3.25 
z
" id="m626b08e4e8"/>
    </defs>
    <g clip-path="url(#pbb5721599e)">
     <use style="fill:#ff6600;" x="48.395703" xlink:href="#m626b08e4e8" y="69.336145"/>
     <use style="fill:#ff6600;" x="60.995703" xlink:href="#m626b08e4e8" y="80.973092"/>
     <use style="fill:#ff6600;" x="73.595703" xlink:href="#m626b08e4e8" y="80.686681"/>
     <use style="fill:#ff6600;" x="86.195703" xlink:href="#m626b08e4e8" y="80.627859"/>
     <use style="fill:#ff6600;" x="98.795703" xlink:href="#m626b08e4e8" y="80.617755"/>
     <use style="fill:#ff6600;" x="111.395703" xlink:href="#m626b08e4e8" y="80.598494"/>
     <use style="fill:#ff6600;" x="123.995703" xlink:href="#m626b08e4e8" y="80.588893"/>
     <use style="fill:#ff6600;" x="149.195703" xlink:href="#m626b08e4e8" y="80.621257"/>
     <use style="fill:#ff6600;" x="174.395703" xlink:href="#m626b08e4e8" y="80.60041"/>
    </g>
   </g>
   <g id="patch_7">
    <path d="M 48.395703 136.7 
L 48.395703 10.7 
" style="fill:none;stroke:#000000;stroke-linecap:square;stroke-linejoin:miter;stroke-width:0.85;"/>
   </g>
   <g id="patch_8">
    <path d="M 174.395703 136.7 
L 174.395703 10.7 
" style="fill:none;stroke:#000000;stroke-linecap:square;stroke-linejoin:miter;stroke-width:0.85;"/>
   </g>
   <g id="patch_9">
    <path d="M 48.395703 136.7 
L 174.395703 136.7 
" style="fill:none;stroke:#000000;stroke-linecap:square;stroke-linejoin:miter;stroke-width:0.85;"/>
   </g>
   <g id="patch_10">
    <path d="M 48.395703 10.7 
L 174.395703 10.7 
" style="fill:none;stroke:#000000;stroke-linecap:square;stroke-linejoin:miter;stroke-width:0.85;"/>
   </g>
  </g>
 </g>
 <defs>
  <clipPath id="pbb5721599e">
   <rect height="126" width="126" x="48.395703" y="10.7"/>
  </clipPath>
 </defs>
</svg>
