<?xml version="1.0" encoding="utf-8" standalone="no"?>
<!DOCTYPE svg PUBLIC "-//W3C//DTD SVG 1.1//EN"
  "http://www.w3.org/Graphics/SVG/1.1/DTD/svg11.dtd">
<!-- Created with matplotlib (http://matplotlib.org/) -->
<svg height="180.823437pt" version="1.1" viewBox="0 0 207.582812 180.823437" width="207.582812pt" xmlns="http://www.w3.org/2000/svg" xmlns:xlink="http://www.w3.org/1999/xlink">
 <defs>
  <style type="text/css">
*{stroke-linecap:butt;stroke-linejoin:round;}
  </style>
 </defs>
 <g id="figure_1">
  <g id="patch_1">
   <path d="M 0 180.823437 
L 207.582812 180.823437 
L 207.582812 0 
L 0 0 
z
" style="fill:none;"/>
  </g>
  <g id="axes_1">
   <g id="patch_2">
    <path d="M 42.216406 144.580078 
L 168.216406 144.580078 
L 168.216406 18.580078 
L 42.216406 18.580078 
z
" style="fill:none;"/>
   </g>
   <g id="matplotlib.axis_1">
    <g id="xtick_1">
     <g id="line2d_1">
      <defs>
       <path d="M 0 0 
L 0 3.5 
" id="ma381c45ae3" style="stroke:#000000;stroke-width:0.85;"/>
      </defs>
      <g>
       <use style="stroke:#000000;stroke-width:0.85;" x="42.216406" xlink:href="#ma381c45ae3" y="144.580078"/>
      </g>
     </g>
     <g id="text_1">
      <text style="font-family:Helvetica;font-size:7.5px;font-style:normal;font-weight:500;text-anchor:middle;" transform="rotate(-0, 42.216406, 156.960156)" x="42.216406" y="156.960156">10</text>
     </g>
    </g>
    <g id="xtick_2">
     <g id="line2d_2">
      <g>
       <use style="stroke:#000000;stroke-width:0.85;" x="67.416406" xlink:href="#ma381c45ae3" y="144.580078"/>
      </g>
     </g>
     <g id="text_2">
      <text style="font-family:Helvetica;font-size:7.5px;font-style:normal;font-weight:500;text-anchor:middle;" transform="rotate(-0, 67.416406, 156.960156)" x="67.416406" y="156.960156">20</text>
     </g>
    </g>
    <g id="xtick_3">
     <g id="line2d_3">
      <g>
       <use style="stroke:#000000;stroke-width:0.85;" x="92.616406" xlink:href="#ma381c45ae3" y="144.580078"/>
      </g>
     </g>
     <g id="text_3">
      <text style="font-family:Helvetica;font-size:7.5px;font-style:normal;font-weight:500;text-anchor:middle;" transform="rotate(-0, 92.616406, 156.960156)" x="92.616406" y="156.960156">30</text>
     </g>
    </g>
    <g id="xtick_4">
     <g id="line2d_4">
      <g>
       <use style="stroke:#000000;stroke-width:0.85;" x="117.816406" xlink:href="#ma381c45ae3" y="144.580078"/>
      </g>
     </g>
     <g id="text_4">
      <text style="font-family:Helvetica;font-size:7.5px;font-style:normal;font-weight:500;text-anchor:middle;" transform="rotate(-0, 117.816406, 156.960156)" x="117.816406" y="156.960156">40</text>
     </g>
    </g>
    <g id="xtick_5">
     <g id="line2d_5">
      <g>
       <use style="stroke:#000000;stroke-width:0.85;" x="143.016406" xlink:href="#ma381c45ae3" y="144.580078"/>
      </g>
     </g>
     <g id="text_5">
      <text style="font-family:Helvetica;font-size:7.5px;font-style:normal;font-weight:500;text-anchor:middle;" transform="rotate(-0, 143.016406, 156.960156)" x="143.016406" y="156.960156">50</text>
     </g>
    </g>
    <g id="xtick_6">
     <g id="line2d_6">
      <g>
       <use style="stroke:#000000;stroke-width:0.85;" x="168.216406" xlink:href="#ma381c45ae3" y="144.580078"/>
      </g>
     </g>
     <g id="text_6">
      <text style="font-family:Helvetica;font-size:7.5px;font-style:normal;font-weight:500;text-anchor:middle;" transform="rotate(-0, 168.216406, 156.960156)" x="168.216406" y="156.960156">60</text>
     </g>
    </g>
    <g id="text_7">
     <!-- $L$ ($\AA$) -->
     <g transform="translate(97.078906 172.048437)">
      <text>
       <tspan style="font-family:Arial;font-size:7.5px;font-style:italic;font-weight:italic;" x="0 8.752441" y="-0.125">LÅ</tspan>
       <tspan style="font-family:Helvetica;font-size:7.5px;font-style:regular;font-weight:regular;" x="4.171143 6.254883 13.754883" y="-0.125"> ()</tspan>
      </text>
     </g>
    </g>
   </g>
   <g id="matplotlib.axis_2">
    <g id="ytick_1">
     <g id="line2d_7">
      <defs>
       <path d="M 0 0 
L -3.5 0 
" id="m586c4d69b1" style="stroke:#000000;stroke-width:0.85;"/>
      </defs>
      <g>
       <use style="stroke:#000000;stroke-width:0.85;" x="42.216406" xlink:href="#m586c4d69b1" y="124.769847"/>
      </g>
     </g>
     <g id="text_8">
      <text style="font-family:Helvetica;font-size:7.5px;font-style:normal;font-weight:500;text-anchor:end;" transform="rotate(-0, 35.216406, 127.459886)" x="35.216406" y="127.459886">4</text>
     </g>
    </g>
    <g id="ytick_2">
     <g id="line2d_8">
      <g>
       <use style="stroke:#000000;stroke-width:0.85;" x="42.216406" xlink:href="#m586c4d69b1" y="94.79193"/>
      </g>
     </g>
     <g id="text_9">
      <text style="font-family:Helvetica;font-size:7.5px;font-style:normal;font-weight:500;text-anchor:end;" transform="rotate(-0, 35.216406, 97.481969)" x="35.216406" y="97.481969">6</text>
     </g>
    </g>
    <g id="ytick_3">
     <g id="line2d_9">
      <g>
       <use style="stroke:#000000;stroke-width:0.85;" x="42.216406" xlink:href="#m586c4d69b1" y="64.814014"/>
      </g>
     </g>
     <g id="text_10">
      <text style="font-family:Helvetica;font-size:7.5px;font-style:normal;font-weight:500;text-anchor:end;" transform="rotate(-0, 35.216406, 67.504053)" x="35.216406" y="67.504053">8</text>
     </g>
    </g>
    <g id="ytick_4">
     <g id="line2d_10">
      <g>
       <use style="stroke:#000000;stroke-width:0.85;" x="42.216406" xlink:href="#m586c4d69b1" y="34.836098"/>
      </g>
     </g>
     <g id="text_11">
      <text style="font-family:Helvetica;font-size:7.5px;font-style:normal;font-weight:500;text-anchor:end;" transform="rotate(-0, 35.216406, 37.526137)" x="35.216406" y="37.526137">10</text>
     </g>
    </g>
    <g id="text_12">
     <!-- $\epsilon^{\parallel}_{\mathrm{SL}}$ -->
     <g transform="translate(16.05 86.642578)rotate(-90)">
      <text>
       <tspan style="font-family:Arial;font-size:7.5px;font-style:italic;font-weight:italic;" x="0" y="-0.9120312500000018">ε</tspan>
       <tspan style="font-family:STIXGeneral;font-size:5.25px;font-style:regular;font-weight:regular;" x="4.329971" y="-6.1390625">∥</tspan>
       <tspan style="font-family:Arial;font-size:5.25px;font-style:regular;font-weight:regular;" x="3.295898 6.797607" y="2.821562499999999">SL</tspan>
      </text>
     </g>
    </g>
   </g>
   <g id="line2d_11">
    <path clip-path="url(#p2c609e99c3)" d="M 42.216406 18.580078 
L 54.816406 69.112832 
L 67.416406 94.275396 
L 80.016406 109.366234 
L 92.616406 119.424754 
L 105.216406 126.617551 
L 117.816406 132.005496 
L 143.016406 139.552482 
L 168.216406 144.580078 
" style="fill:none;stroke:#00aad4;stroke-linecap:square;stroke-width:0.85;"/>
    <defs>
     <path d="M 0 3.25 
C 0.86191 3.25 1.688635 2.907559 2.298097 2.298097 
C 2.907559 1.688635 3.25 0.86191 3.25 0 
C 3.25 -0.86191 2.907559 -1.688635 2.298097 -2.298097 
C 1.688635 -2.907559 0.86191 -3.25 0 -3.25 
C -0.86191 -3.25 -1.688635 -2.907559 -2.298097 -2.298097 
C -2.907559 -1.688635 -3.25 -0.86191 -3.25 0 
C -3.25 0.86191 -2.907559 1.688635 -2.298097 2.298097 
C -1.688635 2.907559 -0.86191 3.25 0 3.25 
z
" id="mcddf942987"/>
    </defs>
    <g clip-path="url(#p2c609e99c3)">
     <use style="fill:#00aad4;" x="42.216406" xlink:href="#mcddf942987" y="18.580078"/>
     <use style="fill:#00aad4;" x="54.816406" xlink:href="#mcddf942987" y="69.112832"/>
     <use style="fill:#00aad4;" x="67.416406" xlink:href="#mcddf942987" y="94.275396"/>
     <use style="fill:#00aad4;" x="80.016406" xlink:href="#mcddf942987" y="109.366234"/>
     <use style="fill:#00aad4;" x="92.616406" xlink:href="#mcddf942987" y="119.424754"/>
     <use style="fill:#00aad4;" x="105.216406" xlink:href="#mcddf942987" y="126.617551"/>
     <use style="fill:#00aad4;" x="117.816406" xlink:href="#mcddf942987" y="132.005496"/>
     <use style="fill:#00aad4;" x="143.016406" xlink:href="#mcddf942987" y="139.552482"/>
     <use style="fill:#00aad4;" x="168.216406" xlink:href="#mcddf942987" y="144.580078"/>
    </g>
   </g>
   <g id="patch_3">
    <path d="M 42.216406 144.580078 
L 42.216406 18.580078 
" style="fill:none;stroke:#000000;stroke-linecap:square;stroke-linejoin:miter;stroke-width:0.85;"/>
   </g>
   <g id="patch_4">
    <path d="M 168.216406 144.580078 
L 168.216406 18.580078 
" style="fill:none;stroke:#000000;stroke-linecap:square;stroke-linejoin:miter;stroke-width:0.85;"/>
   </g>
   <g id="patch_5">
    <path d="M 42.216406 144.580078 
L 168.216406 144.580078 
" style="fill:none;stroke:#000000;stroke-linecap:square;stroke-linejoin:miter;stroke-width:0.85;"/>
   </g>
   <g id="patch_6">
    <path d="M 42.216406 18.580078 
L 168.216406 18.580078 
" style="fill:none;stroke:#000000;stroke-linecap:square;stroke-linejoin:miter;stroke-width:0.85;"/>
   </g>
   <g id="text_13">
    <text style="font-family:Helvetica;font-size:7.5px;font-style:normal;font-weight:normal;text-anchor:middle;" transform="rotate(-0, 105.216406, 12.580078)" x="105.216406" y="12.580078">mose2 parallel</text>
   </g>
  </g>
  <g id="axes_2">
   <g id="matplotlib.axis_3">
    <g id="ytick_5">
     <g id="line2d_12">
      <defs>
       <path d="M 0 0 
L 3.5 0 
" id="m3d0a89836a" style="stroke:#000000;stroke-width:0.85;"/>
      </defs>
      <g>
       <use style="stroke:#000000;stroke-width:0.85;" x="168.216406" xlink:href="#m3d0a89836a" y="144.869042"/>
      </g>
     </g>
     <g id="text_14">
      <text style="font-family:Helvetica;font-size:7.5px;font-style:normal;font-weight:500;text-anchor:start;" transform="rotate(-0, 175.216406, 147.559081)" x="175.216406" y="147.559081">6</text>
     </g>
    </g>
    <g id="ytick_6">
     <g id="line2d_13">
      <g>
       <use style="stroke:#000000;stroke-width:0.85;" x="168.216406" xlink:href="#m3d0a89836a" y="113.541706"/>
      </g>
     </g>
     <g id="text_15">
      <text style="font-family:Helvetica;font-size:7.5px;font-style:normal;font-weight:500;text-anchor:start;" transform="rotate(-0, 175.216406, 116.231746)" x="175.216406" y="116.231746">7</text>
     </g>
    </g>
    <g id="ytick_7">
     <g id="line2d_14">
      <g>
       <use style="stroke:#000000;stroke-width:0.85;" x="168.216406" xlink:href="#m3d0a89836a" y="82.214371"/>
      </g>
     </g>
     <g id="text_16">
      <text style="font-family:Helvetica;font-size:7.5px;font-style:normal;font-weight:500;text-anchor:start;" transform="rotate(-0, 175.216406, 84.90441)" x="175.216406" y="84.90441">8</text>
     </g>
    </g>
    <g id="ytick_8">
     <g id="line2d_15">
      <g>
       <use style="stroke:#000000;stroke-width:0.85;" x="168.216406" xlink:href="#m3d0a89836a" y="50.887035"/>
      </g>
     </g>
     <g id="text_17">
      <text style="font-family:Helvetica;font-size:7.5px;font-style:normal;font-weight:500;text-anchor:start;" transform="rotate(-0, 175.216406, 53.577074)" x="175.216406" y="53.577074">9</text>
     </g>
    </g>
    <g id="ytick_9">
     <g id="line2d_16">
      <g>
       <use style="stroke:#000000;stroke-width:0.85;" x="168.216406" xlink:href="#m3d0a89836a" y="19.559699"/>
      </g>
     </g>
     <g id="text_18">
      <text style="font-family:Helvetica;font-size:7.5px;font-style:normal;font-weight:500;text-anchor:start;" transform="rotate(-0, 175.216406, 22.249738)" x="175.216406" y="22.249738">10</text>
     </g>
    </g>
    <g id="text_19">
     <!-- $\alpha_{\parallel}/(4\pi\varepsilon_0) (\AA)$ -->
     <g transform="translate(197.082812 102.617578)rotate(-90)">
      <text>
       <tspan style="font-family:Arial;font-size:7.5px;font-style:italic;font-weight:italic;" x="0 17.898201 22.922615 34.50679" y="-0.125">απεÅ</tspan>
       <tspan style="font-family:STIXGeneral;font-size:5.25px;font-style:regular;font-weight:regular;" x="5.152002" y="2.11515625">∥</tspan>
       <tspan style="font-family:Arial;font-size:7.5px;font-style:regular;font-weight:regular;" x="9.145759 11.2295 13.727058 29.511672 32.009231 39.509231" y="-0.125">/(4)()</tspan>
       <tspan style="font-family:Arial;font-size:5.25px;font-style:regular;font-weight:regular;" x="26.218513" y="2.11515625">0</tspan>
      </text>
     </g>
    </g>
   </g>
   <g id="line2d_17">
    <path clip-path="url(#p2c609e99c3)" d="M 42.216406 81.430674 
L 54.816406 81.797923 
L 67.416406 81.819849 
L 80.016406 81.813915 
L 92.616406 81.797811 
L 105.216406 81.829085 
L 117.816406 81.816109 
L 143.016406 81.822267 
L 168.216406 81.791229 
" style="fill:none;stroke:#ff6600;stroke-linecap:square;stroke-width:0.85;"/>
    <defs>
     <path d="M 0 3.25 
C 0.86191 3.25 1.688635 2.907559 2.298097 2.298097 
C 2.907559 1.688635 3.25 0.86191 3.25 0 
C 3.25 -0.86191 2.907559 -1.688635 2.298097 -2.298097 
C 1.688635 -2.907559 0.86191 -3.25 0 -3.25 
C -0.86191 -3.25 -1.688635 -2.907559 -2.298097 -2.298097 
C -2.907559 -1.688635 -3.25 -0.86191 -3.25 0 
C -3.25 0.86191 -2.907559 1.688635 -2.298097 2.298097 
C -1.688635 2.907559 -0.86191 3.25 0 3.25 
z
" id="mc714380ba7"/>
    </defs>
    <g clip-path="url(#p2c609e99c3)">
     <use style="fill:#ff6600;" x="42.216406" xlink:href="#mc714380ba7" y="81.430674"/>
     <use style="fill:#ff6600;" x="54.816406" xlink:href="#mc714380ba7" y="81.797923"/>
     <use style="fill:#ff6600;" x="67.416406" xlink:href="#mc714380ba7" y="81.819849"/>
     <use style="fill:#ff6600;" x="80.016406" xlink:href="#mc714380ba7" y="81.813915"/>
     <use style="fill:#ff6600;" x="92.616406" xlink:href="#mc714380ba7" y="81.797811"/>
     <use style="fill:#ff6600;" x="105.216406" xlink:href="#mc714380ba7" y="81.829085"/>
     <use style="fill:#ff6600;" x="117.816406" xlink:href="#mc714380ba7" y="81.816109"/>
     <use style="fill:#ff6600;" x="143.016406" xlink:href="#mc714380ba7" y="81.822267"/>
     <use style="fill:#ff6600;" x="168.216406" xlink:href="#mc714380ba7" y="81.791229"/>
    </g>
   </g>
   <g id="patch_7">
    <path d="M 42.216406 144.580078 
L 42.216406 18.580078 
" style="fill:none;stroke:#000000;stroke-linecap:square;stroke-linejoin:miter;stroke-width:0.85;"/>
   </g>
   <g id="patch_8">
    <path d="M 168.216406 144.580078 
L 168.216406 18.580078 
" style="fill:none;stroke:#000000;stroke-linecap:square;stroke-linejoin:miter;stroke-width:0.85;"/>
   </g>
   <g id="patch_9">
    <path d="M 42.216406 144.580078 
L 168.216406 144.580078 
" style="fill:none;stroke:#000000;stroke-linecap:square;stroke-linejoin:miter;stroke-width:0.85;"/>
   </g>
   <g id="patch_10">
    <path d="M 42.216406 18.580078 
L 168.216406 18.580078 
" style="fill:none;stroke:#000000;stroke-linecap:square;stroke-linejoin:miter;stroke-width:0.85;"/>
   </g>
  </g>
 </g>
 <defs>
  <clipPath id="p2c609e99c3">
   <rect height="126" width="126" x="42.216406" y="18.580078"/>
  </clipPath>
 </defs>
</svg>
