<?xml version="1.0" encoding="utf-8" standalone="no"?>
<!DOCTYPE svg PUBLIC "-//W3C//DTD SVG 1.1//EN"
  "http://www.w3.org/Graphics/SVG/1.1/DTD/svg11.dtd">
<!-- Created with matplotlib (http://matplotlib.org/) -->
<svg height="172.943359pt" version="1.1" viewBox="0 0 214.870703 172.943359" width="214.870703pt" xmlns="http://www.w3.org/2000/svg" xmlns:xlink="http://www.w3.org/1999/xlink">
 <defs>
  <style type="text/css">
*{stroke-linecap:butt;stroke-linejoin:round;}
  </style>
 </defs>
 <g id="figure_1">
  <g id="patch_1">
   <path d="M 0 172.943359 
L 214.870703 172.943359 
L 214.870703 0 
L 0 0 
z
" style="fill:none;"/>
  </g>
  <g id="axes_1">
   <g id="patch_2">
    <path d="M 44.225 136.7 
L 170.225 136.7 
L 170.225 10.7 
L 44.225 10.7 
z
" style="fill:none;"/>
   </g>
   <g id="matplotlib.axis_1">
    <g id="xtick_1">
     <g id="line2d_1">
      <defs>
       <path d="M 0 0 
L 0 3.5 
" id="m49771e98ce" style="stroke:#000000;stroke-width:0.85;"/>
      </defs>
      <g>
       <use style="stroke:#000000;stroke-width:0.85;" x="44.225" xlink:href="#m49771e98ce" y="136.7"/>
      </g>
     </g>
     <g id="text_1">
      <text style="font-family:Helvetica;font-size:7.5px;font-style:normal;font-weight:500;text-anchor:middle;" transform="rotate(-0, 44.225, 149.080078)" x="44.225" y="149.080078">10</text>
     </g>
    </g>
    <g id="xtick_2">
     <g id="line2d_2">
      <g>
       <use style="stroke:#000000;stroke-width:0.85;" x="69.425" xlink:href="#m49771e98ce" y="136.7"/>
      </g>
     </g>
     <g id="text_2">
      <text style="font-family:Helvetica;font-size:7.5px;font-style:normal;font-weight:500;text-anchor:middle;" transform="rotate(-0, 69.425, 149.080078)" x="69.425" y="149.080078">20</text>
     </g>
    </g>
    <g id="xtick_3">
     <g id="line2d_3">
      <g>
       <use style="stroke:#000000;stroke-width:0.85;" x="94.625" xlink:href="#m49771e98ce" y="136.7"/>
      </g>
     </g>
     <g id="text_3">
      <text style="font-family:Helvetica;font-size:7.5px;font-style:normal;font-weight:500;text-anchor:middle;" transform="rotate(-0, 94.625, 149.080078)" x="94.625" y="149.080078">30</text>
     </g>
    </g>
    <g id="xtick_4">
     <g id="line2d_4">
      <g>
       <use style="stroke:#000000;stroke-width:0.85;" x="119.825" xlink:href="#m49771e98ce" y="136.7"/>
      </g>
     </g>
     <g id="text_4">
      <text style="font-family:Helvetica;font-size:7.5px;font-style:normal;font-weight:500;text-anchor:middle;" transform="rotate(-0, 119.825, 149.080078)" x="119.825" y="149.080078">40</text>
     </g>
    </g>
    <g id="xtick_5">
     <g id="line2d_5">
      <g>
       <use style="stroke:#000000;stroke-width:0.85;" x="145.025" xlink:href="#m49771e98ce" y="136.7"/>
      </g>
     </g>
     <g id="text_5">
      <text style="font-family:Helvetica;font-size:7.5px;font-style:normal;font-weight:500;text-anchor:middle;" transform="rotate(-0, 145.025, 149.080078)" x="145.025" y="149.080078">50</text>
     </g>
    </g>
    <g id="xtick_6">
     <g id="line2d_6">
      <g>
       <use style="stroke:#000000;stroke-width:0.85;" x="170.225" xlink:href="#m49771e98ce" y="136.7"/>
      </g>
     </g>
     <g id="text_6">
      <text style="font-family:Helvetica;font-size:7.5px;font-style:normal;font-weight:500;text-anchor:middle;" transform="rotate(-0, 170.225, 149.080078)" x="170.225" y="149.080078">60</text>
     </g>
    </g>
    <g id="text_7">
     <!-- $L$ ($\AA$) -->
     <g transform="translate(99.0875 164.168359)">
      <text>
       <tspan style="font-family:Arial;font-size:7.5px;font-style:italic;font-weight:italic;" x="0 8.752441" y="-0.125">LÅ</tspan>
       <tspan style="font-family:Helvetica;font-size:7.5px;font-style:regular;font-weight:regular;" x="4.171143 6.254883 13.754883" y="-0.125"> ()</tspan>
      </text>
     </g>
    </g>
   </g>
   <g id="matplotlib.axis_2">
    <g id="ytick_1">
     <g id="line2d_7">
      <defs>
       <path d="M 0 0 
L -3.5 0 
" id="m8aca3d7cd5" style="stroke:#000000;stroke-width:0.85;"/>
      </defs>
      <g>
       <use style="stroke:#000000;stroke-width:0.85;" x="44.225" xlink:href="#m8aca3d7cd5" y="127.269364"/>
      </g>
     </g>
     <g id="text_8">
      <text style="font-family:Helvetica;font-size:7.5px;font-style:normal;font-weight:500;text-anchor:end;" transform="rotate(-0, 37.225, 129.959403)" x="37.225" y="129.959403">1.2</text>
     </g>
    </g>
    <g id="ytick_2">
     <g id="line2d_8">
      <g>
       <use style="stroke:#000000;stroke-width:0.85;" x="44.225" xlink:href="#m8aca3d7cd5" y="107.924273"/>
      </g>
     </g>
     <g id="text_9">
      <text style="font-family:Helvetica;font-size:7.5px;font-style:normal;font-weight:500;text-anchor:end;" transform="rotate(-0, 37.225, 110.614312)" x="37.225" y="110.614312">1.4</text>
     </g>
    </g>
    <g id="ytick_3">
     <g id="line2d_9">
      <g>
       <use style="stroke:#000000;stroke-width:0.85;" x="44.225" xlink:href="#m8aca3d7cd5" y="88.579181"/>
      </g>
     </g>
     <g id="text_10">
      <text style="font-family:Helvetica;font-size:7.5px;font-style:normal;font-weight:500;text-anchor:end;" transform="rotate(-0, 37.225, 91.26922)" x="37.225" y="91.26922">1.6</text>
     </g>
    </g>
    <g id="ytick_4">
     <g id="line2d_10">
      <g>
       <use style="stroke:#000000;stroke-width:0.85;" x="44.225" xlink:href="#m8aca3d7cd5" y="69.234089"/>
      </g>
     </g>
     <g id="text_11">
      <text style="font-family:Helvetica;font-size:7.5px;font-style:normal;font-weight:500;text-anchor:end;" transform="rotate(-0, 37.225, 71.924128)" x="37.225" y="71.924128">1.8</text>
     </g>
    </g>
    <g id="ytick_5">
     <g id="line2d_11">
      <g>
       <use style="stroke:#000000;stroke-width:0.85;" x="44.225" xlink:href="#m8aca3d7cd5" y="49.888997"/>
      </g>
     </g>
     <g id="text_12">
      <text style="font-family:Helvetica;font-size:7.5px;font-style:normal;font-weight:500;text-anchor:end;" transform="rotate(-0, 37.225, 52.579036)" x="37.225" y="52.579036">2.0</text>
     </g>
    </g>
    <g id="ytick_6">
     <g id="line2d_12">
      <g>
       <use style="stroke:#000000;stroke-width:0.85;" x="44.225" xlink:href="#m8aca3d7cd5" y="30.543905"/>
      </g>
     </g>
     <g id="text_13">
      <text style="font-family:Helvetica;font-size:7.5px;font-style:normal;font-weight:500;text-anchor:end;" transform="rotate(-0, 37.225, 33.233944)" x="37.225" y="33.233944">2.2</text>
     </g>
    </g>
    <g id="ytick_7">
     <g id="line2d_13">
      <g>
       <use style="stroke:#000000;stroke-width:0.85;" x="44.225" xlink:href="#m8aca3d7cd5" y="11.198813"/>
      </g>
     </g>
     <g id="text_14">
      <text style="font-family:Helvetica;font-size:7.5px;font-style:normal;font-weight:500;text-anchor:end;" transform="rotate(-0, 37.225, 13.888852)" x="37.225" y="13.888852">2.4</text>
     </g>
    </g>
    <g id="text_15">
     <!-- $\epsilon^{\perp}_{\mathrm{SL}}$ -->
     <g transform="translate(15.975 78.7625)rotate(-90)">
      <text>
       <tspan style="font-family:Arial;font-size:7.5px;font-style:italic;font-weight:italic;" x="0" y="-0.06515625000000114">ε</tspan>
       <tspan style="font-family:STIXGeneral;font-size:5.25px;font-style:regular;font-weight:regular;" x="4.329971" y="-5.292187500000001">⟂</tspan>
       <tspan style="font-family:Arial;font-size:5.25px;font-style:regular;font-weight:regular;" x="3.295898 6.797607" y="3.6684374999999996">SL</tspan>
      </text>
     </g>
    </g>
   </g>
   <g id="line2d_14">
    <path clip-path="url(#p93130be7d9)" d="M 44.225 10.7 
L 56.825 89.384614 
L 69.425 109.187314 
L 82.025 118.811884 
L 94.625 124.501469 
L 107.225 128.262155 
L 119.825 130.929069 
L 145.025 134.461483 
L 170.225 136.7 
" style="fill:none;stroke:#00aad4;stroke-linecap:square;stroke-width:0.85;"/>
    <defs>
     <path d="M 0 3.25 
C 0.86191 3.25 1.688635 2.907559 2.298097 2.298097 
C 2.907559 1.688635 3.25 0.86191 3.25 0 
C 3.25 -0.86191 2.907559 -1.688635 2.298097 -2.298097 
C 1.688635 -2.907559 0.86191 -3.25 0 -3.25 
C -0.86191 -3.25 -1.688635 -2.907559 -2.298097 -2.298097 
C -2.907559 -1.688635 -3.25 -0.86191 -3.25 0 
C -3.25 0.86191 -2.907559 1.688635 -2.298097 2.298097 
C -1.688635 2.907559 -0.86191 3.25 0 3.25 
z
" id="m951beae6f1"/>
    </defs>
    <g clip-path="url(#p93130be7d9)">
     <use style="fill:#00aad4;" x="44.225" xlink:href="#m951beae6f1" y="10.7"/>
     <use style="fill:#00aad4;" x="56.825" xlink:href="#m951beae6f1" y="89.384614"/>
     <use style="fill:#00aad4;" x="69.425" xlink:href="#m951beae6f1" y="109.187314"/>
     <use style="fill:#00aad4;" x="82.025" xlink:href="#m951beae6f1" y="118.811884"/>
     <use style="fill:#00aad4;" x="94.625" xlink:href="#m951beae6f1" y="124.501469"/>
     <use style="fill:#00aad4;" x="107.225" xlink:href="#m951beae6f1" y="128.262155"/>
     <use style="fill:#00aad4;" x="119.825" xlink:href="#m951beae6f1" y="130.929069"/>
     <use style="fill:#00aad4;" x="145.025" xlink:href="#m951beae6f1" y="134.461483"/>
     <use style="fill:#00aad4;" x="170.225" xlink:href="#m951beae6f1" y="136.7"/>
    </g>
   </g>
   <g id="patch_3">
    <path d="M 44.225 136.7 
L 44.225 10.7 
" style="fill:none;stroke:#000000;stroke-linecap:square;stroke-linejoin:miter;stroke-width:0.85;"/>
   </g>
   <g id="patch_4">
    <path d="M 170.225 136.7 
L 170.225 10.7 
" style="fill:none;stroke:#000000;stroke-linecap:square;stroke-linejoin:miter;stroke-width:0.85;"/>
   </g>
   <g id="patch_5">
    <path d="M 44.225 136.7 
L 170.225 136.7 
" style="fill:none;stroke:#000000;stroke-linecap:square;stroke-linejoin:miter;stroke-width:0.85;"/>
   </g>
   <g id="patch_6">
    <path d="M 44.225 10.7 
L 170.225 10.7 
" style="fill:none;stroke:#000000;stroke-linecap:square;stroke-linejoin:miter;stroke-width:0.85;"/>
   </g>
  </g>
  <g id="axes_2">
   <g id="matplotlib.axis_3">
    <g id="ytick_8">
     <g id="line2d_15">
      <defs>
       <path d="M 0 0 
L 3.5 0 
" id="m547fb85ce0" style="stroke:#000000;stroke-width:0.85;"/>
      </defs>
      <g>
       <use style="stroke:#000000;stroke-width:0.85;" x="170.225" xlink:href="#m547fb85ce0" y="127.968676"/>
      </g>
     </g>
     <g id="text_16">
      <text style="font-family:Helvetica;font-size:7.5px;font-style:normal;font-weight:500;text-anchor:start;" transform="rotate(-0, 177.225, 130.658715)" x="177.225" y="130.658715">0.35</text>
     </g>
    </g>
    <g id="ytick_9">
     <g id="line2d_16">
      <g>
       <use style="stroke:#000000;stroke-width:0.85;" x="170.225" xlink:href="#m547fb85ce0" y="102.601337"/>
      </g>
     </g>
     <g id="text_17">
      <text style="font-family:Helvetica;font-size:7.5px;font-style:normal;font-weight:500;text-anchor:start;" transform="rotate(-0, 177.225, 105.291376)" x="177.225" y="105.291376">0.40</text>
     </g>
    </g>
    <g id="ytick_10">
     <g id="line2d_17">
      <g>
       <use style="stroke:#000000;stroke-width:0.85;" x="170.225" xlink:href="#m547fb85ce0" y="77.233999"/>
      </g>
     </g>
     <g id="text_18">
      <text style="font-family:Helvetica;font-size:7.5px;font-style:normal;font-weight:500;text-anchor:start;" transform="rotate(-0, 177.225, 79.924038)" x="177.225" y="79.924038">0.45</text>
     </g>
    </g>
    <g id="ytick_11">
     <g id="line2d_18">
      <g>
       <use style="stroke:#000000;stroke-width:0.85;" x="170.225" xlink:href="#m547fb85ce0" y="51.86666"/>
      </g>
     </g>
     <g id="text_19">
      <text style="font-family:Helvetica;font-size:7.5px;font-style:normal;font-weight:500;text-anchor:start;" transform="rotate(-0, 177.225, 54.556699)" x="177.225" y="54.556699">0.50</text>
     </g>
    </g>
    <g id="ytick_12">
     <g id="line2d_19">
      <g>
       <use style="stroke:#000000;stroke-width:0.85;" x="170.225" xlink:href="#m547fb85ce0" y="26.499322"/>
      </g>
     </g>
     <g id="text_20">
      <text style="font-family:Helvetica;font-size:7.5px;font-style:normal;font-weight:500;text-anchor:start;" transform="rotate(-0, 177.225, 29.189361)" x="177.225" y="29.189361">0.55</text>
     </g>
    </g>
    <g id="text_21">
     <!-- $\alpha_{\perp}/(4\pi \varepsilon_0) (\AA)$ -->
     <g transform="translate(205.345703 95.15)rotate(-90)">
      <text>
       <tspan style="font-family:Arial;font-size:7.5px;font-style:italic;font-weight:italic;" x="0 18.790707 23.815121 35.399296" y="-0.125">απεÅ</tspan>
       <tspan style="font-family:STIXGeneral;font-size:5.25px;font-style:regular;font-weight:regular;" x="5.152002" y="2.11515625">⟂</tspan>
       <tspan style="font-family:Arial;font-size:7.5px;font-style:regular;font-weight:regular;" x="10.038266 12.122006 14.619565 30.404179 32.901737 40.401737" y="-0.125">/(4)()</tspan>
       <tspan style="font-family:Arial;font-size:5.25px;font-style:regular;font-weight:regular;" x="27.11102" y="2.11515625">0</tspan>
      </text>
     </g>
    </g>
   </g>
   <g id="line2d_20">
    <path clip-path="url(#p93130be7d9)" d="M 44.225 69.668009 
L 56.825 80.419985 
L 69.425 80.26525 
L 82.025 80.192463 
L 94.625 80.164523 
L 107.225 80.18763 
L 119.825 80.198091 
L 145.025 80.216937 
L 170.225 80.326039 
" style="fill:none;stroke:#ff6600;stroke-linecap:square;stroke-width:0.85;"/>
    <defs>
     <path d="M 0 3.25 
C 0.86191 3.25 1.688635 2.907559 2.298097 2.298097 
C 2.907559 1.688635 3.25 0.86191 3.25 0 
C 3.25 -0.86191 2.907559 -1.688635 2.298097 -2.298097 
C 1.688635 -2.907559 0.86191 -3.25 0 -3.25 
C -0.86191 -3.25 -1.688635 -2.907559 -2.298097 -2.298097 
C -2.907559 -1.688635 -3.25 -0.86191 -3.25 0 
C -3.25 0.86191 -2.907559 1.688635 -2.298097 2.298097 
C -1.688635 2.907559 -0.86191 3.25 0 3.25 
z
" id="m6e56a3b79f"/>
    </defs>
    <g clip-path="url(#p93130be7d9)">
     <use style="fill:#ff6600;" x="44.225" xlink:href="#m6e56a3b79f" y="69.668009"/>
     <use style="fill:#ff6600;" x="56.825" xlink:href="#m6e56a3b79f" y="80.419985"/>
     <use style="fill:#ff6600;" x="69.425" xlink:href="#m6e56a3b79f" y="80.26525"/>
     <use style="fill:#ff6600;" x="82.025" xlink:href="#m6e56a3b79f" y="80.192463"/>
     <use style="fill:#ff6600;" x="94.625" xlink:href="#m6e56a3b79f" y="80.164523"/>
     <use style="fill:#ff6600;" x="107.225" xlink:href="#m6e56a3b79f" y="80.18763"/>
     <use style="fill:#ff6600;" x="119.825" xlink:href="#m6e56a3b79f" y="80.198091"/>
     <use style="fill:#ff6600;" x="145.025" xlink:href="#m6e56a3b79f" y="80.216937"/>
     <use style="fill:#ff6600;" x="170.225" xlink:href="#m6e56a3b79f" y="80.326039"/>
    </g>
   </g>
   <g id="patch_7">
    <path d="M 44.225 136.7 
L 44.225 10.7 
" style="fill:none;stroke:#000000;stroke-linecap:square;stroke-linejoin:miter;stroke-width:0.85;"/>
   </g>
   <g id="patch_8">
    <path d="M 170.225 136.7 
L 170.225 10.7 
" style="fill:none;stroke:#000000;stroke-linecap:square;stroke-linejoin:miter;stroke-width:0.85;"/>
   </g>
   <g id="patch_9">
    <path d="M 44.225 136.7 
L 170.225 136.7 
" style="fill:none;stroke:#000000;stroke-linecap:square;stroke-linejoin:miter;stroke-width:0.85;"/>
   </g>
   <g id="patch_10">
    <path d="M 44.225 10.7 
L 170.225 10.7 
" style="fill:none;stroke:#000000;stroke-linecap:square;stroke-linejoin:miter;stroke-width:0.85;"/>
   </g>
  </g>
 </g>
 <defs>
  <clipPath id="p93130be7d9">
   <rect height="126" width="126" x="44.225" y="10.7"/>
  </clipPath>
 </defs>
</svg>
