<?xml version="1.0" encoding="utf-8" standalone="no"?>
<!DOCTYPE svg PUBLIC "-//W3C//DTD SVG 1.1//EN"
  "http://www.w3.org/Graphics/SVG/1.1/DTD/svg11.dtd">
<!-- Created with matplotlib (http://matplotlib.org/) -->
<svg height="172.943359pt" version="1.1" viewBox="0 0 214.870703 172.943359" width="214.870703pt" xmlns="http://www.w3.org/2000/svg" xmlns:xlink="http://www.w3.org/1999/xlink">
 <defs>
  <style type="text/css">
*{stroke-linecap:butt;stroke-linejoin:round;}
  </style>
 </defs>
 <g id="figure_1">
  <g id="patch_1">
   <path d="M 0 172.943359 
L 214.870703 172.943359 
L 214.870703 0 
L 0 0 
z
" style="fill:none;"/>
  </g>
  <g id="axes_1">
   <g id="patch_2">
    <path d="M 44.225 136.7 
L 170.225 136.7 
L 170.225 10.7 
L 44.225 10.7 
z
" style="fill:none;"/>
   </g>
   <g id="matplotlib.axis_1">
    <g id="xtick_1">
     <g id="line2d_1">
      <defs>
       <path d="M 0 0 
L 0 3.5 
" id="m02321d0be5" style="stroke:#000000;stroke-width:0.85;"/>
      </defs>
      <g>
       <use style="stroke:#000000;stroke-width:0.85;" x="44.225" xlink:href="#m02321d0be5" y="136.7"/>
      </g>
     </g>
     <g id="text_1">
      <text style="font-family:Helvetica;font-size:7.5px;font-style:normal;font-weight:500;text-anchor:middle;" transform="rotate(-0, 44.225, 149.080078)" x="44.225" y="149.080078">10</text>
     </g>
    </g>
    <g id="xtick_2">
     <g id="line2d_2">
      <g>
       <use style="stroke:#000000;stroke-width:0.85;" x="69.425" xlink:href="#m02321d0be5" y="136.7"/>
      </g>
     </g>
     <g id="text_2">
      <text style="font-family:Helvetica;font-size:7.5px;font-style:normal;font-weight:500;text-anchor:middle;" transform="rotate(-0, 69.425, 149.080078)" x="69.425" y="149.080078">20</text>
     </g>
    </g>
    <g id="xtick_3">
     <g id="line2d_3">
      <g>
       <use style="stroke:#000000;stroke-width:0.85;" x="94.625" xlink:href="#m02321d0be5" y="136.7"/>
      </g>
     </g>
     <g id="text_3">
      <text style="font-family:Helvetica;font-size:7.5px;font-style:normal;font-weight:500;text-anchor:middle;" transform="rotate(-0, 94.625, 149.080078)" x="94.625" y="149.080078">30</text>
     </g>
    </g>
    <g id="xtick_4">
     <g id="line2d_4">
      <g>
       <use style="stroke:#000000;stroke-width:0.85;" x="119.825" xlink:href="#m02321d0be5" y="136.7"/>
      </g>
     </g>
     <g id="text_4">
      <text style="font-family:Helvetica;font-size:7.5px;font-style:normal;font-weight:500;text-anchor:middle;" transform="rotate(-0, 119.825, 149.080078)" x="119.825" y="149.080078">40</text>
     </g>
    </g>
    <g id="xtick_5">
     <g id="line2d_5">
      <g>
       <use style="stroke:#000000;stroke-width:0.85;" x="145.025" xlink:href="#m02321d0be5" y="136.7"/>
      </g>
     </g>
     <g id="text_5">
      <text style="font-family:Helvetica;font-size:7.5px;font-style:normal;font-weight:500;text-anchor:middle;" transform="rotate(-0, 145.025, 149.080078)" x="145.025" y="149.080078">50</text>
     </g>
    </g>
    <g id="xtick_6">
     <g id="line2d_6">
      <g>
       <use style="stroke:#000000;stroke-width:0.85;" x="170.225" xlink:href="#m02321d0be5" y="136.7"/>
      </g>
     </g>
     <g id="text_6">
      <text style="font-family:Helvetica;font-size:7.5px;font-style:normal;font-weight:500;text-anchor:middle;" transform="rotate(-0, 170.225, 149.080078)" x="170.225" y="149.080078">60</text>
     </g>
    </g>
    <g id="text_7">
     <!-- $L$ ($\AA$) -->
     <g transform="translate(99.0875 164.168359)">
      <text>
       <tspan style="font-family:Arial;font-size:7.5px;font-style:italic;font-weight:italic;" x="0 8.752441" y="-0.125">LÅ</tspan>
       <tspan style="font-family:Helvetica;font-size:7.5px;font-style:regular;font-weight:regular;" x="4.171143 6.254883 13.754883" y="-0.125"> ()</tspan>
      </text>
     </g>
    </g>
   </g>
   <g id="matplotlib.axis_2">
    <g id="ytick_1">
     <g id="line2d_7">
      <defs>
       <path d="M 0 0 
L -3.5 0 
" id="m8ef59cf26c" style="stroke:#000000;stroke-width:0.85;"/>
      </defs>
      <g>
       <use style="stroke:#000000;stroke-width:0.85;" x="44.225" xlink:href="#m8ef59cf26c" y="113.541619"/>
      </g>
     </g>
     <g id="text_8">
      <text style="font-family:Helvetica;font-size:7.5px;font-style:normal;font-weight:500;text-anchor:end;" transform="rotate(-0, 37.225, 116.231658)" x="37.225" y="116.231658">1.5</text>
     </g>
    </g>
    <g id="ytick_2">
     <g id="line2d_8">
      <g>
       <use style="stroke:#000000;stroke-width:0.85;" x="44.225" xlink:href="#m8ef59cf26c" y="83.286627"/>
      </g>
     </g>
     <g id="text_9">
      <text style="font-family:Helvetica;font-size:7.5px;font-style:normal;font-weight:500;text-anchor:end;" transform="rotate(-0, 37.225, 85.976666)" x="37.225" y="85.976666">2.0</text>
     </g>
    </g>
    <g id="ytick_3">
     <g id="line2d_9">
      <g>
       <use style="stroke:#000000;stroke-width:0.85;" x="44.225" xlink:href="#m8ef59cf26c" y="53.031635"/>
      </g>
     </g>
     <g id="text_10">
      <text style="font-family:Helvetica;font-size:7.5px;font-style:normal;font-weight:500;text-anchor:end;" transform="rotate(-0, 37.225, 55.721674)" x="37.225" y="55.721674">2.5</text>
     </g>
    </g>
    <g id="ytick_4">
     <g id="line2d_10">
      <g>
       <use style="stroke:#000000;stroke-width:0.85;" x="44.225" xlink:href="#m8ef59cf26c" y="22.776643"/>
      </g>
     </g>
     <g id="text_11">
      <text style="font-family:Helvetica;font-size:7.5px;font-style:normal;font-weight:500;text-anchor:end;" transform="rotate(-0, 37.225, 25.466682)" x="37.225" y="25.466682">3.0</text>
     </g>
    </g>
    <g id="text_12">
     <!-- $\epsilon^{\perp}_{\mathrm{SL}}$ -->
     <g transform="translate(15.975 78.7625)rotate(-90)">
      <text>
       <tspan style="font-family:Arial;font-size:7.5px;font-style:italic;font-weight:italic;" x="0" y="-0.06515625000000114">ε</tspan>
       <tspan style="font-family:STIXGeneral;font-size:5.25px;font-style:regular;font-weight:regular;" x="4.329971" y="-5.292187500000001">⟂</tspan>
       <tspan style="font-family:Arial;font-size:5.25px;font-style:regular;font-weight:regular;" x="3.295898 6.797607" y="3.6684374999999996">SL</tspan>
      </text>
     </g>
    </g>
   </g>
   <g id="line2d_11">
    <path clip-path="url(#p74806f6788)" d="M 44.225 10.7 
L 56.825 100.121836 
L 69.425 116.000079 
L 82.025 123.42296 
L 94.625 127.71935 
L 107.225 130.51001 
L 119.825 132.489171 
L 145.025 135.077364 
L 170.225 136.7 
" style="fill:none;stroke:#00aad4;stroke-linecap:square;stroke-width:0.85;"/>
    <defs>
     <path d="M 0 3.25 
C 0.86191 3.25 1.688635 2.907559 2.298097 2.298097 
C 2.907559 1.688635 3.25 0.86191 3.25 0 
C 3.25 -0.86191 2.907559 -1.688635 2.298097 -2.298097 
C 1.688635 -2.907559 0.86191 -3.25 0 -3.25 
C -0.86191 -3.25 -1.688635 -2.907559 -2.298097 -2.298097 
C -2.907559 -1.688635 -3.25 -0.86191 -3.25 0 
C -3.25 0.86191 -2.907559 1.688635 -2.298097 2.298097 
C -1.688635 2.907559 -0.86191 3.25 0 3.25 
z
" id="mb668d3e188"/>
    </defs>
    <g clip-path="url(#p74806f6788)">
     <use style="fill:#00aad4;" x="44.225" xlink:href="#mb668d3e188" y="10.7"/>
     <use style="fill:#00aad4;" x="56.825" xlink:href="#mb668d3e188" y="100.121836"/>
     <use style="fill:#00aad4;" x="69.425" xlink:href="#mb668d3e188" y="116.000079"/>
     <use style="fill:#00aad4;" x="82.025" xlink:href="#mb668d3e188" y="123.42296"/>
     <use style="fill:#00aad4;" x="94.625" xlink:href="#mb668d3e188" y="127.71935"/>
     <use style="fill:#00aad4;" x="107.225" xlink:href="#mb668d3e188" y="130.51001"/>
     <use style="fill:#00aad4;" x="119.825" xlink:href="#mb668d3e188" y="132.489171"/>
     <use style="fill:#00aad4;" x="145.025" xlink:href="#mb668d3e188" y="135.077364"/>
     <use style="fill:#00aad4;" x="170.225" xlink:href="#mb668d3e188" y="136.7"/>
    </g>
   </g>
   <g id="patch_3">
    <path d="M 44.225 136.7 
L 44.225 10.7 
" style="fill:none;stroke:#000000;stroke-linecap:square;stroke-linejoin:miter;stroke-width:0.85;"/>
   </g>
   <g id="patch_4">
    <path d="M 170.225 136.7 
L 170.225 10.7 
" style="fill:none;stroke:#000000;stroke-linecap:square;stroke-linejoin:miter;stroke-width:0.85;"/>
   </g>
   <g id="patch_5">
    <path d="M 44.225 136.7 
L 170.225 136.7 
" style="fill:none;stroke:#000000;stroke-linecap:square;stroke-linejoin:miter;stroke-width:0.85;"/>
   </g>
   <g id="patch_6">
    <path d="M 44.225 10.7 
L 170.225 10.7 
" style="fill:none;stroke:#000000;stroke-linecap:square;stroke-linejoin:miter;stroke-width:0.85;"/>
   </g>
  </g>
  <g id="axes_2">
   <g id="matplotlib.axis_3">
    <g id="ytick_5">
     <g id="line2d_12">
      <defs>
       <path d="M 0 0 
L 3.5 0 
" id="m9463acb30c" style="stroke:#000000;stroke-width:0.85;"/>
      </defs>
      <g>
       <use style="stroke:#000000;stroke-width:0.85;" x="170.225" xlink:href="#m9463acb30c" y="126.609695"/>
      </g>
     </g>
     <g id="text_13">
      <text style="font-family:Helvetica;font-size:7.5px;font-style:normal;font-weight:500;text-anchor:start;" transform="rotate(-0, 177.225, 129.299734)" x="177.225" y="129.299734">0.40</text>
     </g>
    </g>
    <g id="ytick_6">
     <g id="line2d_13">
      <g>
       <use style="stroke:#000000;stroke-width:0.85;" x="170.225" xlink:href="#m9463acb30c" y="106.190706"/>
      </g>
     </g>
     <g id="text_14">
      <text style="font-family:Helvetica;font-size:7.5px;font-style:normal;font-weight:500;text-anchor:start;" transform="rotate(-0, 177.225, 108.880745)" x="177.225" y="108.880745">0.45</text>
     </g>
    </g>
    <g id="ytick_7">
     <g id="line2d_14">
      <g>
       <use style="stroke:#000000;stroke-width:0.85;" x="170.225" xlink:href="#m9463acb30c" y="85.771716"/>
      </g>
     </g>
     <g id="text_15">
      <text style="font-family:Helvetica;font-size:7.5px;font-style:normal;font-weight:500;text-anchor:start;" transform="rotate(-0, 177.225, 88.461755)" x="177.225" y="88.461755">0.50</text>
     </g>
    </g>
    <g id="ytick_8">
     <g id="line2d_15">
      <g>
       <use style="stroke:#000000;stroke-width:0.85;" x="170.225" xlink:href="#m9463acb30c" y="65.352727"/>
      </g>
     </g>
     <g id="text_16">
      <text style="font-family:Helvetica;font-size:7.5px;font-style:normal;font-weight:500;text-anchor:start;" transform="rotate(-0, 177.225, 68.042766)" x="177.225" y="68.042766">0.55</text>
     </g>
    </g>
    <g id="ytick_9">
     <g id="line2d_16">
      <g>
       <use style="stroke:#000000;stroke-width:0.85;" x="170.225" xlink:href="#m9463acb30c" y="44.933738"/>
      </g>
     </g>
     <g id="text_17">
      <text style="font-family:Helvetica;font-size:7.5px;font-style:normal;font-weight:500;text-anchor:start;" transform="rotate(-0, 177.225, 47.623777)" x="177.225" y="47.623777">0.60</text>
     </g>
    </g>
    <g id="ytick_10">
     <g id="line2d_17">
      <g>
       <use style="stroke:#000000;stroke-width:0.85;" x="170.225" xlink:href="#m9463acb30c" y="24.514749"/>
      </g>
     </g>
     <g id="text_18">
      <text style="font-family:Helvetica;font-size:7.5px;font-style:normal;font-weight:500;text-anchor:start;" transform="rotate(-0, 177.225, 27.204788)" x="177.225" y="27.204788">0.65</text>
     </g>
    </g>
    <g id="text_19">
     <!-- $\alpha_{\perp}/(4\pi \varepsilon_0) (\AA)$ -->
     <g transform="translate(205.345703 95.15)rotate(-90)">
      <text>
       <tspan style="font-family:Arial;font-size:7.5px;font-style:italic;font-weight:italic;" x="0 18.790707 23.815121 35.399296" y="-0.125">απεÅ</tspan>
       <tspan style="font-family:STIXGeneral;font-size:5.25px;font-style:regular;font-weight:regular;" x="5.152002" y="2.11515625">⟂</tspan>
       <tspan style="font-family:Arial;font-size:7.5px;font-style:regular;font-weight:regular;" x="10.038266 12.122006 14.619565 30.404179 32.901737 40.401737" y="-0.125">/(4)()</tspan>
       <tspan style="font-family:Arial;font-size:5.25px;font-style:regular;font-weight:regular;" x="27.11102" y="2.11515625">0</tspan>
      </text>
     </g>
    </g>
   </g>
   <g id="line2d_18">
    <path clip-path="url(#p74806f6788)" d="M 44.225 66.552322 
L 56.825 85.612797 
L 69.425 85.372632 
L 82.025 85.315928 
L 94.625 85.302426 
L 107.225 85.175715 
L 119.825 85.294131 
L 145.025 85.310626 
L 170.225 85.28531 
" style="fill:none;stroke:#ff6600;stroke-linecap:square;stroke-width:0.85;"/>
    <defs>
     <path d="M 0 3.25 
C 0.86191 3.25 1.688635 2.907559 2.298097 2.298097 
C 2.907559 1.688635 3.25 0.86191 3.25 0 
C 3.25 -0.86191 2.907559 -1.688635 2.298097 -2.298097 
C 1.688635 -2.907559 0.86191 -3.25 0 -3.25 
C -0.86191 -3.25 -1.688635 -2.907559 -2.298097 -2.298097 
C -2.907559 -1.688635 -3.25 -0.86191 -3.25 0 
C -3.25 0.86191 -2.907559 1.688635 -2.298097 2.298097 
C -1.688635 2.907559 -0.86191 3.25 0 3.25 
z
" id="mb6d1db4b39"/>
    </defs>
    <g clip-path="url(#p74806f6788)">
     <use style="fill:#ff6600;" x="44.225" xlink:href="#mb6d1db4b39" y="66.552322"/>
     <use style="fill:#ff6600;" x="56.825" xlink:href="#mb6d1db4b39" y="85.612797"/>
     <use style="fill:#ff6600;" x="69.425" xlink:href="#mb6d1db4b39" y="85.372632"/>
     <use style="fill:#ff6600;" x="82.025" xlink:href="#mb6d1db4b39" y="85.315928"/>
     <use style="fill:#ff6600;" x="94.625" xlink:href="#mb6d1db4b39" y="85.302426"/>
     <use style="fill:#ff6600;" x="107.225" xlink:href="#mb6d1db4b39" y="85.175715"/>
     <use style="fill:#ff6600;" x="119.825" xlink:href="#mb6d1db4b39" y="85.294131"/>
     <use style="fill:#ff6600;" x="145.025" xlink:href="#mb6d1db4b39" y="85.310626"/>
     <use style="fill:#ff6600;" x="170.225" xlink:href="#mb6d1db4b39" y="85.28531"/>
    </g>
   </g>
   <g id="patch_7">
    <path d="M 44.225 136.7 
L 44.225 10.7 
" style="fill:none;stroke:#000000;stroke-linecap:square;stroke-linejoin:miter;stroke-width:0.85;"/>
   </g>
   <g id="patch_8">
    <path d="M 170.225 136.7 
L 170.225 10.7 
" style="fill:none;stroke:#000000;stroke-linecap:square;stroke-linejoin:miter;stroke-width:0.85;"/>
   </g>
   <g id="patch_9">
    <path d="M 44.225 136.7 
L 170.225 136.7 
" style="fill:none;stroke:#000000;stroke-linecap:square;stroke-linejoin:miter;stroke-width:0.85;"/>
   </g>
   <g id="patch_10">
    <path d="M 44.225 10.7 
L 170.225 10.7 
" style="fill:none;stroke:#000000;stroke-linecap:square;stroke-linejoin:miter;stroke-width:0.85;"/>
   </g>
  </g>
 </g>
 <defs>
  <clipPath id="p74806f6788">
   <rect height="126" width="126" x="44.225" y="10.7"/>
  </clipPath>
 </defs>
</svg>
