<?xml version="1.0" encoding="utf-8" standalone="no"?>
<!DOCTYPE svg PUBLIC "-//W3C//DTD SVG 1.1//EN"
  "http://www.w3.org/Graphics/SVG/1.1/DTD/svg11.dtd">
<!-- Created with matplotlib (http://matplotlib.org/) -->
<svg height="180.823437pt" version="1.1" viewBox="0 0 207.582812 180.823437" width="207.582812pt" xmlns="http://www.w3.org/2000/svg" xmlns:xlink="http://www.w3.org/1999/xlink">
 <defs>
  <style type="text/css">
*{stroke-linecap:butt;stroke-linejoin:round;}
  </style>
 </defs>
 <g id="figure_1">
  <g id="patch_1">
   <path d="M 0 180.823437 
L 207.582812 180.823437 
L 207.582812 0 
L 0 0 
z
" style="fill:none;"/>
  </g>
  <g id="axes_1">
   <g id="patch_2">
    <path d="M 42.216406 144.580078 
L 168.216406 144.580078 
L 168.216406 18.580078 
L 42.216406 18.580078 
z
" style="fill:none;"/>
   </g>
   <g id="matplotlib.axis_1">
    <g id="xtick_1">
     <g id="line2d_1">
      <defs>
       <path d="M 0 0 
L 0 3.5 
" id="m827d8e8d4e" style="stroke:#000000;stroke-width:0.85;"/>
      </defs>
      <g>
       <use style="stroke:#000000;stroke-width:0.85;" x="42.216406" xlink:href="#m827d8e8d4e" y="144.580078"/>
      </g>
     </g>
     <g id="text_1">
      <text style="font-family:Helvetica;font-size:7.5px;font-style:normal;font-weight:500;text-anchor:middle;" transform="rotate(-0, 42.216406, 156.960156)" x="42.216406" y="156.960156">10</text>
     </g>
    </g>
    <g id="xtick_2">
     <g id="line2d_2">
      <g>
       <use style="stroke:#000000;stroke-width:0.85;" x="67.416406" xlink:href="#m827d8e8d4e" y="144.580078"/>
      </g>
     </g>
     <g id="text_2">
      <text style="font-family:Helvetica;font-size:7.5px;font-style:normal;font-weight:500;text-anchor:middle;" transform="rotate(-0, 67.416406, 156.960156)" x="67.416406" y="156.960156">20</text>
     </g>
    </g>
    <g id="xtick_3">
     <g id="line2d_3">
      <g>
       <use style="stroke:#000000;stroke-width:0.85;" x="92.616406" xlink:href="#m827d8e8d4e" y="144.580078"/>
      </g>
     </g>
     <g id="text_3">
      <text style="font-family:Helvetica;font-size:7.5px;font-style:normal;font-weight:500;text-anchor:middle;" transform="rotate(-0, 92.616406, 156.960156)" x="92.616406" y="156.960156">30</text>
     </g>
    </g>
    <g id="xtick_4">
     <g id="line2d_4">
      <g>
       <use style="stroke:#000000;stroke-width:0.85;" x="117.816406" xlink:href="#m827d8e8d4e" y="144.580078"/>
      </g>
     </g>
     <g id="text_4">
      <text style="font-family:Helvetica;font-size:7.5px;font-style:normal;font-weight:500;text-anchor:middle;" transform="rotate(-0, 117.816406, 156.960156)" x="117.816406" y="156.960156">40</text>
     </g>
    </g>
    <g id="xtick_5">
     <g id="line2d_5">
      <g>
       <use style="stroke:#000000;stroke-width:0.85;" x="143.016406" xlink:href="#m827d8e8d4e" y="144.580078"/>
      </g>
     </g>
     <g id="text_5">
      <text style="font-family:Helvetica;font-size:7.5px;font-style:normal;font-weight:500;text-anchor:middle;" transform="rotate(-0, 143.016406, 156.960156)" x="143.016406" y="156.960156">50</text>
     </g>
    </g>
    <g id="xtick_6">
     <g id="line2d_6">
      <g>
       <use style="stroke:#000000;stroke-width:0.85;" x="168.216406" xlink:href="#m827d8e8d4e" y="144.580078"/>
      </g>
     </g>
     <g id="text_6">
      <text style="font-family:Helvetica;font-size:7.5px;font-style:normal;font-weight:500;text-anchor:middle;" transform="rotate(-0, 168.216406, 156.960156)" x="168.216406" y="156.960156">60</text>
     </g>
    </g>
    <g id="text_7">
     <!-- $L$ ($\AA$) -->
     <g transform="translate(97.078906 172.048437)">
      <text>
       <tspan style="font-family:Arial;font-size:7.5px;font-style:italic;font-weight:italic;" x="0 8.752441" y="-0.125">LÅ</tspan>
       <tspan style="font-family:Helvetica;font-size:7.5px;font-style:regular;font-weight:regular;" x="4.171143 6.254883 13.754883" y="-0.125"> ()</tspan>
      </text>
     </g>
    </g>
   </g>
   <g id="matplotlib.axis_2">
    <g id="ytick_1">
     <g id="line2d_7">
      <defs>
       <path d="M 0 0 
L -3.5 0 
" id="me01f7ebf47" style="stroke:#000000;stroke-width:0.85;"/>
      </defs>
      <g>
       <use style="stroke:#000000;stroke-width:0.85;" x="42.216406" xlink:href="#me01f7ebf47" y="133.083337"/>
      </g>
     </g>
     <g id="text_8">
      <text style="font-family:Helvetica;font-size:7.5px;font-style:normal;font-weight:500;text-anchor:end;" transform="rotate(-0, 35.216406, 135.773376)" x="35.216406" y="135.773376">4</text>
     </g>
    </g>
    <g id="ytick_2">
     <g id="line2d_8">
      <g>
       <use style="stroke:#000000;stroke-width:0.85;" x="42.216406" xlink:href="#me01f7ebf47" y="108.699021"/>
      </g>
     </g>
     <g id="text_9">
      <text style="font-family:Helvetica;font-size:7.5px;font-style:normal;font-weight:500;text-anchor:end;" transform="rotate(-0, 35.216406, 111.38906)" x="35.216406" y="111.38906">6</text>
     </g>
    </g>
    <g id="ytick_3">
     <g id="line2d_9">
      <g>
       <use style="stroke:#000000;stroke-width:0.85;" x="42.216406" xlink:href="#me01f7ebf47" y="84.314706"/>
      </g>
     </g>
     <g id="text_10">
      <text style="font-family:Helvetica;font-size:7.5px;font-style:normal;font-weight:500;text-anchor:end;" transform="rotate(-0, 35.216406, 87.004745)" x="35.216406" y="87.004745">8</text>
     </g>
    </g>
    <g id="ytick_4">
     <g id="line2d_10">
      <g>
       <use style="stroke:#000000;stroke-width:0.85;" x="42.216406" xlink:href="#me01f7ebf47" y="59.930391"/>
      </g>
     </g>
     <g id="text_11">
      <text style="font-family:Helvetica;font-size:7.5px;font-style:normal;font-weight:500;text-anchor:end;" transform="rotate(-0, 35.216406, 62.62043)" x="35.216406" y="62.62043">10</text>
     </g>
    </g>
    <g id="ytick_5">
     <g id="line2d_11">
      <g>
       <use style="stroke:#000000;stroke-width:0.85;" x="42.216406" xlink:href="#me01f7ebf47" y="35.546075"/>
      </g>
     </g>
     <g id="text_12">
      <text style="font-family:Helvetica;font-size:7.5px;font-style:normal;font-weight:500;text-anchor:end;" transform="rotate(-0, 35.216406, 38.236114)" x="35.216406" y="38.236114">12</text>
     </g>
    </g>
    <g id="text_13">
     <!-- $\epsilon^{\parallel}_{\mathrm{SL}}$ -->
     <g transform="translate(16.05 86.642578)rotate(-90)">
      <text>
       <tspan style="font-family:Arial;font-size:7.5px;font-style:italic;font-weight:italic;" x="0" y="-0.9120312500000018">ε</tspan>
       <tspan style="font-family:STIXGeneral;font-size:5.25px;font-style:regular;font-weight:regular;" x="4.329971" y="-6.1390625">∥</tspan>
       <tspan style="font-family:Arial;font-size:5.25px;font-style:regular;font-weight:regular;" x="3.295898 6.797607" y="2.821562499999999">SL</tspan>
      </text>
     </g>
    </g>
   </g>
   <g id="line2d_12">
    <path clip-path="url(#p1973215e36)" d="M 42.216406 18.580078 
L 54.816406 69.341029 
L 67.416406 94.419993 
L 80.016406 109.469505 
L 92.616406 119.497908 
L 105.216406 126.667372 
L 117.816406 132.038042 
L 143.016406 139.564944 
L 168.216406 144.580078 
" style="fill:none;stroke:#00aad4;stroke-linecap:square;stroke-width:0.85;"/>
    <defs>
     <path d="M 0 3.25 
C 0.86191 3.25 1.688635 2.907559 2.298097 2.298097 
C 2.907559 1.688635 3.25 0.86191 3.25 0 
C 3.25 -0.86191 2.907559 -1.688635 2.298097 -2.298097 
C 1.688635 -2.907559 0.86191 -3.25 0 -3.25 
C -0.86191 -3.25 -1.688635 -2.907559 -2.298097 -2.298097 
C -2.907559 -1.688635 -3.25 -0.86191 -3.25 0 
C -3.25 0.86191 -2.907559 1.688635 -2.298097 2.298097 
C -1.688635 2.907559 -0.86191 3.25 0 3.25 
z
" id="m864087218b"/>
    </defs>
    <g clip-path="url(#p1973215e36)">
     <use style="fill:#00aad4;" x="42.216406" xlink:href="#m864087218b" y="18.580078"/>
     <use style="fill:#00aad4;" x="54.816406" xlink:href="#m864087218b" y="69.341029"/>
     <use style="fill:#00aad4;" x="67.416406" xlink:href="#m864087218b" y="94.419993"/>
     <use style="fill:#00aad4;" x="80.016406" xlink:href="#m864087218b" y="109.469505"/>
     <use style="fill:#00aad4;" x="92.616406" xlink:href="#m864087218b" y="119.497908"/>
     <use style="fill:#00aad4;" x="105.216406" xlink:href="#m864087218b" y="126.667372"/>
     <use style="fill:#00aad4;" x="117.816406" xlink:href="#m864087218b" y="132.038042"/>
     <use style="fill:#00aad4;" x="143.016406" xlink:href="#m864087218b" y="139.564944"/>
     <use style="fill:#00aad4;" x="168.216406" xlink:href="#m864087218b" y="144.580078"/>
    </g>
   </g>
   <g id="patch_3">
    <path d="M 42.216406 144.580078 
L 42.216406 18.580078 
" style="fill:none;stroke:#000000;stroke-linecap:square;stroke-linejoin:miter;stroke-width:0.85;"/>
   </g>
   <g id="patch_4">
    <path d="M 168.216406 144.580078 
L 168.216406 18.580078 
" style="fill:none;stroke:#000000;stroke-linecap:square;stroke-linejoin:miter;stroke-width:0.85;"/>
   </g>
   <g id="patch_5">
    <path d="M 42.216406 144.580078 
L 168.216406 144.580078 
" style="fill:none;stroke:#000000;stroke-linecap:square;stroke-linejoin:miter;stroke-width:0.85;"/>
   </g>
   <g id="patch_6">
    <path d="M 42.216406 18.580078 
L 168.216406 18.580078 
" style="fill:none;stroke:#000000;stroke-linecap:square;stroke-linejoin:miter;stroke-width:0.85;"/>
   </g>
   <g id="text_14">
    <text style="font-family:Helvetica;font-size:7.5px;font-style:normal;font-weight:normal;text-anchor:middle;" transform="rotate(-0, 105.216406, 12.580078)" x="105.216406" y="12.580078">wte2 parallel</text>
   </g>
  </g>
  <g id="axes_2">
   <g id="matplotlib.axis_3">
    <g id="ytick_6">
     <g id="line2d_13">
      <defs>
       <path d="M 0 0 
L 3.5 0 
" id="mb2ce5bdb90" style="stroke:#000000;stroke-width:0.85;"/>
      </defs>
      <g>
       <use style="stroke:#000000;stroke-width:0.85;" x="168.216406" xlink:href="#mb2ce5bdb90" y="128.474476"/>
      </g>
     </g>
     <g id="text_15">
      <text style="font-family:Helvetica;font-size:7.5px;font-style:normal;font-weight:500;text-anchor:start;" transform="rotate(-0, 175.216406, 131.164515)" x="175.216406" y="131.164515">8</text>
     </g>
    </g>
    <g id="ytick_7">
     <g id="line2d_14">
      <g>
       <use style="stroke:#000000;stroke-width:0.85;" x="168.216406" xlink:href="#mb2ce5bdb90" y="103.071844"/>
      </g>
     </g>
     <g id="text_16">
      <text style="font-family:Helvetica;font-size:7.5px;font-style:normal;font-weight:500;text-anchor:start;" transform="rotate(-0, 175.216406, 105.761883)" x="175.216406" y="105.761883">9</text>
     </g>
    </g>
    <g id="ytick_8">
     <g id="line2d_15">
      <g>
       <use style="stroke:#000000;stroke-width:0.85;" x="168.216406" xlink:href="#mb2ce5bdb90" y="77.669211"/>
      </g>
     </g>
     <g id="text_17">
      <text style="font-family:Helvetica;font-size:7.5px;font-style:normal;font-weight:500;text-anchor:start;" transform="rotate(-0, 175.216406, 80.35925)" x="175.216406" y="80.35925">10</text>
     </g>
    </g>
    <g id="ytick_9">
     <g id="line2d_16">
      <g>
       <use style="stroke:#000000;stroke-width:0.85;" x="168.216406" xlink:href="#mb2ce5bdb90" y="52.266578"/>
      </g>
     </g>
     <g id="text_18">
      <text style="font-family:Helvetica;font-size:7.5px;font-style:normal;font-weight:500;text-anchor:start;" transform="rotate(-0, 175.216406, 54.956617)" x="175.216406" y="54.956617">11</text>
     </g>
    </g>
    <g id="ytick_10">
     <g id="line2d_17">
      <g>
       <use style="stroke:#000000;stroke-width:0.85;" x="168.216406" xlink:href="#mb2ce5bdb90" y="26.863946"/>
      </g>
     </g>
     <g id="text_19">
      <text style="font-family:Helvetica;font-size:7.5px;font-style:normal;font-weight:500;text-anchor:start;" transform="rotate(-0, 175.216406, 29.553985)" x="175.216406" y="29.553985">12</text>
     </g>
    </g>
    <g id="text_20">
     <!-- $\alpha_{\parallel}/(4\pi\varepsilon_0) (\AA)$ -->
     <g transform="translate(197.082812 102.617578)rotate(-90)">
      <text>
       <tspan style="font-family:Arial;font-size:7.5px;font-style:italic;font-weight:italic;" x="0 17.898201 22.922615 34.50679" y="-0.125">απεÅ</tspan>
       <tspan style="font-family:STIXGeneral;font-size:5.25px;font-style:regular;font-weight:regular;" x="5.152002" y="2.11515625">∥</tspan>
       <tspan style="font-family:Arial;font-size:7.5px;font-style:regular;font-weight:regular;" x="9.145759 11.2295 13.727058 29.511672 32.009231 39.509231" y="-0.125">/(4)()</tspan>
       <tspan style="font-family:Arial;font-size:5.25px;font-style:regular;font-weight:regular;" x="26.218513" y="2.11515625">0</tspan>
      </text>
     </g>
    </g>
   </g>
   <g id="line2d_18">
    <path clip-path="url(#p1973215e36)" d="M 42.216406 81.20317 
L 54.816406 82.200567 
L 67.416406 82.198141 
L 80.016406 82.204559 
L 92.616406 82.188074 
L 105.216406 82.208259 
L 117.816406 82.18581 
L 143.016406 82.206934 
L 168.216406 82.200203 
" style="fill:none;stroke:#ff6600;stroke-linecap:square;stroke-width:0.85;"/>
    <defs>
     <path d="M 0 3.25 
C 0.86191 3.25 1.688635 2.907559 2.298097 2.298097 
C 2.907559 1.688635 3.25 0.86191 3.25 0 
C 3.25 -0.86191 2.907559 -1.688635 2.298097 -2.298097 
C 1.688635 -2.907559 0.86191 -3.25 0 -3.25 
C -0.86191 -3.25 -1.688635 -2.907559 -2.298097 -2.298097 
C -2.907559 -1.688635 -3.25 -0.86191 -3.25 0 
C -3.25 0.86191 -2.907559 1.688635 -2.298097 2.298097 
C -1.688635 2.907559 -0.86191 3.25 0 3.25 
z
" id="m8329155f27"/>
    </defs>
    <g clip-path="url(#p1973215e36)">
     <use style="fill:#ff6600;" x="42.216406" xlink:href="#m8329155f27" y="81.20317"/>
     <use style="fill:#ff6600;" x="54.816406" xlink:href="#m8329155f27" y="82.200567"/>
     <use style="fill:#ff6600;" x="67.416406" xlink:href="#m8329155f27" y="82.198141"/>
     <use style="fill:#ff6600;" x="80.016406" xlink:href="#m8329155f27" y="82.204559"/>
     <use style="fill:#ff6600;" x="92.616406" xlink:href="#m8329155f27" y="82.188074"/>
     <use style="fill:#ff6600;" x="105.216406" xlink:href="#m8329155f27" y="82.208259"/>
     <use style="fill:#ff6600;" x="117.816406" xlink:href="#m8329155f27" y="82.18581"/>
     <use style="fill:#ff6600;" x="143.016406" xlink:href="#m8329155f27" y="82.206934"/>
     <use style="fill:#ff6600;" x="168.216406" xlink:href="#m8329155f27" y="82.200203"/>
    </g>
   </g>
   <g id="patch_7">
    <path d="M 42.216406 144.580078 
L 42.216406 18.580078 
" style="fill:none;stroke:#000000;stroke-linecap:square;stroke-linejoin:miter;stroke-width:0.85;"/>
   </g>
   <g id="patch_8">
    <path d="M 168.216406 144.580078 
L 168.216406 18.580078 
" style="fill:none;stroke:#000000;stroke-linecap:square;stroke-linejoin:miter;stroke-width:0.85;"/>
   </g>
   <g id="patch_9">
    <path d="M 42.216406 144.580078 
L 168.216406 144.580078 
" style="fill:none;stroke:#000000;stroke-linecap:square;stroke-linejoin:miter;stroke-width:0.85;"/>
   </g>
   <g id="patch_10">
    <path d="M 42.216406 18.580078 
L 168.216406 18.580078 
" style="fill:none;stroke:#000000;stroke-linecap:square;stroke-linejoin:miter;stroke-width:0.85;"/>
   </g>
  </g>
 </g>
 <defs>
  <clipPath id="p1973215e36">
   <rect height="126" width="126" x="42.216406" y="18.580078"/>
  </clipPath>
 </defs>
</svg>
