<?xml version="1.0" encoding="utf-8" standalone="no"?>
<!DOCTYPE svg PUBLIC "-//W3C//DTD SVG 1.1//EN"
  "http://www.w3.org/Graphics/SVG/1.1/DTD/svg11.dtd">
<!-- Created with matplotlib (http://matplotlib.org/) -->
<svg height="180.823437pt" version="1.1" viewBox="0 0 205.495703 180.823437" width="205.495703pt" xmlns="http://www.w3.org/2000/svg" xmlns:xlink="http://www.w3.org/1999/xlink">
 <defs>
  <style type="text/css">
*{stroke-linecap:butt;stroke-linejoin:round;}
  </style>
 </defs>
 <g id="figure_1">
  <g id="patch_1">
   <path d="M 0 180.823437 
L 205.495703 180.823437 
L 205.495703 0 
L 0 0 
z
" style="fill:none;"/>
  </g>
  <g id="axes_1">
   <g id="patch_2">
    <path d="M 38.045703 144.580078 
L 164.045703 144.580078 
L 164.045703 18.580078 
L 38.045703 18.580078 
z
" style="fill:none;"/>
   </g>
   <g id="matplotlib.axis_1">
    <g id="xtick_1">
     <g id="line2d_1">
      <defs>
       <path d="M 0 0 
L 0 3.5 
" id="m597af1e76d" style="stroke:#000000;stroke-width:0.85;"/>
      </defs>
      <g>
       <use style="stroke:#000000;stroke-width:0.85;" x="38.045703" xlink:href="#m597af1e76d" y="144.580078"/>
      </g>
     </g>
     <g id="text_1">
      <text style="font-family:Helvetica;font-size:7.5px;font-style:normal;font-weight:500;text-anchor:middle;" transform="rotate(-0, 38.045703, 156.960156)" x="38.045703" y="156.960156">10</text>
     </g>
    </g>
    <g id="xtick_2">
     <g id="line2d_2">
      <g>
       <use style="stroke:#000000;stroke-width:0.85;" x="63.245703" xlink:href="#m597af1e76d" y="144.580078"/>
      </g>
     </g>
     <g id="text_2">
      <text style="font-family:Helvetica;font-size:7.5px;font-style:normal;font-weight:500;text-anchor:middle;" transform="rotate(-0, 63.245703, 156.960156)" x="63.245703" y="156.960156">20</text>
     </g>
    </g>
    <g id="xtick_3">
     <g id="line2d_3">
      <g>
       <use style="stroke:#000000;stroke-width:0.85;" x="88.445703" xlink:href="#m597af1e76d" y="144.580078"/>
      </g>
     </g>
     <g id="text_3">
      <text style="font-family:Helvetica;font-size:7.5px;font-style:normal;font-weight:500;text-anchor:middle;" transform="rotate(-0, 88.445703, 156.960156)" x="88.445703" y="156.960156">30</text>
     </g>
    </g>
    <g id="xtick_4">
     <g id="line2d_4">
      <g>
       <use style="stroke:#000000;stroke-width:0.85;" x="113.645703" xlink:href="#m597af1e76d" y="144.580078"/>
      </g>
     </g>
     <g id="text_4">
      <text style="font-family:Helvetica;font-size:7.5px;font-style:normal;font-weight:500;text-anchor:middle;" transform="rotate(-0, 113.645703, 156.960156)" x="113.645703" y="156.960156">40</text>
     </g>
    </g>
    <g id="xtick_5">
     <g id="line2d_5">
      <g>
       <use style="stroke:#000000;stroke-width:0.85;" x="138.845703" xlink:href="#m597af1e76d" y="144.580078"/>
      </g>
     </g>
     <g id="text_5">
      <text style="font-family:Helvetica;font-size:7.5px;font-style:normal;font-weight:500;text-anchor:middle;" transform="rotate(-0, 138.845703, 156.960156)" x="138.845703" y="156.960156">50</text>
     </g>
    </g>
    <g id="xtick_6">
     <g id="line2d_6">
      <g>
       <use style="stroke:#000000;stroke-width:0.85;" x="164.045703" xlink:href="#m597af1e76d" y="144.580078"/>
      </g>
     </g>
     <g id="text_6">
      <text style="font-family:Helvetica;font-size:7.5px;font-style:normal;font-weight:500;text-anchor:middle;" transform="rotate(-0, 164.045703, 156.960156)" x="164.045703" y="156.960156">60</text>
     </g>
    </g>
    <g id="text_7">
     <!-- $L$ ($\AA$) -->
     <g transform="translate(92.908203 172.048437)">
      <text>
       <tspan style="font-family:Arial;font-size:7.5px;font-style:italic;font-weight:italic;" x="0 8.752441" y="-0.125">LÅ</tspan>
       <tspan style="font-family:Helvetica;font-size:7.5px;font-style:regular;font-weight:regular;" x="4.171143 6.254883 13.754883" y="-0.125"> ()</tspan>
      </text>
     </g>
    </g>
   </g>
   <g id="matplotlib.axis_2">
    <g id="ytick_1">
     <g id="line2d_7">
      <defs>
       <path d="M 0 0 
L -3.5 0 
" id="m3e6aabdb9a" style="stroke:#000000;stroke-width:0.85;"/>
      </defs>
      <g>
       <use style="stroke:#000000;stroke-width:0.85;" x="38.045703" xlink:href="#m3e6aabdb9a" y="131.429144"/>
      </g>
     </g>
     <g id="text_8">
      <text style="font-family:Helvetica;font-size:7.5px;font-style:normal;font-weight:500;text-anchor:end;" transform="rotate(-0, 31.045703, 134.119183)" x="31.045703" y="134.119183">3</text>
     </g>
    </g>
    <g id="ytick_2">
     <g id="line2d_8">
      <g>
       <use style="stroke:#000000;stroke-width:0.85;" x="38.045703" xlink:href="#m3e6aabdb9a" y="112.273291"/>
      </g>
     </g>
     <g id="text_9">
      <text style="font-family:Helvetica;font-size:7.5px;font-style:normal;font-weight:500;text-anchor:end;" transform="rotate(-0, 31.045703, 114.96333)" x="31.045703" y="114.96333">4</text>
     </g>
    </g>
    <g id="ytick_3">
     <g id="line2d_9">
      <g>
       <use style="stroke:#000000;stroke-width:0.85;" x="38.045703" xlink:href="#m3e6aabdb9a" y="93.117438"/>
      </g>
     </g>
     <g id="text_10">
      <text style="font-family:Helvetica;font-size:7.5px;font-style:normal;font-weight:500;text-anchor:end;" transform="rotate(-0, 31.045703, 95.807477)" x="31.045703" y="95.807477">5</text>
     </g>
    </g>
    <g id="ytick_4">
     <g id="line2d_10">
      <g>
       <use style="stroke:#000000;stroke-width:0.85;" x="38.045703" xlink:href="#m3e6aabdb9a" y="73.961585"/>
      </g>
     </g>
     <g id="text_11">
      <text style="font-family:Helvetica;font-size:7.5px;font-style:normal;font-weight:500;text-anchor:end;" transform="rotate(-0, 31.045703, 76.651624)" x="31.045703" y="76.651624">6</text>
     </g>
    </g>
    <g id="ytick_5">
     <g id="line2d_11">
      <g>
       <use style="stroke:#000000;stroke-width:0.85;" x="38.045703" xlink:href="#m3e6aabdb9a" y="54.805731"/>
      </g>
     </g>
     <g id="text_12">
      <text style="font-family:Helvetica;font-size:7.5px;font-style:normal;font-weight:500;text-anchor:end;" transform="rotate(-0, 31.045703, 57.49577)" x="31.045703" y="57.49577">7</text>
     </g>
    </g>
    <g id="ytick_6">
     <g id="line2d_12">
      <g>
       <use style="stroke:#000000;stroke-width:0.85;" x="38.045703" xlink:href="#m3e6aabdb9a" y="35.649878"/>
      </g>
     </g>
     <g id="text_13">
      <text style="font-family:Helvetica;font-size:7.5px;font-style:normal;font-weight:500;text-anchor:end;" transform="rotate(-0, 31.045703, 38.339917)" x="31.045703" y="38.339917">8</text>
     </g>
    </g>
    <g id="text_14">
     <!-- $\epsilon^{\parallel}_{\mathrm{SL}}$ -->
     <g transform="translate(16.05 86.642578)rotate(-90)">
      <text>
       <tspan style="font-family:Arial;font-size:7.5px;font-style:italic;font-weight:italic;" x="0" y="-0.9120312500000018">ε</tspan>
       <tspan style="font-family:STIXGeneral;font-size:5.25px;font-style:regular;font-weight:regular;" x="4.329971" y="-6.1390625">∥</tspan>
       <tspan style="font-family:Arial;font-size:5.25px;font-style:regular;font-weight:regular;" x="3.295898 6.797607" y="2.821562499999999">SL</tspan>
      </text>
     </g>
    </g>
   </g>
   <g id="line2d_13">
    <path clip-path="url(#p7c314e8cb7)" d="M 38.045703 18.580078 
L 50.645703 69.096745 
L 63.245703 94.258456 
L 75.845703 109.355012 
L 88.445703 119.419133 
L 101.045703 126.608076 
L 113.645703 131.999701 
L 138.845703 139.547721 
L 164.045703 144.580078 
" style="fill:none;stroke:#00aad4;stroke-linecap:square;stroke-width:0.85;"/>
    <defs>
     <path d="M 0 3.25 
C 0.86191 3.25 1.688635 2.907559 2.298097 2.298097 
C 2.907559 1.688635 3.25 0.86191 3.25 0 
C 3.25 -0.86191 2.907559 -1.688635 2.298097 -2.298097 
C 1.688635 -2.907559 0.86191 -3.25 0 -3.25 
C -0.86191 -3.25 -1.688635 -2.907559 -2.298097 -2.298097 
C -2.907559 -1.688635 -3.25 -0.86191 -3.25 0 
C -3.25 0.86191 -2.907559 1.688635 -2.298097 2.298097 
C -1.688635 2.907559 -0.86191 3.25 0 3.25 
z
" id="m7c2ddaf085"/>
    </defs>
    <g clip-path="url(#p7c314e8cb7)">
     <use style="fill:#00aad4;" x="38.045703" xlink:href="#m7c2ddaf085" y="18.580078"/>
     <use style="fill:#00aad4;" x="50.645703" xlink:href="#m7c2ddaf085" y="69.096745"/>
     <use style="fill:#00aad4;" x="63.245703" xlink:href="#m7c2ddaf085" y="94.258456"/>
     <use style="fill:#00aad4;" x="75.845703" xlink:href="#m7c2ddaf085" y="109.355012"/>
     <use style="fill:#00aad4;" x="88.445703" xlink:href="#m7c2ddaf085" y="119.419133"/>
     <use style="fill:#00aad4;" x="101.045703" xlink:href="#m7c2ddaf085" y="126.608076"/>
     <use style="fill:#00aad4;" x="113.645703" xlink:href="#m7c2ddaf085" y="131.999701"/>
     <use style="fill:#00aad4;" x="138.845703" xlink:href="#m7c2ddaf085" y="139.547721"/>
     <use style="fill:#00aad4;" x="164.045703" xlink:href="#m7c2ddaf085" y="144.580078"/>
    </g>
   </g>
   <g id="patch_3">
    <path d="M 38.045703 144.580078 
L 38.045703 18.580078 
" style="fill:none;stroke:#000000;stroke-linecap:square;stroke-linejoin:miter;stroke-width:0.85;"/>
   </g>
   <g id="patch_4">
    <path d="M 164.045703 144.580078 
L 164.045703 18.580078 
" style="fill:none;stroke:#000000;stroke-linecap:square;stroke-linejoin:miter;stroke-width:0.85;"/>
   </g>
   <g id="patch_5">
    <path d="M 38.045703 144.580078 
L 164.045703 144.580078 
" style="fill:none;stroke:#000000;stroke-linecap:square;stroke-linejoin:miter;stroke-width:0.85;"/>
   </g>
   <g id="patch_6">
    <path d="M 38.045703 18.580078 
L 164.045703 18.580078 
" style="fill:none;stroke:#000000;stroke-linecap:square;stroke-linejoin:miter;stroke-width:0.85;"/>
   </g>
   <g id="text_15">
    <text style="font-family:Helvetica;font-size:7.5px;font-style:normal;font-weight:normal;text-anchor:middle;" transform="rotate(-0, 101.045703, 12.580078)" x="101.045703" y="12.580078">ws2 parallel</text>
   </g>
  </g>
  <g id="axes_2">
   <g id="matplotlib.axis_3">
    <g id="ytick_7">
     <g id="line2d_14">
      <defs>
       <path d="M 0 0 
L 3.5 0 
" id="m1673cac7a3" style="stroke:#000000;stroke-width:0.85;"/>
      </defs>
      <g>
       <use style="stroke:#000000;stroke-width:0.85;" x="164.045703" xlink:href="#m1673cac7a3" y="132.706227"/>
      </g>
     </g>
     <g id="text_16">
      <text style="font-family:Helvetica;font-size:7.5px;font-style:normal;font-weight:500;text-anchor:start;" transform="rotate(-0, 171.045703, 135.396266)" x="171.045703" y="135.396266">5.0</text>
     </g>
    </g>
    <g id="ytick_8">
     <g id="line2d_15">
      <g>
       <use style="stroke:#000000;stroke-width:0.85;" x="164.045703" xlink:href="#m1673cac7a3" y="112.680044"/>
      </g>
     </g>
     <g id="text_17">
      <text style="font-family:Helvetica;font-size:7.5px;font-style:normal;font-weight:500;text-anchor:start;" transform="rotate(-0, 171.045703, 115.370083)" x="171.045703" y="115.370083">5.5</text>
     </g>
    </g>
    <g id="ytick_9">
     <g id="line2d_16">
      <g>
       <use style="stroke:#000000;stroke-width:0.85;" x="164.045703" xlink:href="#m1673cac7a3" y="92.65386"/>
      </g>
     </g>
     <g id="text_18">
      <text style="font-family:Helvetica;font-size:7.5px;font-style:normal;font-weight:500;text-anchor:start;" transform="rotate(-0, 171.045703, 95.343899)" x="171.045703" y="95.343899">6.0</text>
     </g>
    </g>
    <g id="ytick_10">
     <g id="line2d_17">
      <g>
       <use style="stroke:#000000;stroke-width:0.85;" x="164.045703" xlink:href="#m1673cac7a3" y="72.627676"/>
      </g>
     </g>
     <g id="text_19">
      <text style="font-family:Helvetica;font-size:7.5px;font-style:normal;font-weight:500;text-anchor:start;" transform="rotate(-0, 171.045703, 75.317715)" x="171.045703" y="75.317715">6.5</text>
     </g>
    </g>
    <g id="ytick_11">
     <g id="line2d_18">
      <g>
       <use style="stroke:#000000;stroke-width:0.85;" x="164.045703" xlink:href="#m1673cac7a3" y="52.601493"/>
      </g>
     </g>
     <g id="text_20">
      <text style="font-family:Helvetica;font-size:7.5px;font-style:normal;font-weight:500;text-anchor:start;" transform="rotate(-0, 171.045703, 55.291532)" x="171.045703" y="55.291532">7.0</text>
     </g>
    </g>
    <g id="ytick_12">
     <g id="line2d_19">
      <g>
       <use style="stroke:#000000;stroke-width:0.85;" x="164.045703" xlink:href="#m1673cac7a3" y="32.575309"/>
      </g>
     </g>
     <g id="text_21">
      <text style="font-family:Helvetica;font-size:7.5px;font-style:normal;font-weight:500;text-anchor:start;" transform="rotate(-0, 171.045703, 35.265348)" x="171.045703" y="35.265348">7.5</text>
     </g>
    </g>
    <g id="text_22">
     <!-- $\alpha_{\parallel}/(4\pi\varepsilon_0) (\AA)$ -->
     <g transform="translate(194.995703 102.617578)rotate(-90)">
      <text>
       <tspan style="font-family:Arial;font-size:7.5px;font-style:italic;font-weight:italic;" x="0 17.898201 22.922615 34.50679" y="-0.125">απεÅ</tspan>
       <tspan style="font-family:STIXGeneral;font-size:5.25px;font-style:regular;font-weight:regular;" x="5.152002" y="2.11515625">∥</tspan>
       <tspan style="font-family:Arial;font-size:7.5px;font-style:regular;font-weight:regular;" x="9.145759 11.2295 13.727058 29.511672 32.009231 39.509231" y="-0.125">/(4)()</tspan>
       <tspan style="font-family:Arial;font-size:5.25px;font-style:regular;font-weight:regular;" x="26.218513" y="2.11515625">0</tspan>
      </text>
     </g>
    </g>
   </g>
   <g id="line2d_20">
    <path clip-path="url(#p7c314e8cb7)" d="M 38.045703 81.457675 
L 50.645703 81.781485 
L 63.245703 81.783764 
L 75.845703 81.784083 
L 88.445703 81.783159 
L 101.045703 81.783892 
L 113.645703 81.784083 
L 138.845703 81.78233 
L 164.045703 81.784019 
" style="fill:none;stroke:#ff6600;stroke-linecap:square;stroke-width:0.85;"/>
    <defs>
     <path d="M 0 3.25 
C 0.86191 3.25 1.688635 2.907559 2.298097 2.298097 
C 2.907559 1.688635 3.25 0.86191 3.25 0 
C 3.25 -0.86191 2.907559 -1.688635 2.298097 -2.298097 
C 1.688635 -2.907559 0.86191 -3.25 0 -3.25 
C -0.86191 -3.25 -1.688635 -2.907559 -2.298097 -2.298097 
C -2.907559 -1.688635 -3.25 -0.86191 -3.25 0 
C -3.25 0.86191 -2.907559 1.688635 -2.298097 2.298097 
C -1.688635 2.907559 -0.86191 3.25 0 3.25 
z
" id="m0cef33422c"/>
    </defs>
    <g clip-path="url(#p7c314e8cb7)">
     <use style="fill:#ff6600;" x="38.045703" xlink:href="#m0cef33422c" y="81.457675"/>
     <use style="fill:#ff6600;" x="50.645703" xlink:href="#m0cef33422c" y="81.781485"/>
     <use style="fill:#ff6600;" x="63.245703" xlink:href="#m0cef33422c" y="81.783764"/>
     <use style="fill:#ff6600;" x="75.845703" xlink:href="#m0cef33422c" y="81.784083"/>
     <use style="fill:#ff6600;" x="88.445703" xlink:href="#m0cef33422c" y="81.783159"/>
     <use style="fill:#ff6600;" x="101.045703" xlink:href="#m0cef33422c" y="81.783892"/>
     <use style="fill:#ff6600;" x="113.645703" xlink:href="#m0cef33422c" y="81.784083"/>
     <use style="fill:#ff6600;" x="138.845703" xlink:href="#m0cef33422c" y="81.78233"/>
     <use style="fill:#ff6600;" x="164.045703" xlink:href="#m0cef33422c" y="81.784019"/>
    </g>
   </g>
   <g id="patch_7">
    <path d="M 38.045703 144.580078 
L 38.045703 18.580078 
" style="fill:none;stroke:#000000;stroke-linecap:square;stroke-linejoin:miter;stroke-width:0.85;"/>
   </g>
   <g id="patch_8">
    <path d="M 164.045703 144.580078 
L 164.045703 18.580078 
" style="fill:none;stroke:#000000;stroke-linecap:square;stroke-linejoin:miter;stroke-width:0.85;"/>
   </g>
   <g id="patch_9">
    <path d="M 38.045703 144.580078 
L 164.045703 144.580078 
" style="fill:none;stroke:#000000;stroke-linecap:square;stroke-linejoin:miter;stroke-width:0.85;"/>
   </g>
   <g id="patch_10">
    <path d="M 38.045703 18.580078 
L 164.045703 18.580078 
" style="fill:none;stroke:#000000;stroke-linecap:square;stroke-linejoin:miter;stroke-width:0.85;"/>
   </g>
  </g>
 </g>
 <defs>
  <clipPath id="p7c314e8cb7">
   <rect height="126" width="126" x="38.045703" y="18.580078"/>
  </clipPath>
 </defs>
</svg>
