<?xml version="1.0" encoding="utf-8" standalone="no"?>
<!DOCTYPE svg PUBLIC "-//W3C//DTD SVG 1.1//EN"
  "http://www.w3.org/Graphics/SVG/1.1/DTD/svg11.dtd">
<!-- Created with matplotlib (http://matplotlib.org/) -->
<svg height="172.943359pt" version="1.1" viewBox="0 0 214.870703 172.943359" width="214.870703pt" xmlns="http://www.w3.org/2000/svg" xmlns:xlink="http://www.w3.org/1999/xlink">
 <defs>
  <style type="text/css">
*{stroke-linecap:butt;stroke-linejoin:round;}
  </style>
 </defs>
 <g id="figure_1">
  <g id="patch_1">
   <path d="M 0 172.943359 
L 214.870703 172.943359 
L 214.870703 0 
L 0 0 
z
" style="fill:none;"/>
  </g>
  <g id="axes_1">
   <g id="patch_2">
    <path d="M 44.225 136.7 
L 170.225 136.7 
L 170.225 10.7 
L 44.225 10.7 
z
" style="fill:none;"/>
   </g>
   <g id="matplotlib.axis_1">
    <g id="xtick_1">
     <g id="line2d_1">
      <defs>
       <path d="M 0 0 
L 0 3.5 
" id="mf93d65dcd7" style="stroke:#000000;stroke-width:0.85;"/>
      </defs>
      <g>
       <use style="stroke:#000000;stroke-width:0.85;" x="44.225" xlink:href="#mf93d65dcd7" y="136.7"/>
      </g>
     </g>
     <g id="text_1">
      <text style="font-family:Helvetica;font-size:7.5px;font-style:normal;font-weight:500;text-anchor:middle;" transform="rotate(-0, 44.225, 149.080078)" x="44.225" y="149.080078">10</text>
     </g>
    </g>
    <g id="xtick_2">
     <g id="line2d_2">
      <g>
       <use style="stroke:#000000;stroke-width:0.85;" x="69.425" xlink:href="#mf93d65dcd7" y="136.7"/>
      </g>
     </g>
     <g id="text_2">
      <text style="font-family:Helvetica;font-size:7.5px;font-style:normal;font-weight:500;text-anchor:middle;" transform="rotate(-0, 69.425, 149.080078)" x="69.425" y="149.080078">20</text>
     </g>
    </g>
    <g id="xtick_3">
     <g id="line2d_3">
      <g>
       <use style="stroke:#000000;stroke-width:0.85;" x="94.625" xlink:href="#mf93d65dcd7" y="136.7"/>
      </g>
     </g>
     <g id="text_3">
      <text style="font-family:Helvetica;font-size:7.5px;font-style:normal;font-weight:500;text-anchor:middle;" transform="rotate(-0, 94.625, 149.080078)" x="94.625" y="149.080078">30</text>
     </g>
    </g>
    <g id="xtick_4">
     <g id="line2d_4">
      <g>
       <use style="stroke:#000000;stroke-width:0.85;" x="119.825" xlink:href="#mf93d65dcd7" y="136.7"/>
      </g>
     </g>
     <g id="text_4">
      <text style="font-family:Helvetica;font-size:7.5px;font-style:normal;font-weight:500;text-anchor:middle;" transform="rotate(-0, 119.825, 149.080078)" x="119.825" y="149.080078">40</text>
     </g>
    </g>
    <g id="xtick_5">
     <g id="line2d_5">
      <g>
       <use style="stroke:#000000;stroke-width:0.85;" x="145.025" xlink:href="#mf93d65dcd7" y="136.7"/>
      </g>
     </g>
     <g id="text_5">
      <text style="font-family:Helvetica;font-size:7.5px;font-style:normal;font-weight:500;text-anchor:middle;" transform="rotate(-0, 145.025, 149.080078)" x="145.025" y="149.080078">50</text>
     </g>
    </g>
    <g id="xtick_6">
     <g id="line2d_6">
      <g>
       <use style="stroke:#000000;stroke-width:0.85;" x="170.225" xlink:href="#mf93d65dcd7" y="136.7"/>
      </g>
     </g>
     <g id="text_6">
      <text style="font-family:Helvetica;font-size:7.5px;font-style:normal;font-weight:500;text-anchor:middle;" transform="rotate(-0, 170.225, 149.080078)" x="170.225" y="149.080078">60</text>
     </g>
    </g>
    <g id="text_7">
     <!-- $L$ ($\AA$) -->
     <g transform="translate(99.0875 164.168359)">
      <text>
       <tspan style="font-family:Arial;font-size:7.5px;font-style:italic;font-weight:italic;" x="0 8.752441" y="-0.125">LÅ</tspan>
       <tspan style="font-family:Helvetica;font-size:7.5px;font-style:regular;font-weight:regular;" x="4.171143 6.254883 13.754883" y="-0.125"> ()</tspan>
      </text>
     </g>
    </g>
   </g>
   <g id="matplotlib.axis_2">
    <g id="ytick_1">
     <g id="line2d_7">
      <defs>
       <path d="M 0 0 
L -3.5 0 
" id="m8bdb44a3f1" style="stroke:#000000;stroke-width:0.85;"/>
      </defs>
      <g>
       <use style="stroke:#000000;stroke-width:0.85;" x="44.225" xlink:href="#m8bdb44a3f1" y="123.221968"/>
      </g>
     </g>
     <g id="text_8">
      <text style="font-family:Helvetica;font-size:7.5px;font-style:normal;font-weight:500;text-anchor:end;" transform="rotate(-0, 37.225, 125.912007)" x="37.225" y="125.912007">1.2</text>
     </g>
    </g>
    <g id="ytick_2">
     <g id="line2d_8">
      <g>
       <use style="stroke:#000000;stroke-width:0.85;" x="44.225" xlink:href="#m8bdb44a3f1" y="98.090451"/>
      </g>
     </g>
     <g id="text_9">
      <text style="font-family:Helvetica;font-size:7.5px;font-style:normal;font-weight:500;text-anchor:end;" transform="rotate(-0, 37.225, 100.78049)" x="37.225" y="100.78049">1.4</text>
     </g>
    </g>
    <g id="ytick_3">
     <g id="line2d_9">
      <g>
       <use style="stroke:#000000;stroke-width:0.85;" x="44.225" xlink:href="#m8bdb44a3f1" y="72.958934"/>
      </g>
     </g>
     <g id="text_10">
      <text style="font-family:Helvetica;font-size:7.5px;font-style:normal;font-weight:500;text-anchor:end;" transform="rotate(-0, 37.225, 75.648973)" x="37.225" y="75.648973">1.6</text>
     </g>
    </g>
    <g id="ytick_4">
     <g id="line2d_10">
      <g>
       <use style="stroke:#000000;stroke-width:0.85;" x="44.225" xlink:href="#m8bdb44a3f1" y="47.827418"/>
      </g>
     </g>
     <g id="text_11">
      <text style="font-family:Helvetica;font-size:7.5px;font-style:normal;font-weight:500;text-anchor:end;" transform="rotate(-0, 37.225, 50.517457)" x="37.225" y="50.517457">1.8</text>
     </g>
    </g>
    <g id="ytick_5">
     <g id="line2d_11">
      <g>
       <use style="stroke:#000000;stroke-width:0.85;" x="44.225" xlink:href="#m8bdb44a3f1" y="22.695901"/>
      </g>
     </g>
     <g id="text_12">
      <text style="font-family:Helvetica;font-size:7.5px;font-style:normal;font-weight:500;text-anchor:end;" transform="rotate(-0, 37.225, 25.38594)" x="37.225" y="25.38594">2.0</text>
     </g>
    </g>
    <g id="text_13">
     <!-- $\epsilon^{\perp}_{\mathrm{SL}}$ -->
     <g transform="translate(15.975 78.7625)rotate(-90)">
      <text>
       <tspan style="font-family:Arial;font-size:7.5px;font-style:italic;font-weight:italic;" x="0" y="-0.06515625000000114">ε</tspan>
       <tspan style="font-family:STIXGeneral;font-size:5.25px;font-style:regular;font-weight:regular;" x="4.329971" y="-5.292187500000001">⟂</tspan>
       <tspan style="font-family:Arial;font-size:5.25px;font-style:regular;font-weight:regular;" x="3.295898 6.797607" y="3.6684374999999996">SL</tspan>
      </text>
     </g>
    </g>
   </g>
   <g id="line2d_12">
    <path clip-path="url(#p4222b9b566)" d="M 44.225 10.7 
L 56.825 83.856463 
L 69.425 105.441043 
L 82.025 116.213542 
L 94.625 122.664425 
L 107.225 126.95915 
L 119.825 130.023436 
L 145.025 134.10492 
L 170.225 136.7 
" style="fill:none;stroke:#00aad4;stroke-linecap:square;stroke-width:0.85;"/>
    <defs>
     <path d="M 0 3.25 
C 0.86191 3.25 1.688635 2.907559 2.298097 2.298097 
C 2.907559 1.688635 3.25 0.86191 3.25 0 
C 3.25 -0.86191 2.907559 -1.688635 2.298097 -2.298097 
C 1.688635 -2.907559 0.86191 -3.25 0 -3.25 
C -0.86191 -3.25 -1.688635 -2.907559 -2.298097 -2.298097 
C -2.907559 -1.688635 -3.25 -0.86191 -3.25 0 
C -3.25 0.86191 -2.907559 1.688635 -2.298097 2.298097 
C -1.688635 2.907559 -0.86191 3.25 0 3.25 
z
" id="m4aa753cbcd"/>
    </defs>
    <g clip-path="url(#p4222b9b566)">
     <use style="fill:#00aad4;" x="44.225" xlink:href="#m4aa753cbcd" y="10.7"/>
     <use style="fill:#00aad4;" x="56.825" xlink:href="#m4aa753cbcd" y="83.856463"/>
     <use style="fill:#00aad4;" x="69.425" xlink:href="#m4aa753cbcd" y="105.441043"/>
     <use style="fill:#00aad4;" x="82.025" xlink:href="#m4aa753cbcd" y="116.213542"/>
     <use style="fill:#00aad4;" x="94.625" xlink:href="#m4aa753cbcd" y="122.664425"/>
     <use style="fill:#00aad4;" x="107.225" xlink:href="#m4aa753cbcd" y="126.95915"/>
     <use style="fill:#00aad4;" x="119.825" xlink:href="#m4aa753cbcd" y="130.023436"/>
     <use style="fill:#00aad4;" x="145.025" xlink:href="#m4aa753cbcd" y="134.10492"/>
     <use style="fill:#00aad4;" x="170.225" xlink:href="#m4aa753cbcd" y="136.7"/>
    </g>
   </g>
   <g id="patch_3">
    <path d="M 44.225 136.7 
L 44.225 10.7 
" style="fill:none;stroke:#000000;stroke-linecap:square;stroke-linejoin:miter;stroke-width:0.85;"/>
   </g>
   <g id="patch_4">
    <path d="M 170.225 136.7 
L 170.225 10.7 
" style="fill:none;stroke:#000000;stroke-linecap:square;stroke-linejoin:miter;stroke-width:0.85;"/>
   </g>
   <g id="patch_5">
    <path d="M 44.225 136.7 
L 170.225 136.7 
" style="fill:none;stroke:#000000;stroke-linecap:square;stroke-linejoin:miter;stroke-width:0.85;"/>
   </g>
   <g id="patch_6">
    <path d="M 44.225 10.7 
L 170.225 10.7 
" style="fill:none;stroke:#000000;stroke-linecap:square;stroke-linejoin:miter;stroke-width:0.85;"/>
   </g>
  </g>
  <g id="axes_2">
   <g id="matplotlib.axis_3">
    <g id="ytick_6">
     <g id="line2d_13">
      <defs>
       <path d="M 0 0 
L 3.5 0 
" id="ma60292c7bb" style="stroke:#000000;stroke-width:0.85;"/>
      </defs>
      <g>
       <use style="stroke:#000000;stroke-width:0.85;" x="170.225" xlink:href="#ma60292c7bb" y="109.709165"/>
      </g>
     </g>
     <g id="text_14">
      <text style="font-family:Helvetica;font-size:7.5px;font-style:normal;font-weight:500;text-anchor:start;" transform="rotate(-0, 177.225, 112.399204)" x="177.225" y="112.399204">0.35</text>
     </g>
    </g>
    <g id="ytick_7">
     <g id="line2d_14">
      <g>
       <use style="stroke:#000000;stroke-width:0.85;" x="170.225" xlink:href="#ma60292c7bb" y="80.591878"/>
      </g>
     </g>
     <g id="text_15">
      <text style="font-family:Helvetica;font-size:7.5px;font-style:normal;font-weight:500;text-anchor:start;" transform="rotate(-0, 177.225, 83.281917)" x="177.225" y="83.281917">0.40</text>
     </g>
    </g>
    <g id="ytick_8">
     <g id="line2d_15">
      <g>
       <use style="stroke:#000000;stroke-width:0.85;" x="170.225" xlink:href="#ma60292c7bb" y="51.474591"/>
      </g>
     </g>
     <g id="text_16">
      <text style="font-family:Helvetica;font-size:7.5px;font-style:normal;font-weight:500;text-anchor:start;" transform="rotate(-0, 177.225, 54.164631)" x="177.225" y="54.164631">0.45</text>
     </g>
    </g>
    <g id="ytick_9">
     <g id="line2d_16">
      <g>
       <use style="stroke:#000000;stroke-width:0.85;" x="170.225" xlink:href="#ma60292c7bb" y="22.357305"/>
      </g>
     </g>
     <g id="text_17">
      <text style="font-family:Helvetica;font-size:7.5px;font-style:normal;font-weight:500;text-anchor:start;" transform="rotate(-0, 177.225, 25.047344)" x="177.225" y="25.047344">0.50</text>
     </g>
    </g>
    <g id="text_18">
     <!-- $\alpha_{\perp}/(4\pi \varepsilon_0) (\AA)$ -->
     <g transform="translate(205.345703 95.15)rotate(-90)">
      <text>
       <tspan style="font-family:Arial;font-size:7.5px;font-style:italic;font-weight:italic;" x="0 18.790707 23.815121 35.399296" y="-0.125">απεÅ</tspan>
       <tspan style="font-family:STIXGeneral;font-size:5.25px;font-style:regular;font-weight:regular;" x="5.152002" y="2.11515625">⟂</tspan>
       <tspan style="font-family:Arial;font-size:7.5px;font-style:regular;font-weight:regular;" x="10.038266 12.122006 14.619565 30.404179 32.901737 40.401737" y="-0.125">/(4)()</tspan>
       <tspan style="font-family:Arial;font-size:5.25px;font-style:regular;font-weight:regular;" x="27.11102" y="2.11515625">0</tspan>
      </text>
     </g>
    </g>
   </g>
   <g id="line2d_17">
    <path clip-path="url(#p4222b9b566)" d="M 44.225 71.266035 
L 56.825 77.756609 
L 69.425 77.588906 
L 82.025 77.560629 
L 94.625 77.554245 
L 107.225 77.554535 
L 119.825 77.553292 
L 145.025 77.550085 
L 170.225 77.551618 
" style="fill:none;stroke:#ff6600;stroke-linecap:square;stroke-width:0.85;"/>
    <defs>
     <path d="M 0 3.25 
C 0.86191 3.25 1.688635 2.907559 2.298097 2.298097 
C 2.907559 1.688635 3.25 0.86191 3.25 0 
C 3.25 -0.86191 2.907559 -1.688635 2.298097 -2.298097 
C 1.688635 -2.907559 0.86191 -3.25 0 -3.25 
C -0.86191 -3.25 -1.688635 -2.907559 -2.298097 -2.298097 
C -2.907559 -1.688635 -3.25 -0.86191 -3.25 0 
C -3.25 0.86191 -2.907559 1.688635 -2.298097 2.298097 
C -1.688635 2.907559 -0.86191 3.25 0 3.25 
z
" id="maa00aa23a7"/>
    </defs>
    <g clip-path="url(#p4222b9b566)">
     <use style="fill:#ff6600;" x="44.225" xlink:href="#maa00aa23a7" y="71.266035"/>
     <use style="fill:#ff6600;" x="56.825" xlink:href="#maa00aa23a7" y="77.756609"/>
     <use style="fill:#ff6600;" x="69.425" xlink:href="#maa00aa23a7" y="77.588906"/>
     <use style="fill:#ff6600;" x="82.025" xlink:href="#maa00aa23a7" y="77.560629"/>
     <use style="fill:#ff6600;" x="94.625" xlink:href="#maa00aa23a7" y="77.554245"/>
     <use style="fill:#ff6600;" x="107.225" xlink:href="#maa00aa23a7" y="77.554535"/>
     <use style="fill:#ff6600;" x="119.825" xlink:href="#maa00aa23a7" y="77.553292"/>
     <use style="fill:#ff6600;" x="145.025" xlink:href="#maa00aa23a7" y="77.550085"/>
     <use style="fill:#ff6600;" x="170.225" xlink:href="#maa00aa23a7" y="77.551618"/>
    </g>
   </g>
   <g id="patch_7">
    <path d="M 44.225 136.7 
L 44.225 10.7 
" style="fill:none;stroke:#000000;stroke-linecap:square;stroke-linejoin:miter;stroke-width:0.85;"/>
   </g>
   <g id="patch_8">
    <path d="M 170.225 136.7 
L 170.225 10.7 
" style="fill:none;stroke:#000000;stroke-linecap:square;stroke-linejoin:miter;stroke-width:0.85;"/>
   </g>
   <g id="patch_9">
    <path d="M 44.225 136.7 
L 170.225 136.7 
" style="fill:none;stroke:#000000;stroke-linecap:square;stroke-linejoin:miter;stroke-width:0.85;"/>
   </g>
   <g id="patch_10">
    <path d="M 44.225 10.7 
L 170.225 10.7 
" style="fill:none;stroke:#000000;stroke-linecap:square;stroke-linejoin:miter;stroke-width:0.85;"/>
   </g>
  </g>
 </g>
 <defs>
  <clipPath id="p4222b9b566">
   <rect height="126" width="126" x="44.225" y="10.7"/>
  </clipPath>
 </defs>
</svg>
