<?xml version="1.0" encoding="utf-8" standalone="no"?>
<!DOCTYPE svg PUBLIC "-//W3C//DTD SVG 1.1//EN"
  "http://www.w3.org/Graphics/SVG/1.1/DTD/svg11.dtd">
<!-- Created with matplotlib (http://matplotlib.org/) -->
<svg height="172.943359pt" version="1.1" viewBox="0 0 214.870703 172.943359" width="214.870703pt" xmlns="http://www.w3.org/2000/svg" xmlns:xlink="http://www.w3.org/1999/xlink">
 <defs>
  <style type="text/css">
*{stroke-linecap:butt;stroke-linejoin:round;}
  </style>
 </defs>
 <g id="figure_1">
  <g id="patch_1">
   <path d="M 0 172.943359 
L 214.870703 172.943359 
L 214.870703 0 
L 0 0 
z
" style="fill:none;"/>
  </g>
  <g id="axes_1">
   <g id="patch_2">
    <path d="M 44.225 136.7 
L 170.225 136.7 
L 170.225 10.7 
L 44.225 10.7 
z
" style="fill:none;"/>
   </g>
   <g id="matplotlib.axis_1">
    <g id="xtick_1">
     <g id="line2d_1">
      <defs>
       <path d="M 0 0 
L 0 3.5 
" id="mcb9023ed00" style="stroke:#000000;stroke-width:0.85;"/>
      </defs>
      <g>
       <use style="stroke:#000000;stroke-width:0.85;" x="44.225" xlink:href="#mcb9023ed00" y="136.7"/>
      </g>
     </g>
     <g id="text_1">
      <text style="font-family:Helvetica;font-size:7.5px;font-style:normal;font-weight:500;text-anchor:middle;" transform="rotate(-0, 44.225, 149.080078)" x="44.225" y="149.080078">10</text>
     </g>
    </g>
    <g id="xtick_2">
     <g id="line2d_2">
      <g>
       <use style="stroke:#000000;stroke-width:0.85;" x="69.425" xlink:href="#mcb9023ed00" y="136.7"/>
      </g>
     </g>
     <g id="text_2">
      <text style="font-family:Helvetica;font-size:7.5px;font-style:normal;font-weight:500;text-anchor:middle;" transform="rotate(-0, 69.425, 149.080078)" x="69.425" y="149.080078">20</text>
     </g>
    </g>
    <g id="xtick_3">
     <g id="line2d_3">
      <g>
       <use style="stroke:#000000;stroke-width:0.85;" x="94.625" xlink:href="#mcb9023ed00" y="136.7"/>
      </g>
     </g>
     <g id="text_3">
      <text style="font-family:Helvetica;font-size:7.5px;font-style:normal;font-weight:500;text-anchor:middle;" transform="rotate(-0, 94.625, 149.080078)" x="94.625" y="149.080078">30</text>
     </g>
    </g>
    <g id="xtick_4">
     <g id="line2d_4">
      <g>
       <use style="stroke:#000000;stroke-width:0.85;" x="119.825" xlink:href="#mcb9023ed00" y="136.7"/>
      </g>
     </g>
     <g id="text_4">
      <text style="font-family:Helvetica;font-size:7.5px;font-style:normal;font-weight:500;text-anchor:middle;" transform="rotate(-0, 119.825, 149.080078)" x="119.825" y="149.080078">40</text>
     </g>
    </g>
    <g id="xtick_5">
     <g id="line2d_5">
      <g>
       <use style="stroke:#000000;stroke-width:0.85;" x="145.025" xlink:href="#mcb9023ed00" y="136.7"/>
      </g>
     </g>
     <g id="text_5">
      <text style="font-family:Helvetica;font-size:7.5px;font-style:normal;font-weight:500;text-anchor:middle;" transform="rotate(-0, 145.025, 149.080078)" x="145.025" y="149.080078">50</text>
     </g>
    </g>
    <g id="xtick_6">
     <g id="line2d_6">
      <g>
       <use style="stroke:#000000;stroke-width:0.85;" x="170.225" xlink:href="#mcb9023ed00" y="136.7"/>
      </g>
     </g>
     <g id="text_6">
      <text style="font-family:Helvetica;font-size:7.5px;font-style:normal;font-weight:500;text-anchor:middle;" transform="rotate(-0, 170.225, 149.080078)" x="170.225" y="149.080078">60</text>
     </g>
    </g>
    <g id="text_7">
     <!-- $L$ ($\AA$) -->
     <g transform="translate(99.0875 164.168359)">
      <text>
       <tspan style="font-family:Arial;font-size:7.5px;font-style:italic;font-weight:italic;" x="0 8.752441" y="-0.125">LÅ</tspan>
       <tspan style="font-family:Helvetica;font-size:7.5px;font-style:regular;font-weight:regular;" x="4.171143 6.254883 13.754883" y="-0.125"> ()</tspan>
      </text>
     </g>
    </g>
   </g>
   <g id="matplotlib.axis_2">
    <g id="ytick_1">
     <g id="line2d_7">
      <defs>
       <path d="M 0 0 
L -3.5 0 
" id="mb3a97dddd3" style="stroke:#000000;stroke-width:0.85;"/>
      </defs>
      <g>
       <use style="stroke:#000000;stroke-width:0.85;" x="44.225" xlink:href="#mb3a97dddd3" y="112.263025"/>
      </g>
     </g>
     <g id="text_8">
      <text style="font-family:Helvetica;font-size:7.5px;font-style:normal;font-weight:500;text-anchor:end;" transform="rotate(-0, 37.225, 114.953064)" x="37.225" y="114.953064">1.5</text>
     </g>
    </g>
    <g id="ytick_2">
     <g id="line2d_8">
      <g>
       <use style="stroke:#000000;stroke-width:0.85;" x="44.225" xlink:href="#mb3a97dddd3" y="81.52415"/>
      </g>
     </g>
     <g id="text_9">
      <text style="font-family:Helvetica;font-size:7.5px;font-style:normal;font-weight:500;text-anchor:end;" transform="rotate(-0, 37.225, 84.214189)" x="37.225" y="84.214189">2.0</text>
     </g>
    </g>
    <g id="ytick_3">
     <g id="line2d_9">
      <g>
       <use style="stroke:#000000;stroke-width:0.85;" x="44.225" xlink:href="#mb3a97dddd3" y="50.785275"/>
      </g>
     </g>
     <g id="text_10">
      <text style="font-family:Helvetica;font-size:7.5px;font-style:normal;font-weight:500;text-anchor:end;" transform="rotate(-0, 37.225, 53.475315)" x="37.225" y="53.475315">2.5</text>
     </g>
    </g>
    <g id="ytick_4">
     <g id="line2d_10">
      <g>
       <use style="stroke:#000000;stroke-width:0.85;" x="44.225" xlink:href="#mb3a97dddd3" y="20.046401"/>
      </g>
     </g>
     <g id="text_11">
      <text style="font-family:Helvetica;font-size:7.5px;font-style:normal;font-weight:500;text-anchor:end;" transform="rotate(-0, 37.225, 22.73644)" x="37.225" y="22.73644">3.0</text>
     </g>
    </g>
    <g id="text_12">
     <!-- $\epsilon^{\perp}_{\mathrm{SL}}$ -->
     <g transform="translate(15.975 78.7625)rotate(-90)">
      <text>
       <tspan style="font-family:Arial;font-size:7.5px;font-style:italic;font-weight:italic;" x="0" y="-0.06515625000000114">ε</tspan>
       <tspan style="font-family:STIXGeneral;font-size:5.25px;font-style:regular;font-weight:regular;" x="4.329971" y="-5.292187500000001">⟂</tspan>
       <tspan style="font-family:Arial;font-size:5.25px;font-style:regular;font-weight:regular;" x="3.295898 6.797607" y="3.6684374999999996">SL</tspan>
      </text>
     </g>
    </g>
   </g>
   <g id="line2d_11">
    <path clip-path="url(#pe578d7e9cb)" d="M 44.225 10.7 
L 56.825 106.66234 
L 69.425 119.224089 
L 82.025 125.342662 
L 94.625 128.95657 
L 107.225 131.343874 
L 119.825 133.035557 
L 145.025 135.281708 
L 170.225 136.7 
" style="fill:none;stroke:#00aad4;stroke-linecap:square;stroke-width:0.85;"/>
    <defs>
     <path d="M 0 3.25 
C 0.86191 3.25 1.688635 2.907559 2.298097 2.298097 
C 2.907559 1.688635 3.25 0.86191 3.25 0 
C 3.25 -0.86191 2.907559 -1.688635 2.298097 -2.298097 
C 1.688635 -2.907559 0.86191 -3.25 0 -3.25 
C -0.86191 -3.25 -1.688635 -2.907559 -2.298097 -2.298097 
C -2.907559 -1.688635 -3.25 -0.86191 -3.25 0 
C -3.25 0.86191 -2.907559 1.688635 -2.298097 2.298097 
C -1.688635 2.907559 -0.86191 3.25 0 3.25 
z
" id="md5196c7e46"/>
    </defs>
    <g clip-path="url(#pe578d7e9cb)">
     <use style="fill:#00aad4;" x="44.225" xlink:href="#md5196c7e46" y="10.7"/>
     <use style="fill:#00aad4;" x="56.825" xlink:href="#md5196c7e46" y="106.66234"/>
     <use style="fill:#00aad4;" x="69.425" xlink:href="#md5196c7e46" y="119.224089"/>
     <use style="fill:#00aad4;" x="82.025" xlink:href="#md5196c7e46" y="125.342662"/>
     <use style="fill:#00aad4;" x="94.625" xlink:href="#md5196c7e46" y="128.95657"/>
     <use style="fill:#00aad4;" x="107.225" xlink:href="#md5196c7e46" y="131.343874"/>
     <use style="fill:#00aad4;" x="119.825" xlink:href="#md5196c7e46" y="133.035557"/>
     <use style="fill:#00aad4;" x="145.025" xlink:href="#md5196c7e46" y="135.281708"/>
     <use style="fill:#00aad4;" x="170.225" xlink:href="#md5196c7e46" y="136.7"/>
    </g>
   </g>
   <g id="patch_3">
    <path d="M 44.225 136.7 
L 44.225 10.7 
" style="fill:none;stroke:#000000;stroke-linecap:square;stroke-linejoin:miter;stroke-width:0.85;"/>
   </g>
   <g id="patch_4">
    <path d="M 170.225 136.7 
L 170.225 10.7 
" style="fill:none;stroke:#000000;stroke-linecap:square;stroke-linejoin:miter;stroke-width:0.85;"/>
   </g>
   <g id="patch_5">
    <path d="M 44.225 136.7 
L 170.225 136.7 
" style="fill:none;stroke:#000000;stroke-linecap:square;stroke-linejoin:miter;stroke-width:0.85;"/>
   </g>
   <g id="patch_6">
    <path d="M 44.225 10.7 
L 170.225 10.7 
" style="fill:none;stroke:#000000;stroke-linecap:square;stroke-linejoin:miter;stroke-width:0.85;"/>
   </g>
  </g>
  <g id="axes_2">
   <g id="matplotlib.axis_3">
    <g id="ytick_5">
     <g id="line2d_12">
      <defs>
       <path d="M 0 0 
L 3.5 0 
" id="m9888cd530a" style="stroke:#000000;stroke-width:0.85;"/>
      </defs>
      <g>
       <use style="stroke:#000000;stroke-width:0.85;" x="170.225" xlink:href="#m9888cd530a" y="130.369286"/>
      </g>
     </g>
     <g id="text_13">
      <text style="font-family:Helvetica;font-size:7.5px;font-style:normal;font-weight:500;text-anchor:start;" transform="rotate(-0, 177.225, 133.059325)" x="177.225" y="133.059325">0.35</text>
     </g>
    </g>
    <g id="ytick_6">
     <g id="line2d_13">
      <g>
       <use style="stroke:#000000;stroke-width:0.85;" x="170.225" xlink:href="#m9888cd530a" y="112.190092"/>
      </g>
     </g>
     <g id="text_14">
      <text style="font-family:Helvetica;font-size:7.5px;font-style:normal;font-weight:500;text-anchor:start;" transform="rotate(-0, 177.225, 114.880131)" x="177.225" y="114.880131">0.40</text>
     </g>
    </g>
    <g id="ytick_7">
     <g id="line2d_14">
      <g>
       <use style="stroke:#000000;stroke-width:0.85;" x="170.225" xlink:href="#m9888cd530a" y="94.010899"/>
      </g>
     </g>
     <g id="text_15">
      <text style="font-family:Helvetica;font-size:7.5px;font-style:normal;font-weight:500;text-anchor:start;" transform="rotate(-0, 177.225, 96.700938)" x="177.225" y="96.700938">0.45</text>
     </g>
    </g>
    <g id="ytick_8">
     <g id="line2d_15">
      <g>
       <use style="stroke:#000000;stroke-width:0.85;" x="170.225" xlink:href="#m9888cd530a" y="75.831705"/>
      </g>
     </g>
     <g id="text_16">
      <text style="font-family:Helvetica;font-size:7.5px;font-style:normal;font-weight:500;text-anchor:start;" transform="rotate(-0, 177.225, 78.521744)" x="177.225" y="78.521744">0.50</text>
     </g>
    </g>
    <g id="ytick_9">
     <g id="line2d_16">
      <g>
       <use style="stroke:#000000;stroke-width:0.85;" x="170.225" xlink:href="#m9888cd530a" y="57.652512"/>
      </g>
     </g>
     <g id="text_17">
      <text style="font-family:Helvetica;font-size:7.5px;font-style:normal;font-weight:500;text-anchor:start;" transform="rotate(-0, 177.225, 60.342551)" x="177.225" y="60.342551">0.55</text>
     </g>
    </g>
    <g id="ytick_10">
     <g id="line2d_17">
      <g>
       <use style="stroke:#000000;stroke-width:0.85;" x="170.225" xlink:href="#m9888cd530a" y="39.473319"/>
      </g>
     </g>
     <g id="text_18">
      <text style="font-family:Helvetica;font-size:7.5px;font-style:normal;font-weight:500;text-anchor:start;" transform="rotate(-0, 177.225, 42.163358)" x="177.225" y="42.163358">0.60</text>
     </g>
    </g>
    <g id="ytick_11">
     <g id="line2d_18">
      <g>
       <use style="stroke:#000000;stroke-width:0.85;" x="170.225" xlink:href="#m9888cd530a" y="21.294125"/>
      </g>
     </g>
     <g id="text_19">
      <text style="font-family:Helvetica;font-size:7.5px;font-style:normal;font-weight:500;text-anchor:start;" transform="rotate(-0, 177.225, 23.984164)" x="177.225" y="23.984164">0.65</text>
     </g>
    </g>
    <g id="text_20">
     <!-- $\alpha_{\perp}/(4\pi \varepsilon_0) (\AA)$ -->
     <g transform="translate(205.345703 95.15)rotate(-90)">
      <text>
       <tspan style="font-family:Arial;font-size:7.5px;font-style:italic;font-weight:italic;" x="0 18.790707 23.815121 35.399296" y="-0.125">απεÅ</tspan>
       <tspan style="font-family:STIXGeneral;font-size:5.25px;font-style:regular;font-weight:regular;" x="5.152002" y="2.11515625">⟂</tspan>
       <tspan style="font-family:Arial;font-size:7.5px;font-style:regular;font-weight:regular;" x="10.038266 12.122006 14.619565 30.404179 32.901737 40.401737" y="-0.125">/(4)()</tspan>
       <tspan style="font-family:Arial;font-size:5.25px;font-style:regular;font-weight:regular;" x="27.11102" y="2.11515625">0</tspan>
      </text>
     </g>
    </g>
   </g>
   <g id="line2d_19">
    <path clip-path="url(#pe578d7e9cb)" d="M 44.225 60.084728 
L 56.825 96.39212 
L 69.425 96.234655 
L 82.025 96.214847 
L 94.625 96.199588 
L 107.225 96.203424 
L 119.825 96.178782 
L 145.025 96.225085 
L 170.225 96.218202 
" style="fill:none;stroke:#ff6600;stroke-linecap:square;stroke-width:0.85;"/>
    <defs>
     <path d="M 0 3.25 
C 0.86191 3.25 1.688635 2.907559 2.298097 2.298097 
C 2.907559 1.688635 3.25 0.86191 3.25 0 
C 3.25 -0.86191 2.907559 -1.688635 2.298097 -2.298097 
C 1.688635 -2.907559 0.86191 -3.25 0 -3.25 
C -0.86191 -3.25 -1.688635 -2.907559 -2.298097 -2.298097 
C -2.907559 -1.688635 -3.25 -0.86191 -3.25 0 
C -3.25 0.86191 -2.907559 1.688635 -2.298097 2.298097 
C -1.688635 2.907559 -0.86191 3.25 0 3.25 
z
" id="m09efbc6ba1"/>
    </defs>
    <g clip-path="url(#pe578d7e9cb)">
     <use style="fill:#ff6600;" x="44.225" xlink:href="#m09efbc6ba1" y="60.084728"/>
     <use style="fill:#ff6600;" x="56.825" xlink:href="#m09efbc6ba1" y="96.39212"/>
     <use style="fill:#ff6600;" x="69.425" xlink:href="#m09efbc6ba1" y="96.234655"/>
     <use style="fill:#ff6600;" x="82.025" xlink:href="#m09efbc6ba1" y="96.214847"/>
     <use style="fill:#ff6600;" x="94.625" xlink:href="#m09efbc6ba1" y="96.199588"/>
     <use style="fill:#ff6600;" x="107.225" xlink:href="#m09efbc6ba1" y="96.203424"/>
     <use style="fill:#ff6600;" x="119.825" xlink:href="#m09efbc6ba1" y="96.178782"/>
     <use style="fill:#ff6600;" x="145.025" xlink:href="#m09efbc6ba1" y="96.225085"/>
     <use style="fill:#ff6600;" x="170.225" xlink:href="#m09efbc6ba1" y="96.218202"/>
    </g>
   </g>
   <g id="patch_7">
    <path d="M 44.225 136.7 
L 44.225 10.7 
" style="fill:none;stroke:#000000;stroke-linecap:square;stroke-linejoin:miter;stroke-width:0.85;"/>
   </g>
   <g id="patch_8">
    <path d="M 170.225 136.7 
L 170.225 10.7 
" style="fill:none;stroke:#000000;stroke-linecap:square;stroke-linejoin:miter;stroke-width:0.85;"/>
   </g>
   <g id="patch_9">
    <path d="M 44.225 136.7 
L 170.225 136.7 
" style="fill:none;stroke:#000000;stroke-linecap:square;stroke-linejoin:miter;stroke-width:0.85;"/>
   </g>
   <g id="patch_10">
    <path d="M 44.225 10.7 
L 170.225 10.7 
" style="fill:none;stroke:#000000;stroke-linecap:square;stroke-linejoin:miter;stroke-width:0.85;"/>
   </g>
  </g>
 </g>
 <defs>
  <clipPath id="pe578d7e9cb">
   <rect height="126" width="126" x="44.225" y="10.7"/>
  </clipPath>
 </defs>
</svg>
