<?xml version="1.0" encoding="UTF-8" standalone="no"?>
<!-- Created with Inkscape (http://www.inkscape.org/) -->

<svg
   xmlns:dc="http://purl.org/dc/elements/1.1/"
   xmlns:cc="http://creativecommons.org/ns#"
   xmlns:rdf="http://www.w3.org/1999/02/22-rdf-syntax-ns#"
   xmlns:svg="http://www.w3.org/2000/svg"
   xmlns="http://www.w3.org/2000/svg"
   xmlns:sodipodi="http://sodipodi.sourceforge.net/DTD/sodipodi-0.dtd"
   xmlns:inkscape="http://www.inkscape.org/namespaces/inkscape"
   sodipodi:docname="2D_stack.svg"
   inkscape:version="0.92.3 (cdafc079a9, 2018-06-25)"
   id="svg8"
   version="1.1"
   viewBox="0 0 169.30815 62.129036"
   height="62.129036mm"
   width="169.30815mm">
  <defs
     id="defs2">
    <marker
       inkscape:isstock="true"
       style="overflow:visible"
       id="marker1587"
       refX="0"
       refY="0"
       orient="auto"
       inkscape:stockid="Arrow1Lend">
      <path
         transform="matrix(-0.8,0,0,-0.8,-10,0)"
         style="fill:#009fff;fill-opacity:1;fill-rule:evenodd;stroke:#009fff;stroke-width:1.00000003pt;stroke-opacity:1"
         d="M 0,0 5,-5 -12.5,0 5,5 Z"
         id="path1585"
         inkscape:connector-curvature="0" />
    </marker>
    <marker
       inkscape:isstock="true"
       style="overflow:visible"
       id="marker1583"
       refX="0"
       refY="0"
       orient="auto"
       inkscape:stockid="Arrow1Lstart">
      <path
         transform="matrix(0.8,0,0,0.8,10,0)"
         style="fill:#009fff;fill-opacity:1;fill-rule:evenodd;stroke:#009fff;stroke-width:1.00000003pt;stroke-opacity:1"
         d="M 0,0 5,-5 -12.5,0 5,5 Z"
         id="path1581"
         inkscape:connector-curvature="0" />
    </marker>
    <marker
       inkscape:stockid="Arrow1Lend"
       orient="auto"
       refY="0"
       refX="0"
       id="marker1579"
       style="overflow:visible"
       inkscape:isstock="true">
      <path
         id="path1577"
         d="M 0,0 5,-5 -12.5,0 5,5 Z"
         style="fill:#000000;fill-opacity:1;fill-rule:evenodd;stroke:#000000;stroke-width:1.00000003pt;stroke-opacity:1"
         transform="matrix(-0.8,0,0,-0.8,-10,0)"
         inkscape:connector-curvature="0" />
    </marker>
    <marker
       inkscape:stockid="Arrow1Lend"
       orient="auto"
       refY="0"
       refX="0"
       id="marker1575"
       style="overflow:visible"
       inkscape:isstock="true">
      <path
         id="path1573"
         d="M 0,0 5,-5 -12.5,0 5,5 Z"
         style="fill:#000000;fill-opacity:1;fill-rule:evenodd;stroke:#000000;stroke-width:1.00000003pt;stroke-opacity:1"
         transform="matrix(-0.8,0,0,-0.8,-10,0)"
         inkscape:connector-curvature="0" />
    </marker>
    <marker
       inkscape:isstock="true"
       style="overflow:visible"
       id="marker1571"
       refX="0"
       refY="0"
       orient="auto"
       inkscape:stockid="Arrow1Lend">
      <path
         transform="matrix(-0.8,0,0,-0.8,-10,0)"
         style="fill:#000000;fill-opacity:1;fill-rule:evenodd;stroke:#000000;stroke-width:1.00000003pt;stroke-opacity:1"
         d="M 0,0 5,-5 -12.5,0 5,5 Z"
         id="path1569"
         inkscape:connector-curvature="0" />
    </marker>
    <marker
       inkscape:isstock="true"
       style="overflow:visible"
       id="marker1567"
       refX="0"
       refY="0"
       orient="auto"
       inkscape:stockid="Arrow1Lend">
      <path
         transform="matrix(-0.8,0,0,-0.8,-10,0)"
         style="fill:#000000;fill-opacity:1;fill-rule:evenodd;stroke:#000000;stroke-width:1.00000003pt;stroke-opacity:1"
         d="M 0,0 5,-5 -12.5,0 5,5 Z"
         id="path1565"
         inkscape:connector-curvature="0" />
    </marker>
    <marker
       inkscape:stockid="Arrow1Lstart"
       orient="auto"
       refY="0"
       refX="0"
       id="Arrow1Lstart"
       style="overflow:visible"
       inkscape:isstock="true"
       inkscape:collect="always">
      <path
         id="path1109"
         d="M 0,0 5,-5 -12.5,0 5,5 Z"
         style="fill:#009fff;fill-opacity:1;fill-rule:evenodd;stroke:#009fff;stroke-width:1.00000003pt;stroke-opacity:1"
         transform="matrix(0.8,0,0,0.8,10,0)"
         inkscape:connector-curvature="0" />
    </marker>
    <marker
       inkscape:stockid="Arrow1Lend"
       orient="auto"
       refY="0"
       refX="0"
       id="marker1415"
       style="overflow:visible"
       inkscape:isstock="true"
       inkscape:collect="always">
      <path
         id="path1413"
         d="M 0,0 5,-5 -12.5,0 5,5 Z"
         style="fill:#009fff;fill-opacity:1;fill-rule:evenodd;stroke:#009fff;stroke-width:1.00000003pt;stroke-opacity:1"
         transform="matrix(-0.8,0,0,-0.8,-10,0)"
         inkscape:connector-curvature="0" />
    </marker>
    <marker
       inkscape:isstock="true"
       style="overflow:visible"
       id="marker1407"
       refX="0"
       refY="0"
       orient="auto"
       inkscape:stockid="Arrow1Lend"
       inkscape:collect="always">
      <path
         transform="matrix(-0.8,0,0,-0.8,-10,0)"
         style="fill:#000000;fill-opacity:1;fill-rule:evenodd;stroke:#000000;stroke-width:1.00000003pt;stroke-opacity:1"
         d="M 0,0 5,-5 -12.5,0 5,5 Z"
         id="path1405"
         inkscape:connector-curvature="0" />
    </marker>
    <marker
       inkscape:isstock="true"
       style="overflow:visible"
       id="marker1403"
       refX="0"
       refY="0"
       orient="auto"
       inkscape:stockid="Arrow1Lend"
       inkscape:collect="always">
      <path
         transform="matrix(-0.8,0,0,-0.8,-10,0)"
         style="fill:#000000;fill-opacity:1;fill-rule:evenodd;stroke:#000000;stroke-width:1.00000003pt;stroke-opacity:1"
         d="M 0,0 5,-5 -12.5,0 5,5 Z"
         id="path1401"
         inkscape:connector-curvature="0" />
    </marker>
    <marker
       inkscape:stockid="Arrow1Lend"
       orient="auto"
       refY="0"
       refX="0"
       id="marker1397"
       style="overflow:visible"
       inkscape:isstock="true"
       inkscape:collect="always">
      <path
         id="path1395"
         d="M 0,0 5,-5 -12.5,0 5,5 Z"
         style="fill:#000000;fill-opacity:1;fill-rule:evenodd;stroke:#000000;stroke-width:1.00000003pt;stroke-opacity:1"
         transform="matrix(-0.8,0,0,-0.8,-10,0)"
         inkscape:connector-curvature="0" />
    </marker>
    <marker
       inkscape:stockid="Arrow1Lend"
       orient="auto"
       refY="0"
       refX="0"
       id="marker1393"
       style="overflow:visible"
       inkscape:isstock="true"
       inkscape:collect="always">
      <path
         id="path1391"
         d="M 0,0 5,-5 -12.5,0 5,5 Z"
         style="fill:#000000;fill-opacity:1;fill-rule:evenodd;stroke:#000000;stroke-width:1.00000003pt;stroke-opacity:1"
         transform="matrix(-0.8,0,0,-0.8,-10,0)"
         inkscape:connector-curvature="0" />
    </marker>
  </defs>
  <sodipodi:namedview
     id="base"
     pagecolor="#ffffff"
     bordercolor="#666666"
     borderopacity="1.0"
     inkscape:pageopacity="0.0"
     inkscape:pageshadow="2"
     inkscape:zoom="0.98994949"
     inkscape:cx="318.48405"
     inkscape:cy="127.42175"
     inkscape:document-units="mm"
     inkscape:current-layer="g1020"
     showgrid="false"
     inkscape:window-width="1280"
     inkscape:window-height="687"
     inkscape:window-x="0"
     inkscape:window-y="23"
     inkscape:window-maximized="0"
     fit-margin-top="0"
     fit-margin-left="0"
     fit-margin-right="0"
     fit-margin-bottom="0" />
  <metadata
     id="metadata5">
    <rdf:RDF>
      <cc:Work
         rdf:about="">
        <dc:format>image/svg+xml</dc:format>
        <dc:type
           rdf:resource="http://purl.org/dc/dcmitype/StillImage" />
        <dc:title />
      </cc:Work>
    </rdf:RDF>
  </metadata>
  <g
     inkscape:label="Layer 1"
     inkscape:groupmode="layer"
     id="layer1"
     transform="translate(-16.832534,-16.880774)">
    <g
       id="g1551">
      <rect
         y="27.502975"
         x="17.008928"
         height="35.907738"
         width="73.70536"
         id="rect815"
         style="opacity:1;fill:none;fill-opacity:1;stroke:#000000;stroke-width:0.35277778;stroke-miterlimit:4;stroke-dasharray:none;stroke-opacity:1" />
      <rect
         y="27.502975"
         x="17.008923"
         height="35.907738"
         width="10.205358"
         id="rect817"
         style="opacity:0.497;fill:#eb1c44;fill-opacity:0.59042556;stroke:#000000;stroke-width:0.35277778;stroke-miterlimit:4;stroke-dasharray:none;stroke-opacity:1" />
    </g>
    <g
       id="g1020"
       transform="translate(-270.59236,-40.09262)">
      <path
         style="fill:none;fill-rule:evenodd;stroke:#000000;stroke-width:0.26458332px;stroke-linecap:butt;stroke-linejoin:miter;stroke-opacity:1;marker-mid:url(#marker1393);marker-end:url(#marker1397)"
         d="M 381.33303,99.244496 H 397.3692"
         id="path1389"
         inkscape:connector-curvature="0" />
      <path
         inkscape:connector-curvature="0"
         id="path1399"
         d="m 400.91214,99.244511 h 16.03617"
         style="fill:none;fill-rule:evenodd;stroke:#000000;stroke-width:0.26458332px;stroke-linecap:butt;stroke-linejoin:miter;stroke-opacity:1;marker-mid:url(#marker1403);marker-end:url(#marker1407)" />
      <path
         style="fill:none;fill-rule:evenodd;stroke:#009fff;stroke-width:0.1872741px;stroke-linecap:butt;stroke-linejoin:miter;stroke-opacity:1;marker-start:url(#Arrow1Lstart);marker-end:url(#marker1415)"
         d="m 381.36856,81.887807 h 13.24227"
         id="path1411"
         inkscape:connector-curvature="0" />
      <path
         inkscape:connector-curvature="0"
         id="path1559"
         d="M 319.84304,94.028669 V 110.06484"
         style="fill:none;fill-rule:evenodd;stroke:#000000;stroke-width:0.26458332px;stroke-linecap:butt;stroke-linejoin:miter;stroke-opacity:1;marker-mid:url(#marker1567);marker-end:url(#marker1571)" />
      <path
         style="fill:none;fill-rule:evenodd;stroke:#000000;stroke-width:0.26458332px;stroke-linecap:butt;stroke-linejoin:miter;stroke-opacity:1;marker-mid:url(#marker1575);marker-end:url(#marker1579)"
         d="M 293.38467,94.028671 V 110.06484"
         id="path1561"
         inkscape:connector-curvature="0" />
      <path
         inkscape:connector-curvature="0"
         id="path1563"
         d="m 293.27886,72.897531 v 13.24227"
         style="fill:none;fill-rule:evenodd;stroke:#009fff;stroke-width:0.1872741px;stroke-linecap:butt;stroke-linejoin:miter;stroke-opacity:1;marker-start:url(#marker1583);marker-end:url(#marker1587)" />
      <g
         id="g1655"
         transform="matrix(0.6,0,0,0.6,196.63932,-7.8590061)">
        <g
           word-spacing="normal"
           letter-spacing="normal"
           font-size-adjust="none"
           font-stretch="normal"
           font-weight="normal"
           font-variant="normal"
           font-style="normal"
           stroke-miterlimit="10.433"
           xml:space="preserve"
           transform="matrix(0.3,0,0,-0.3,-52.5,222.75)"
           id="content"
           style="font-style:normal;font-variant:normal;font-weight:normal;font-stretch:normal;letter-spacing:normal;word-spacing:normal;text-anchor:start;fill:none;fill-opacity:1;fill-rule:evenodd;stroke:#000000;stroke-linecap:butt;stroke-linejoin:miter;stroke-miterlimit:10.43299961;stroke-dasharray:none;stroke-dashoffset:0;stroke-opacity:1"><path
             id="path1644"
             d="m 1221.7,358.21 v 0.36 0.35 0.35 0.34 l -0.1,0.66 -0.1,0.62 -0.1,0.6 -0.1,0.56 -0.2,0.54 -0.2,0.51 -0.1,0.49 -0.3,0.46 -0.2,0.43 -0.2,0.4 -0.3,0.38 -0.3,0.36 -0.3,0.33 -0.3,0.31 -0.3,0.29 -0.3,0.26 -0.3,0.24 -0.3,0.22 -0.4,0.2 -0.3,0.18 -0.4,0.16 -0.3,0.14 -0.4,0.13 -0.4,0.1 -0.3,0.09 -0.4,0.07 -0.3,0.05 -0.4,0.04 -0.4,0.02 -0.3,0.01 -0.1,-1.1 c 5,0 5,-6.53 5,-10.4 0,-1.85 0,-4.74 0.1,-5.58 v 0 c -4.4,-3.84 -8.2,-4.39 -10.2,-4.39 -3,0 -4.5,2.25 -4.5,5.44 0,2.43 1.3,7.81 2.9,10.36 2.3,3.64 5,4.57 6.7,4.57 l 0.1,1.1 c -6.8,0 -13.4,-7.13 -13.4,-14.14 0,-4.64 3,-8.43 8.1,-8.43 3.1,0 6.7,1.15 10.5,4.19 0.6,-2.64 2.3,-4.19 4.5,-4.19 2.7,0 4.2,2.74 4.2,3.54 0,0.36 -0.3,0.5 -0.6,0.5 -0.4,0 -0.5,-0.14 -0.6,-0.5 -0.9,-2.44 -2.7,-2.44 -2.8,-2.44 -1.6,0 -1.6,3.89 -1.6,5.08 0,1.04 0,1.15 0.5,1.75 4.7,5.87 5.8,11.65 5.8,11.7 0,0.11 -0.1,0.5 -0.7,0.5 -0.5,0 -0.5,-0.14 -0.7,-1.05 -0.9,-3.14 -2.5,-6.92 -4.9,-9.86 z"
             inkscape:connector-curvature="0"
             style="fill:#000000;stroke-width:0" /><path
             id="path1646"
             d="m 1236,370.02 0.1,0.17 0.2,0.17 0.2,0.16 0.1,0.17 0.2,0.17 0.1,0.09 0.1,0.1 0.1,0.09 0.1,0.1 0.1,0.1 0.2,0.11 0.1,0.11 0.1,0.11 0.1,0.12 0.2,0.13 0.1,0.13 0.2,0.14 0.2,0.14 0.1,0.15 0.2,0.15 0.2,0.17 0.2,0.17 0.3,0.18 0.2,0.19 0.2,0.2 0.3,0.2 0.3,0.22 c 0.7,0.59 3.3,2.69 4.3,3.66 2.1,2.09 3.5,3.87 3.5,4.29 0,0.41 -0.5,0.41 -0.6,0.41 -0.3,0 -0.4,-0.06 -0.6,-0.34 -1.1,-1.6 -1.8,-2.13 -2.7,-2.13 -0.4,0 -0.9,0.03 -2,1.05 -1.1,1.19 -1.9,1.42 -2.7,1.42 -2.8,0 -4.7,-3.03 -4.7,-4.06 0,-0.33 0.4,-0.42 0.6,-0.42 0.4,0 0.5,0.09 0.6,0.48 0.6,1.22 2.5,1.3 3.1,1.3 0.8,0 1.7,-0.22 2.2,-0.33 1.9,-0.41 2.1,-0.41 3,-0.41 -0.9,-0.95 -1.5,-1.58 -4.8,-4.22 -2.8,-2.15 -3.7,-3.03 -4.3,-3.73 -2.1,-2.05 -3.2,-3.58 -3.2,-3.91 0,-0.4 0.5,-0.4 0.6,-0.4 0.4,0 0.5,0.06 0.6,0.34 1,1.33 2,2.13 3.2,2.13 0.5,0 1,-0.04 1.9,-0.91 1.1,-1.05 1.8,-1.56 2.9,-1.56 3.7,0 6.1,4.22 6.1,5.39 0,0.42 -0.4,0.45 -0.6,0.45 -0.4,0 -0.5,-0.17 -0.6,-0.55 -0.7,-1.75 -2.8,-2.57 -4.5,-2.57 -0.8,0 -1.6,0.17 -2.5,0.37 -1.6,0.34 -1.9,0.34 -2.5,0.34 -0.1,0 -0.6,0 -0.8,-0.03 z"
             inkscape:connector-curvature="0"
             style="fill:#000000;stroke-width:0" /><path
             id="path1648"
             d="m 1256.5,370.02 0.2,0.17 0.1,0.17 0.2,0.16 0.2,0.17 0.1,0.17 0.1,0.09 0.1,0.1 0.1,0.09 0.1,0.1 0.2,0.1 0.1,0.11 0.1,0.11 0.1,0.11 0.2,0.12 0.1,0.13 0.2,0.13 0.1,0.14 0.2,0.14 0.2,0.15 0.2,0.15 0.1,0.17 0.3,0.17 0.2,0.18 0.2,0.19 0.3,0.2 0.2,0.2 0.3,0.22 c 0.7,0.59 3.3,2.69 4.3,3.66 2.2,2.09 3.5,3.87 3.5,4.29 0,0.41 -0.5,0.41 -0.6,0.41 -0.3,0 -0.4,-0.06 -0.6,-0.34 -1.1,-1.6 -1.8,-2.13 -2.6,-2.13 -0.5,0 -1,0.03 -2,1.05 -1.2,1.19 -2,1.42 -2.8,1.42 -2.8,0 -4.7,-3.03 -4.7,-4.06 0,-0.33 0.4,-0.42 0.6,-0.42 0.5,0 0.5,0.09 0.7,0.48 0.5,1.22 2.4,1.3 3,1.3 0.8,0 1.7,-0.22 2.2,-0.33 1.9,-0.41 2.2,-0.41 3,-0.41 -0.9,-0.95 -1.5,-1.58 -4.8,-4.22 -2.7,-2.15 -3.7,-3.03 -4.3,-3.73 -2.1,-2.05 -3.1,-3.58 -3.1,-3.91 0,-0.4 0.4,-0.4 0.6,-0.4 0.3,0 0.4,0.06 0.5,0.34 1,1.33 2.1,2.13 3.3,2.13 0.4,0 0.9,-0.04 1.8,-0.91 1.1,-1.05 1.8,-1.56 2.9,-1.56 3.8,0 6.1,4.22 6.1,5.39 0,0.42 -0.4,0.45 -0.6,0.45 -0.4,0 -0.5,-0.17 -0.6,-0.55 -0.7,-1.75 -2.7,-2.57 -4.5,-2.57 -0.8,0 -1.6,0.17 -2.5,0.37 -1.6,0.34 -1.9,0.34 -2.5,0.34 -0.1,0 -0.6,0 -0.8,-0.03 z"
             inkscape:connector-curvature="0"
             style="fill:#000000;stroke-width:0" /><path
             id="path1650"
             d="m 1247.5,340.42 h -1.2 c -0.1,-0.76 -0.5,-2.83 -0.9,-3.17 -0.3,-0.2 -3,-0.2 -3.5,-0.2 h -6.4 c 3.7,3.23 4.9,4.2 7,5.84 2.6,2.06 5,4.22 5,7.53 0,4.22 -3.7,6.8 -8.2,6.8 -4.3,0 -7.2,-3.03 -7.2,-6.24 0,-1.78 1.5,-1.95 1.8,-1.95 0.9,0 1.9,0.59 1.9,1.85 0,0.62 -0.3,1.84 -2.1,1.84 1.1,2.47 3.5,3.23 5.1,3.23 3.5,0 5.3,-2.7 5.3,-5.53 0,-3.03 -2.2,-5.44 -3.3,-6.69 l -8.4,-8.29 c -0.3,-0.32 -0.3,-0.39 -0.3,-1.36 h 14.3 z"
             inkscape:connector-curvature="0"
             style="fill:#000000;stroke-width:0" /><path
             id="path1652"
             d="m 1251.7,357.88 v -1.26 h 0.8 c 2.7,0 2.8,-0.34 2.8,-1.57 v -18.14 c 0,-1.19 -0.1,-1.58 -2.8,-1.58 h -0.8 v -1.25 h 13.7 l -0.9,1.25 h -4.4 c -1.6,0 -1.6,0.28 -1.6,1.36 v 18.58 c 0,1.07 0,1.35 1.6,1.35 h 4.4 c 2.9,0 5.5,-1.21 7.1,-3.28 1.4,-1.87 2,-4.53 2,-7.56 0,-4.03 -1,-6.12 -2.3,-7.59 -1.5,-1.78 -4,-2.86 -6.8,-2.86 l 0.9,-1.25 c 6.4,0 11.8,5.15 11.8,11.7 0,6.63 -5.3,12.1 -11.8,12.1 z"
             inkscape:connector-curvature="0"
             style="fill:#000000;stroke-width:0" /></g>      </g>
      <g
         id="g1737"
         transform="matrix(0.6,0,0,0.6,102.97679,-7.8590058)">
        <g
           word-spacing="normal"
           letter-spacing="normal"
           font-size-adjust="none"
           font-stretch="normal"
           font-weight="normal"
           font-variant="normal"
           font-style="normal"
           stroke-miterlimit="10.433"
           xml:space="preserve"
           transform="matrix(0.3,0,0,-0.3,-52.5,222.75)"
           id="g1735"
           style="font-style:normal;font-variant:normal;font-weight:normal;font-stretch:normal;letter-spacing:normal;word-spacing:normal;text-anchor:start;fill:none;fill-opacity:1;fill-rule:evenodd;stroke:#000000;stroke-linecap:butt;stroke-linejoin:miter;stroke-miterlimit:10.43299961;stroke-dasharray:none;stroke-dashoffset:0;stroke-opacity:1"><path
             id="path1725"
             d="m 1221.7,358.21 v 0.36 0.35 0.35 0.34 l -0.1,0.66 -0.1,0.62 -0.1,0.6 -0.1,0.56 -0.2,0.54 -0.2,0.51 -0.1,0.49 -0.3,0.46 -0.2,0.43 -0.2,0.4 -0.3,0.38 -0.3,0.36 -0.3,0.33 -0.3,0.31 -0.3,0.29 -0.3,0.26 -0.3,0.24 -0.3,0.22 -0.4,0.2 -0.3,0.18 -0.4,0.16 -0.3,0.14 -0.4,0.13 -0.4,0.1 -0.3,0.09 -0.4,0.07 -0.3,0.05 -0.4,0.04 -0.4,0.02 -0.3,0.01 -0.1,-1.1 c 5,0 5,-6.53 5,-10.4 0,-1.85 0,-4.74 0.1,-5.58 v 0 c -4.4,-3.84 -8.2,-4.39 -10.2,-4.39 -3,0 -4.5,2.25 -4.5,5.44 0,2.43 1.3,7.81 2.9,10.36 2.3,3.64 5,4.57 6.7,4.57 l 0.1,1.1 c -6.8,0 -13.4,-7.13 -13.4,-14.14 0,-4.64 3,-8.43 8.1,-8.43 3.1,0 6.7,1.15 10.5,4.19 0.6,-2.64 2.3,-4.19 4.5,-4.19 2.7,0 4.2,2.74 4.2,3.54 0,0.36 -0.3,0.5 -0.6,0.5 -0.4,0 -0.5,-0.14 -0.6,-0.5 -0.9,-2.44 -2.7,-2.44 -2.8,-2.44 -1.6,0 -1.6,3.89 -1.6,5.08 0,1.04 0,1.15 0.5,1.75 4.7,5.87 5.8,11.65 5.8,11.7 0,0.11 -0.1,0.5 -0.7,0.5 -0.5,0 -0.5,-0.14 -0.7,-1.05 -0.9,-3.14 -2.5,-6.92 -4.9,-9.86 z"
             inkscape:connector-curvature="0"
             style="fill:#000000;stroke-width:0" /><path
             id="path1727"
             d="m 1238.8,370.65 v -0.11 l -0.1,-0.12 v -0.12 l -0.1,-0.12 v -0.12 l -0.1,-0.13 v -0.13 l -0.1,-0.12 -0.1,-0.13 -0.1,-0.13 v -0.13 l -0.1,-0.13 -0.1,-0.12 -0.1,-0.12 -0.1,-0.12 -0.1,-0.12 -0.1,-0.12 -0.1,-0.11 -0.1,-0.1 -0.2,-0.1 -0.1,-0.1 -0.1,-0.09 -0.1,-0.08 -0.2,-0.08 -0.1,-0.07 -0.1,-0.06 -0.2,-0.06 -0.1,-0.04 -0.2,-0.04 -0.1,-0.02 -0.2,-0.02 h -0.2 c -0.1,0 -1.1,0 -1.9,0.48 1.5,0.45 1.6,1.72 1.6,1.92 0,0.77 -0.6,1.3 -1.4,1.3 -1,0 -2,-0.84 -2,-2.14 0,-1.74 2,-2.53 3.6,-2.53 1.7,0 3.1,1 4,2.47 0.8,-1.85 2.7,-2.47 4.1,-2.47 4,0 6.1,4.34 6.1,5.33 0,0.45 -0.4,0.45 -0.5,0.45 -0.5,0 -0.5,-0.17 -0.7,-0.6 -0.7,-2.4 -2.8,-4.21 -4.8,-4.21 -1.4,0 -2.1,0.93 -2.1,2.26 0,0.91 0.9,4.08 1.8,7.95 0.7,2.68 2.3,3.55 3.5,3.55 0,0 1.1,0 1.8,-0.48 -1.1,-0.32 -1.5,-1.3 -1.5,-1.92 0,-0.77 0.6,-1.29 1.4,-1.29 0.8,0 1.9,0.66 1.9,2.13 0,1.95 -2.2,2.53 -3.6,2.53 -1.7,0 -3.1,-1.14 -3.9,-2.47 -0.6,1.44 -2.2,2.47 -4.2,2.47 -3.9,0 -6.1,-4.28 -6.1,-5.33 0,-0.45 0.5,-0.45 0.6,-0.45 0.4,0 0.5,0.14 0.7,0.59 0.8,2.72 3,4.22 4.7,4.22 1.2,0 2.1,-0.62 2.1,-2.3 0,-0.7 -0.4,-2.43 -0.7,-3.62 z"
             inkscape:connector-curvature="0"
             style="fill:#000000;stroke-width:0" /><path
             id="path1729"
             d="m 1261.3,370.65 v -0.11 -0.12 l -0.1,-0.12 v -0.12 l -0.1,-0.12 v -0.13 l -0.1,-0.13 -0.1,-0.12 v -0.13 l -0.1,-0.13 -0.1,-0.13 -0.1,-0.13 -0.1,-0.12 v -0.12 l -0.1,-0.12 -0.1,-0.12 -0.2,-0.12 -0.1,-0.11 -0.1,-0.1 -0.1,-0.1 -0.1,-0.1 -0.1,-0.09 -0.2,-0.08 -0.1,-0.08 -0.1,-0.07 -0.2,-0.06 -0.1,-0.06 -0.2,-0.04 -0.1,-0.04 -0.2,-0.02 -0.1,-0.02 h -0.2 c -0.1,0 -1.2,0 -1.9,0.48 1.4,0.45 1.5,1.72 1.5,1.92 0,0.77 -0.6,1.3 -1.4,1.3 -0.9,0 -2,-0.84 -2,-2.14 0,-1.74 2,-2.53 3.7,-2.53 1.6,0 3,1 3.9,2.47 0.8,-1.85 2.8,-2.47 4.2,-2.47 4,0 6.1,4.34 6.1,5.33 0,0.45 -0.5,0.45 -0.6,0.45 -0.4,0 -0.5,-0.17 -0.6,-0.6 -0.8,-2.4 -2.8,-4.21 -4.8,-4.21 -1.4,0 -2.1,0.93 -2.1,2.26 0,0.91 0.8,4.08 1.8,7.95 0.7,2.68 2.3,3.55 3.4,3.55 0.1,0 1.1,0 1.9,-0.48 -1.1,-0.32 -1.5,-1.3 -1.5,-1.92 0,-0.77 0.5,-1.29 1.3,-1.29 0.8,0 2,0.66 2,2.13 0,1.95 -2.2,2.53 -3.6,2.53 -1.8,0 -3.2,-1.14 -3.9,-2.47 -0.7,1.44 -2.3,2.47 -4.2,2.47 -3.9,0 -6.1,-4.28 -6.1,-5.33 0,-0.45 0.5,-0.45 0.5,-0.45 0.5,0 0.5,0.14 0.7,0.59 0.9,2.72 3.1,4.22 4.8,4.22 1.1,0 2.1,-0.62 2.1,-2.3 0,-0.7 -0.5,-2.43 -0.8,-3.62 z"
             inkscape:connector-curvature="0"
             style="fill:#000000;stroke-width:0" /><path
             id="path1731"
             d="m 1247.5,340.42 h -1.2 c -0.1,-0.76 -0.5,-2.83 -0.9,-3.17 -0.3,-0.2 -3,-0.2 -3.5,-0.2 h -6.4 c 3.7,3.23 4.9,4.2 7,5.84 2.6,2.06 5,4.22 5,7.53 0,4.22 -3.7,6.8 -8.2,6.8 -4.3,0 -7.2,-3.03 -7.2,-6.24 0,-1.78 1.5,-1.95 1.8,-1.95 0.9,0 1.9,0.59 1.9,1.85 0,0.62 -0.3,1.84 -2.1,1.84 1.1,2.47 3.5,3.23 5.1,3.23 3.5,0 5.3,-2.7 5.3,-5.53 0,-3.03 -2.2,-5.44 -3.3,-6.69 l -8.4,-8.29 c -0.3,-0.32 -0.3,-0.39 -0.3,-1.36 h 14.3 z"
             inkscape:connector-curvature="0"
             style="fill:#000000;stroke-width:0" /><path
             id="path1733"
             d="m 1251.7,357.88 v -1.26 h 0.8 c 2.7,0 2.8,-0.34 2.8,-1.57 v -18.14 c 0,-1.19 -0.1,-1.58 -2.8,-1.58 h -0.8 v -1.25 h 13.7 l -0.9,1.25 h -4.4 c -1.6,0 -1.6,0.28 -1.6,1.36 v 18.58 c 0,1.07 0,1.35 1.6,1.35 h 4.4 c 2.9,0 5.5,-1.21 7.1,-3.28 1.4,-1.87 2,-4.53 2,-7.56 0,-4.03 -1,-6.12 -2.3,-7.59 -1.5,-1.78 -4,-2.86 -6.8,-2.86 l 0.9,-1.25 c 6.4,0 11.8,5.15 11.8,11.7 0,6.63 -5.3,12.1 -11.8,12.1 z"
             inkscape:connector-curvature="0"
             style="fill:#000000;stroke-width:0" /></g>      </g>
      <g
         id="g1940"
         transform="matrix(0.6,0,0,0.6,212.51439,45.586828)">
        <g
           word-spacing="normal"
           letter-spacing="normal"
           font-size-adjust="none"
           font-stretch="normal"
           font-weight="normal"
           font-variant="normal"
           font-style="normal"
           stroke-miterlimit="10.433"
           xml:space="preserve"
           transform="matrix(0.3,0,0,-0.3,-52.5,222.75)"
           id="g1938"
           style="font-style:normal;font-variant:normal;font-weight:normal;font-stretch:normal;letter-spacing:normal;word-spacing:normal;text-anchor:start;fill:none;fill-opacity:1;fill-rule:evenodd;stroke:#000000;stroke-linecap:butt;stroke-linejoin:miter;stroke-miterlimit:10.43299961;stroke-dasharray:none;stroke-dashoffset:0;stroke-opacity:1"><path
             id="path1918"
             d="m 1121.3,350.33 -0.1,-0.18 v -0.17 l -0.1,-0.16 v -0.15 -0.14 l -0.1,-0.14 v -0.13 l -0.1,-0.12 v -0.11 l -0.1,-0.11 -0.1,-0.1 v -0.09 l -0.1,-0.08 -0.1,-0.08 -0.1,-0.08 -0.1,-0.06 -0.1,-0.06 -0.1,-0.06 -0.2,-0.05 -0.1,-0.05 -0.2,-0.04 -0.1,-0.01 -0.1,-0.02 v -0.02 l -0.1,-0.01 -0.1,-0.02 -0.2,-0.01 -0.1,-0.01 -0.1,-0.01 -0.1,-0.01 -0.1,-0.01 -0.1,-0.01 -0.2,-0.01 -0.1,-0.01 h -0.1 l -0.2,-0.01 h -0.1 -0.2 l -0.2,-0.01 h -0.1 -0.2 -0.2 -0.1 c -0.9,0 -1.4,0 -1.4,-0.95 0,-0.6 0.4,-0.6 1.4,-0.6 h 16.4 l -0.9,1.55 h -5.6 c -0.7,0 -0.8,0 -1.1,0.05 -0.5,0.04 -0.6,0.09 -0.6,0.5 0,0.14 0,0.25 0.2,1.14 l 6.9,27.36 c 0.4,1.73 0.5,1.89 2.6,1.89 h 5.4 c 4.8,0 9,-2.64 9,-9.22 0,-2.44 -1,-10.61 -5.3,-16.1 -1.4,-1.84 -5.3,-5.62 -11.5,-5.62 l 0.9,-1.55 c 10.4,0 20.2,10.52 20.2,21.42 0,7.03 -4.2,12.61 -11.7,12.61 H 1125 c -1,0 -1.5,0 -1.5,-0.95 0,-0.59 0.4,-0.59 1.4,-0.59 0.7,0 1.6,-0.05 2.2,-0.1 0.8,-0.11 1.1,-0.25 1.1,-0.79 0,-0.21 -0.1,-0.36 -0.3,-0.96 z"
             inkscape:connector-curvature="0"
             style="fill:#000000;stroke-width:0" /><path
             id="path1920"
             d="m 1161.9,370.02 0.2,0.17 0.2,0.17 0.1,0.16 0.2,0.17 0.2,0.17 0.1,0.09 0.1,0.1 0.1,0.09 0.1,0.1 0.1,0.1 0.1,0.11 0.1,0.11 0.2,0.11 0.1,0.12 0.1,0.13 0.2,0.13 0.2,0.14 0.1,0.14 0.2,0.15 0.2,0.15 0.2,0.17 0.2,0.17 0.2,0.18 0.2,0.19 0.3,0.2 0.3,0.2 0.2,0.22 c 0.8,0.59 3.4,2.69 4.4,3.66 2.1,2.09 3.4,3.87 3.4,4.29 0,0.41 -0.4,0.41 -0.6,0.41 -0.3,0 -0.4,-0.06 -0.5,-0.34 -1.1,-1.6 -1.9,-2.13 -2.7,-2.13 -0.4,0 -1,0.03 -2,1.05 -1.2,1.19 -1.9,1.42 -2.7,1.42 -2.8,0 -4.7,-3.03 -4.7,-4.06 0,-0.33 0.3,-0.42 0.6,-0.42 0.4,0 0.5,0.09 0.6,0.48 0.5,1.22 2.5,1.3 3,1.3 0.9,0 1.7,-0.22 2.2,-0.33 2,-0.41 2.2,-0.41 3.1,-0.41 -0.9,-0.95 -1.6,-1.58 -4.9,-4.22 -2.7,-2.15 -3.6,-3.03 -4.3,-3.73 -2.1,-2.05 -3.1,-3.58 -3.1,-3.91 0,-0.4 0.5,-0.4 0.6,-0.4 0.3,0 0.4,0.06 0.6,0.34 0.9,1.33 2,2.13 3.2,2.13 0.4,0 0.9,-0.04 1.9,-0.91 1.1,-1.05 1.7,-1.56 2.9,-1.56 3.7,0 6,4.22 6,5.39 0,0.42 -0.3,0.45 -0.6,0.45 -0.4,0 -0.5,-0.17 -0.6,-0.55 -0.6,-1.75 -2.7,-2.57 -4.4,-2.57 -0.8,0 -1.7,0.17 -2.6,0.37 -1.6,0.34 -1.8,0.34 -2.5,0.34 0,0 -0.6,0 -0.8,-0.03 z"
             inkscape:connector-curvature="0"
             style="fill:#000000;stroke-width:0" /><path
             id="path1922"
             d="m 1172.2,340.42 h -1.1 c -0.2,-0.76 -0.5,-2.83 -1,-3.17 -0.2,-0.2 -2.9,-0.2 -3.4,-0.2 h -6.4 c 3.6,3.23 4.9,4.2 6.9,5.84 2.6,2.06 5,4.22 5,7.53 0,4.22 -3.6,6.8 -8.1,6.8 -4.3,0 -7.3,-3.03 -7.3,-6.24 0,-1.78 1.5,-1.95 1.9,-1.95 0.8,0 1.8,0.59 1.8,1.85 0,0.62 -0.2,1.84 -2,1.84 1.1,2.47 3.4,3.23 5.1,3.23 3.5,0 5.3,-2.7 5.3,-5.53 0,-3.03 -2.2,-5.44 -3.3,-6.69 l -8.4,-8.29 c -0.4,-0.32 -0.4,-0.39 -0.4,-1.36 h 14.4 z"
             inkscape:connector-curvature="0"
             style="fill:#000000;stroke-width:0" /><path
             id="path1924"
             d="m 1176.4,357.88 v -1.26 h 0.9 c 2.7,0 2.8,-0.34 2.8,-1.57 v -18.14 c 0,-1.19 -0.1,-1.58 -2.8,-1.58 h -0.9 v -1.25 h 13.8 l -1,1.25 h -4.3 c -1.7,0 -1.7,0.28 -1.7,1.36 v 18.58 c 0,1.07 0,1.35 1.7,1.35 h 4.3 c 3,0 5.6,-1.21 7.2,-3.28 1.4,-1.87 1.9,-4.53 1.9,-7.56 0,-4.03 -1,-6.12 -2.2,-7.59 -1.5,-1.78 -4.1,-2.86 -6.9,-2.86 l 1,-1.25 c 6.4,0 11.7,5.15 11.7,11.7 0,6.63 -5.2,12.1 -11.7,12.1 z"
             inkscape:connector-curvature="0"
             style="fill:#000000;stroke-width:0" /><path
             id="path1926"
             d="m 1255,362.74 h 0.1 0.2 0.1 l 0.1,0.01 h 0.1 v 0.01 l 0.1,0.01 0.1,0.01 0.1,0.01 v 0.01 l 0.1,0.02 0.1,0.02 v 0.02 l 0.1,0.03 v 0.02 l 0.1,0.03 v 0.04 l 0.1,0.04 v 0.04 l 0.1,0.04 v 0.05 0.03 l 0.1,0.03 v 0.03 0.03 0.03 0.03 0.03 0.04 0.03 l 0.1,0.04 v 0.04 0.04 0.04 0.04 0.05 0.04 c 0,1 -1,1 -1.7,1 h -29.8 c -0.7,0 -1.6,0 -1.6,-1 0,-0.98 0.9,-0.98 1.6,-0.98 z"
             inkscape:connector-curvature="0"
             style="fill:#000000;stroke-width:0" /><path
             id="path1928"
             d="m 1255,353.07 h 0.1 0.1 0.1 0.1 l 0.1,0.01 h 0.1 l 0.1,0.01 v 0.01 l 0.1,0.01 0.1,0.01 v 0.01 l 0.1,0.02 0.1,0.02 v 0.02 l 0.1,0.03 v 0.02 l 0.1,0.04 v 0.03 l 0.1,0.04 v 0.04 l 0.1,0.05 v 0.02 0.03 0.02 l 0.1,0.03 v 0.03 0.03 0.03 0.04 0.03 0.04 0.03 l 0.1,0.04 v 0.04 0.04 0.04 0.05 0.04 0.05 c 0,1 -1,1 -1.7,1 h -29.8 c -0.7,0 -1.6,0 -1.6,-1 0,-1 0.9,-1 1.6,-1 z"
             inkscape:connector-curvature="0"
             style="fill:#000000;stroke-width:0" /><path
             id="path1930"
             d="m 1281.2,350.33 v -0.18 l -0.1,-0.17 v -0.16 -0.15 l -0.1,-0.14 v -0.14 l -0.1,-0.13 v -0.12 l -0.1,-0.11 v -0.11 l -0.1,-0.1 -0.1,-0.09 -0.1,-0.08 v -0.08 l -0.1,-0.08 -0.1,-0.06 -0.2,-0.06 -0.1,-0.06 -0.1,-0.05 -0.2,-0.05 -0.1,-0.04 -0.1,-0.01 -0.1,-0.02 -0.1,-0.02 -0.1,-0.01 -0.1,-0.02 -0.1,-0.01 -0.1,-0.01 -0.1,-0.01 -0.1,-0.01 -0.2,-0.01 -0.1,-0.01 -0.1,-0.01 -0.1,-0.01 h -0.2 l -0.1,-0.01 h -0.2 -0.1 l -0.2,-0.01 h -0.2 -0.1 -0.2 -0.2 c -0.8,0 -1.4,0 -1.4,-0.95 0,-0.6 0.5,-0.6 1.4,-0.6 h 16.5 l -0.9,1.55 h -5.6 c -0.7,0 -0.8,0 -1.1,0.05 -0.5,0.04 -0.7,0.09 -0.7,0.5 0,0.14 0,0.25 0.3,1.14 l 6.8,27.36 c 0.4,1.73 0.6,1.89 2.7,1.89 h 5.3 c 4.9,0 9,-2.64 9,-9.22 0,-2.44 -1,-10.61 -5.2,-16.1 -1.4,-1.84 -5.4,-5.62 -11.5,-5.62 l 0.9,-1.55 c 10.4,0 20.2,10.52 20.2,21.42 0,7.03 -4.3,12.61 -11.7,12.61 h -16.8 c -0.9,0 -1.5,0 -1.5,-0.95 0,-0.59 0.5,-0.59 1.5,-0.59 0.6,0 1.5,-0.05 2.1,-0.1 0.8,-0.11 1.1,-0.25 1.1,-0.79 0,-0.21 0,-0.36 -0.2,-0.96 z"
             inkscape:connector-curvature="0"
             style="fill:#000000;stroke-width:0" /><path
             id="path1932"
             d="m 1321.9,370.02 0.2,0.17 0.1,0.17 0.2,0.16 0.2,0.17 0.1,0.17 0.1,0.09 0.1,0.1 0.1,0.09 0.1,0.1 0.2,0.1 0.1,0.11 0.1,0.11 0.1,0.11 0.2,0.12 0.1,0.13 0.2,0.13 0.1,0.14 0.2,0.14 0.2,0.15 0.2,0.15 0.1,0.17 0.3,0.17 0.2,0.18 0.2,0.19 0.3,0.2 0.2,0.2 0.3,0.22 c 0.7,0.59 3.3,2.69 4.3,3.66 2.2,2.09 3.5,3.87 3.5,4.29 0,0.41 -0.5,0.41 -0.6,0.41 -0.3,0 -0.4,-0.06 -0.6,-0.34 -1.1,-1.6 -1.8,-2.13 -2.6,-2.13 -0.5,0 -1,0.03 -2,1.05 -1.2,1.19 -2,1.42 -2.8,1.42 -2.8,0 -4.7,-3.03 -4.7,-4.06 0,-0.33 0.4,-0.42 0.6,-0.42 0.5,0 0.5,0.09 0.7,0.48 0.5,1.22 2.5,1.3 3,1.3 0.8,0 1.7,-0.22 2.2,-0.33 1.9,-0.41 2.2,-0.41 3,-0.41 -0.9,-0.95 -1.5,-1.58 -4.8,-4.22 -2.7,-2.15 -3.7,-3.03 -4.3,-3.73 -2.1,-2.05 -3.1,-3.58 -3.1,-3.91 0,-0.4 0.4,-0.4 0.6,-0.4 0.3,0 0.4,0.06 0.5,0.34 1,1.33 2.1,2.13 3.3,2.13 0.4,0 0.9,-0.04 1.8,-0.91 1.1,-1.05 1.8,-1.56 2.9,-1.56 3.8,0 6.1,4.22 6.1,5.39 0,0.42 -0.4,0.45 -0.6,0.45 -0.4,0 -0.5,-0.17 -0.6,-0.55 -0.7,-1.75 -2.7,-2.57 -4.5,-2.57 -0.8,0 -1.6,0.17 -2.5,0.37 -1.6,0.34 -1.9,0.34 -2.5,0.34 -0.1,0 -0.6,0 -0.8,-0.03 z"
             inkscape:connector-curvature="0"
             style="fill:#000000;stroke-width:0" /><path
             id="path1934"
             d="m 1332.2,340.42 h -1.2 c -0.1,-0.76 -0.4,-2.83 -0.9,-3.17 -0.3,-0.2 -2.9,-0.2 -3.4,-0.2 h -6.5 c 3.7,3.23 4.9,4.2 7,5.84 2.6,2.06 5,4.22 5,7.53 0,4.22 -3.7,6.8 -8.2,6.8 -4.3,0 -7.2,-3.03 -7.2,-6.24 0,-1.78 1.5,-1.95 1.9,-1.95 0.8,0 1.8,0.59 1.8,1.85 0,0.62 -0.3,1.84 -2.1,1.84 1.1,2.47 3.5,3.23 5.1,3.23 3.5,0 5.3,-2.7 5.3,-5.53 0,-3.03 -2.1,-5.44 -3.3,-6.69 l -8.3,-8.29 c -0.4,-0.32 -0.4,-0.39 -0.4,-1.36 h 14.4 z"
             inkscape:connector-curvature="0"
             style="fill:#000000;stroke-width:0" /><path
             id="path1936"
             d="m 1336.4,357.88 v -1.26 h 0.9 c 2.6,0 2.7,-0.34 2.7,-1.57 v -18.14 c 0,-1.19 -0.1,-1.58 -2.7,-1.58 h -0.9 v -1.25 h 13.8 l -1,1.25 h -4.4 c -1.6,0 -1.6,0.28 -1.6,1.36 v 18.58 c 0,1.07 0,1.35 1.6,1.35 h 4.4 c 2.9,0 5.5,-1.21 7.1,-3.28 1.4,-1.87 2,-4.53 2,-7.56 0,-4.03 -1,-6.12 -2.2,-7.59 -1.6,-1.78 -4.1,-2.86 -6.9,-2.86 l 1,-1.25 c 6.4,0 11.7,5.15 11.7,11.7 0,6.63 -5.3,12.1 -11.7,12.1 z"
             inkscape:connector-curvature="0"
             style="fill:#000000;stroke-width:0" /></g>      </g>
      <g
         id="g2056"
         transform="matrix(0.6,0,0,0.6,118.32261,45.586828)">
        <g
           word-spacing="normal"
           letter-spacing="normal"
           font-size-adjust="none"
           font-stretch="normal"
           font-weight="normal"
           font-variant="normal"
           font-style="normal"
           stroke-miterlimit="10.433"
           xml:space="preserve"
           transform="matrix(0.3,0,0,-0.3,-52.5,222.75)"
           id="g2054"
           style="font-style:normal;font-variant:normal;font-weight:normal;font-stretch:normal;letter-spacing:normal;word-spacing:normal;text-anchor:start;fill:none;fill-opacity:1;fill-rule:evenodd;stroke:#000000;stroke-linecap:butt;stroke-linejoin:miter;stroke-miterlimit:10.43299961;stroke-dasharray:none;stroke-dashoffset:0;stroke-opacity:1"><path
             id="path2034"
             d="m 1153.1,358.05 v 0.02 0.03 0.05 0.05 l 0.1,0.05 v 0.05 0.05 0.06 0.05 0.02 l 0.1,0.02 v 0.03 0.02 0.02 0.02 0.02 0.02 0.02 0.02 0.02 0.01 0.02 0.01 0.01 0.01 c 0,0.05 0,0.55 -0.6,0.55 -0.4,0 -0.5,-0.3 -0.6,-0.61 -3.3,-7.37 -5.1,-10.7 -13.6,-10.7 h -7.3 c -0.7,0 -0.8,0 -1.1,0.05 -0.5,0.04 -0.6,0.09 -0.6,0.5 0,0.14 0,0.25 0.2,1.14 l 3.4,13.61 h 4.9 c 4.3,0 4.3,-1.05 4.3,-2.3 0,-0.35 0,-0.95 -0.4,-2.44 -0.1,-0.25 -0.1,-0.41 -0.1,-0.55 0,-0.25 0.2,-0.54 0.6,-0.54 0.4,0 0.6,0.25 0.8,0.98 l 2.8,11.67 c 0,0.3 -0.2,0.55 -0.6,0.55 -0.4,0 -0.6,-0.3 -0.7,-0.91 -1,-3.78 -1.9,-4.92 -6.5,-4.92 h -4.7 l 3,12 c 0.4,1.75 0.5,1.94 2.7,1.94 h 7 c 6.1,0 7.6,-1.44 7.6,-5.53 0,-1.19 0,-1.28 -0.2,-2.64 0,-0.3 -0.1,-0.64 -0.1,-0.89 0,-0.25 0.2,-0.6 0.6,-0.6 0.6,0 0.6,0.3 0.7,1.25 l 1,8.61 c 0.2,1.35 -0.1,1.35 -1.3,1.35 h -25.2 c -1,0 -1.5,0 -1.5,-1 0,-0.55 0.5,-0.55 1.4,-0.55 1.9,0 3.2,0 3.2,-0.89 0,-0.2 0,-0.3 -0.2,-1.2 l -6.6,-26.35 c -0.5,-1.95 -0.6,-2.34 -4.5,-2.34 -0.9,0 -1.4,0 -1.4,-0.95 0,-0.6 0.4,-0.6 1.4,-0.6 h 25.8 c 1.2,0 1.2,0.05 1.6,0.85 z"
             inkscape:connector-curvature="0"
             style="fill:#000000;stroke-width:0" /><path
             id="path2036"
             d="m 1166.1,370.65 -0.1,-0.11 v -0.12 -0.12 l -0.1,-0.12 v -0.12 l -0.1,-0.13 -0.1,-0.13 v -0.12 l -0.1,-0.13 -0.1,-0.13 -0.1,-0.13 v -0.13 l -0.1,-0.12 -0.1,-0.12 -0.1,-0.12 -0.1,-0.12 -0.1,-0.12 -0.1,-0.11 -0.2,-0.1 -0.1,-0.1 -0.1,-0.1 -0.1,-0.09 -0.2,-0.08 -0.1,-0.08 -0.1,-0.07 -0.2,-0.06 -0.1,-0.06 -0.2,-0.04 -0.1,-0.04 -0.2,-0.02 -0.1,-0.02 h -0.2 c -0.1,0 -1.1,0 -1.9,0.48 1.4,0.45 1.5,1.72 1.5,1.92 0,0.77 -0.6,1.3 -1.3,1.3 -1,0 -2,-0.84 -2,-2.14 0,-1.74 1.9,-2.53 3.6,-2.53 1.6,0 3.1,1 3.9,2.47 0.9,-1.85 2.8,-2.47 4.2,-2.47 4,0 6.1,4.34 6.1,5.33 0,0.45 -0.4,0.45 -0.6,0.45 -0.4,0 -0.5,-0.17 -0.6,-0.6 -0.7,-2.4 -2.8,-4.21 -4.8,-4.21 -1.4,0 -2.1,0.93 -2.1,2.26 0,0.91 0.8,4.08 1.8,7.95 0.7,2.68 2.3,3.55 3.4,3.55 0.1,0 1.2,0 1.9,-0.48 -1.1,-0.32 -1.5,-1.3 -1.5,-1.92 0,-0.77 0.6,-1.29 1.4,-1.29 0.8,0 1.9,0.66 1.9,2.13 0,1.95 -2.2,2.53 -3.6,2.53 -1.8,0 -3.2,-1.14 -3.9,-2.47 -0.6,1.44 -2.2,2.47 -4.2,2.47 -3.9,0 -6.1,-4.28 -6.1,-5.33 0,-0.45 0.5,-0.45 0.6,-0.45 0.4,0 0.4,0.14 0.6,0.59 0.9,2.72 3.1,4.22 4.8,4.22 1.2,0 2.1,-0.62 2.1,-2.3 0,-0.7 -0.4,-2.43 -0.7,-3.62 z"
             inkscape:connector-curvature="0"
             style="fill:#000000;stroke-width:0" /><path
             id="path2038"
             d="m 1172.1,340.42 h -1.2 c -0.1,-0.76 -0.4,-2.83 -0.9,-3.17 -0.2,-0.2 -2.9,-0.2 -3.4,-0.2 h -6.4 c 3.6,3.23 4.8,4.2 6.9,5.84 2.6,2.06 5,4.22 5,7.53 0,4.22 -3.7,6.8 -8.1,6.8 -4.4,0 -7.3,-3.03 -7.3,-6.24 0,-1.78 1.5,-1.95 1.9,-1.95 0.8,0 1.8,0.59 1.8,1.85 0,0.62 -0.2,1.84 -2.1,1.84 1.1,2.47 3.5,3.23 5.1,3.23 3.5,0 5.3,-2.7 5.3,-5.53 0,-3.03 -2.1,-5.44 -3.2,-6.69 l -8.4,-8.29 c -0.4,-0.32 -0.4,-0.39 -0.4,-1.36 h 14.4 z"
             inkscape:connector-curvature="0"
             style="fill:#000000;stroke-width:0" /><path
             id="path2040"
             d="m 1176.3,357.88 v -1.26 h 0.9 c 2.7,0 2.7,-0.34 2.7,-1.57 v -18.14 c 0,-1.19 0,-1.58 -2.7,-1.58 h -0.9 v -1.25 h 13.8 l -1,1.25 h -4.3 c -1.7,0 -1.7,0.28 -1.7,1.36 v 18.58 c 0,1.07 0,1.35 1.7,1.35 h 4.3 c 3,0 5.5,-1.21 7.1,-3.28 1.5,-1.87 2,-4.53 2,-7.56 0,-4.03 -1,-6.12 -2.2,-7.59 -1.6,-1.78 -4.1,-2.86 -6.9,-2.86 l 1,-1.25 c 6.4,0 11.7,5.15 11.7,11.7 0,6.63 -5.2,12.1 -11.7,12.1 z"
             inkscape:connector-curvature="0"
             style="fill:#000000;stroke-width:0" /><path
             id="path2042"
             d="m 1255,362.74 h 0.1 0.2 0.1 l 0.1,0.01 h 0.1 v 0.01 l 0.1,0.01 0.1,0.01 0.1,0.01 v 0.01 l 0.1,0.02 0.1,0.02 v 0.02 l 0.1,0.03 v 0.02 l 0.1,0.03 v 0.04 l 0.1,0.04 v 0.04 l 0.1,0.04 v 0.05 0.03 l 0.1,0.03 v 0.03 0.03 0.03 0.03 0.03 0.04 0.03 l 0.1,0.04 v 0.04 0.04 0.04 0.04 0.05 0.04 c 0,1 -1,1 -1.7,1 h -29.8 c -0.7,0 -1.6,0 -1.6,-1 0,-0.98 0.9,-0.98 1.6,-0.98 z"
             inkscape:connector-curvature="0"
             style="fill:#000000;stroke-width:0" /><path
             id="path2044"
             d="m 1255,353.07 h 0.1 0.1 0.1 0.1 l 0.1,0.01 h 0.1 l 0.1,0.01 v 0.01 l 0.1,0.01 0.1,0.01 v 0.01 l 0.1,0.02 0.1,0.02 v 0.02 l 0.1,0.03 v 0.02 l 0.1,0.04 v 0.03 l 0.1,0.04 v 0.04 l 0.1,0.05 v 0.02 0.03 0.02 l 0.1,0.03 v 0.03 0.03 0.03 0.04 0.03 0.04 0.03 l 0.1,0.04 v 0.04 0.04 0.04 0.05 0.04 0.05 c 0,1 -1,1 -1.7,1 h -29.8 c -0.7,0 -1.6,0 -1.6,-1 0,-1 0.9,-1 1.6,-1 z"
             inkscape:connector-curvature="0"
             style="fill:#000000;stroke-width:0" /><path
             id="path2046"
             d="m 1308.6,358.05 v 0.02 0.03 0.05 l 0.1,0.05 v 0.05 0.05 0.05 0.06 0.05 l 0.1,0.02 v 0.02 0.03 0.02 0.02 0.02 0.02 0.02 0.02 0.02 0.02 0.01 0.02 0.01 0.01 0.01 c 0,0.05 0,0.55 -0.6,0.55 -0.4,0 -0.5,-0.3 -0.6,-0.61 -3.3,-7.37 -5.1,-10.7 -13.6,-10.7 h -7.3 c -0.7,0 -0.8,0 -1.1,0.05 -0.5,0.04 -0.6,0.09 -0.6,0.5 0,0.14 0,0.25 0.2,1.14 l 3.4,13.61 h 5 c 4.2,0 4.2,-1.05 4.2,-2.3 0,-0.35 0,-0.95 -0.4,-2.44 -0.1,-0.25 -0.1,-0.41 -0.1,-0.55 0,-0.25 0.2,-0.54 0.6,-0.54 0.4,0 0.6,0.25 0.8,0.98 l 2.8,11.67 c 0,0.3 -0.2,0.55 -0.6,0.55 -0.4,0 -0.5,-0.3 -0.7,-0.91 -1,-3.78 -1.9,-4.92 -6.5,-4.92 h -4.7 l 3,12 c 0.4,1.75 0.5,1.94 2.7,1.94 h 7 c 6.1,0 7.6,-1.44 7.6,-5.53 0,-1.19 0,-1.28 -0.2,-2.64 0,-0.3 -0.1,-0.64 -0.1,-0.89 0,-0.25 0.2,-0.6 0.6,-0.6 0.6,0 0.6,0.3 0.7,1.25 l 1,8.61 c 0.2,1.35 -0.1,1.35 -1.3,1.35 h -25.2 c -1,0 -1.5,0 -1.5,-1 0,-0.55 0.5,-0.55 1.4,-0.55 1.9,0 3.3,0 3.3,-0.89 0,-0.2 0,-0.3 -0.3,-1.2 l -6.6,-26.35 c -0.5,-1.95 -0.6,-2.34 -4.5,-2.34 -0.8,0 -1.4,0 -1.4,-0.95 0,-0.6 0.5,-0.6 1.4,-0.6 h 25.9 c 1.1,0 1.2,0.05 1.5,0.85 z"
             inkscape:connector-curvature="0"
             style="fill:#000000;stroke-width:0" /><path
             id="path2048"
             d="m 1321.6,370.65 v -0.11 l -0.1,-0.12 v -0.12 l -0.1,-0.12 v -0.12 l -0.1,-0.13 v -0.13 l -0.1,-0.12 -0.1,-0.13 -0.1,-0.13 v -0.13 l -0.1,-0.13 -0.1,-0.12 -0.1,-0.12 -0.1,-0.12 -0.1,-0.12 -0.1,-0.12 -0.1,-0.11 -0.1,-0.1 -0.2,-0.1 -0.1,-0.1 -0.1,-0.09 -0.1,-0.08 -0.2,-0.08 -0.1,-0.07 -0.1,-0.06 -0.2,-0.06 -0.1,-0.04 -0.2,-0.04 -0.1,-0.02 -0.2,-0.02 h -0.2 c -0.1,0 -1.1,0 -1.9,0.48 1.5,0.45 1.6,1.72 1.6,1.92 0,0.77 -0.6,1.3 -1.4,1.3 -1,0 -2,-0.84 -2,-2.14 0,-1.74 2,-2.53 3.6,-2.53 1.7,0 3.1,1 4,2.47 0.8,-1.85 2.7,-2.47 4.1,-2.47 4,0 6.1,4.34 6.1,5.33 0,0.45 -0.4,0.45 -0.5,0.45 -0.5,0 -0.5,-0.17 -0.7,-0.6 -0.7,-2.4 -2.8,-4.21 -4.8,-4.21 -1.3,0 -2.1,0.93 -2.1,2.26 0,0.91 0.9,4.08 1.8,7.95 0.7,2.68 2.3,3.55 3.5,3.55 0,0 1.1,0 1.8,-0.48 -1.1,-0.32 -1.5,-1.3 -1.5,-1.92 0,-0.77 0.6,-1.29 1.4,-1.29 0.8,0 1.9,0.66 1.9,2.13 0,1.95 -2.2,2.53 -3.6,2.53 -1.7,0 -3.1,-1.14 -3.9,-2.47 -0.6,1.44 -2.2,2.47 -4.2,2.47 -3.9,0 -6.1,-4.28 -6.1,-5.33 0,-0.45 0.5,-0.45 0.6,-0.45 0.4,0 0.5,0.14 0.7,0.59 0.8,2.72 3,4.22 4.7,4.22 1.2,0 2.1,-0.62 2.1,-2.3 0,-0.7 -0.4,-2.43 -0.7,-3.62 z"
             inkscape:connector-curvature="0"
             style="fill:#000000;stroke-width:0" /><path
             id="path2050"
             d="m 1327.6,340.42 h -1.2 c -0.1,-0.76 -0.4,-2.83 -0.9,-3.17 -0.2,-0.2 -2.9,-0.2 -3.4,-0.2 h -6.4 c 3.6,3.23 4.9,4.2 7,5.84 2.5,2.06 4.9,4.22 4.9,7.53 0,4.22 -3.7,6.8 -8.1,6.8 -4.3,0 -7.3,-3.03 -7.3,-6.24 0,-1.78 1.5,-1.95 1.9,-1.95 0.8,0 1.8,0.59 1.8,1.85 0,0.62 -0.2,1.84 -2,1.84 1,2.47 3.4,3.23 5.1,3.23 3.4,0 5.3,-2.7 5.3,-5.53 0,-3.03 -2.2,-5.44 -3.3,-6.69 l -8.4,-8.29 c -0.4,-0.32 -0.4,-0.39 -0.4,-1.36 h 14.4 z"
             inkscape:connector-curvature="0"
             style="fill:#000000;stroke-width:0" /><path
             id="path2052"
             d="m 1331.8,357.88 v -1.26 h 0.9 c 2.7,0 2.7,-0.34 2.7,-1.57 v -18.14 c 0,-1.19 0,-1.58 -2.7,-1.58 h -0.9 v -1.25 h 13.8 l -0.9,1.25 h -4.4 c -1.6,0 -1.7,0.28 -1.7,1.36 v 18.58 c 0,1.07 0.1,1.35 1.7,1.35 h 4.3 c 3,0 5.6,-1.21 7.2,-3.28 1.4,-1.87 1.9,-4.53 1.9,-7.56 0,-4.03 -1,-6.12 -2.2,-7.59 -1.6,-1.78 -4.1,-2.86 -6.8,-2.86 l 0.9,-1.25 c 6.4,0 11.7,5.15 11.7,11.7 0,6.63 -5.2,12.1 -11.7,12.1 z"
             inkscape:connector-curvature="0"
             style="fill:#000000;stroke-width:0" /></g>      </g>
      <g
         id="g1367"
         transform="translate(317.50014,-13.758332)">
        <g
           word-spacing="normal"
           letter-spacing="normal"
           font-size-adjust="none"
           font-stretch="normal"
           font-weight="normal"
           font-variant="normal"
           font-style="normal"
           stroke-miterlimit="10.433"
           xml:space="preserve"
           transform="matrix(0.08875577,0,0,-0.08875577,-15.532259,126.98111)"
           id="g1365"
           style="font-style:normal;font-variant:normal;font-weight:normal;font-stretch:normal;letter-spacing:normal;word-spacing:normal;text-anchor:start;fill:none;fill-opacity:1;fill-rule:evenodd;stroke:#000000;stroke-linecap:butt;stroke-linejoin:miter;stroke-miterlimit:10.43299961;stroke-dasharray:none;stroke-dashoffset:0;stroke-opacity:1"><path
             id="path1339"
             d="m 1097.9,362.19 0.2,1.28 3.3,13.57 c 0.5,1.73 0.6,1.89 2.7,1.89 h 4.8 c 4.2,0 6.8,-1.35 6.8,-4.79 0,-1.95 -1,-6.23 -2.9,-8.03 -2.5,-2.23 -5.5,-2.64 -7.7,-2.64 h -7 l -0.2,-1.28 h 8.4 c 7.1,0 14,5.17 14,10.75 0,3.85 -3.3,7.53 -9.8,7.53 h -16.1 c -1,0 -1.5,0 -1.5,-0.95 0,-0.59 0.4,-0.59 1.4,-0.59 0.7,0 1.6,-0.05 2.2,-0.1 0.8,-0.11 1.1,-0.25 1.1,-0.79 0,-0.21 -0.1,-0.36 -0.2,-0.96 l -6.7,-26.75 c -0.5,-1.95 -0.6,-2.34 -4.5,-2.34 -0.9,0 -1.4,0 -1.4,-0.95 0,-0.6 0.6,-0.6 0.7,-0.6 1.4,0 4.9,0.16 6.3,0.16 1.1,0 2.2,-0.06 3.2,-0.06 1.1,0 2.2,-0.1 3.3,-0.1 0.3,0 0.9,0 0.9,1 0,0.55 -0.4,0.55 -1.3,0.55 -1.9,0 -3.3,0 -3.3,0.89 0,0.3 0.1,0.55 0.2,0.84 z"
             inkscape:connector-curvature="0"
             style="fill:#000000;stroke-width:0" /><path
             id="path1341"
             d="m 1127.6,370.02 0.2,0.17 0.2,0.17 0.1,0.16 0.2,0.17 0.2,0.17 0.1,0.09 0.1,0.1 0.1,0.09 0.1,0.1 0.1,0.1 0.1,0.11 0.1,0.11 0.1,0.11 0.2,0.12 0.1,0.13 0.2,0.13 0.1,0.14 0.2,0.14 0.2,0.15 0.2,0.15 0.2,0.17 0.2,0.17 0.2,0.18 0.2,0.19 0.3,0.2 0.2,0.2 0.3,0.22 c 0.7,0.59 3.3,2.69 4.4,3.66 2.1,2.09 3.4,3.87 3.4,4.29 0,0.41 -0.4,0.41 -0.6,0.41 -0.3,0 -0.4,-0.06 -0.6,-0.34 -1,-1.6 -1.8,-2.13 -2.6,-2.13 -0.4,0 -1,0.03 -2,1.05 -1.2,1.19 -1.9,1.42 -2.8,1.42 -2.7,0 -4.6,-3.03 -4.6,-4.06 0,-0.33 0.3,-0.42 0.6,-0.42 0.4,0 0.5,0.09 0.6,0.48 0.5,1.22 2.5,1.3 3,1.3 0.8,0 1.7,-0.22 2.2,-0.33 1.9,-0.41 2.2,-0.41 3.1,-0.41 -1,-0.95 -1.6,-1.58 -4.9,-4.22 -2.7,-2.15 -3.6,-3.03 -4.3,-3.73 -2.1,-2.05 -3.1,-3.58 -3.1,-3.91 0,-0.4 0.4,-0.4 0.6,-0.4 0.3,0 0.4,0.06 0.6,0.34 0.9,1.33 2,2.13 3.2,2.13 0.4,0 0.9,-0.04 1.9,-0.91 1,-1.05 1.7,-1.56 2.9,-1.56 3.7,0 6,4.22 6,5.39 0,0.42 -0.4,0.45 -0.6,0.45 -0.4,0 -0.5,-0.17 -0.6,-0.55 -0.7,-1.75 -2.7,-2.57 -4.4,-2.57 -0.8,0 -1.7,0.17 -2.6,0.37 -1.6,0.34 -1.9,0.34 -2.5,0.34 -0.1,0 -0.6,0 -0.8,-0.03 z"
             inkscape:connector-curvature="0"
             style="fill:#000000;stroke-width:0" /><path
             id="path1343"
             d="m 1132.4,340.42 h -1.2 c -0.1,-0.76 -0.4,-2.83 -0.9,-3.17 -0.3,-0.2 -3,-0.2 -3.4,-0.2 h -6.5 c 3.7,3.23 4.9,4.2 7,5.84 2.6,2.06 5,4.22 5,7.53 0,4.22 -3.7,6.8 -8.2,6.8 -4.3,0 -7.2,-3.03 -7.2,-6.24 0,-1.78 1.5,-1.95 1.8,-1.95 0.9,0 1.9,0.59 1.9,1.85 0,0.62 -0.3,1.84 -2.1,1.84 1.1,2.47 3.5,3.23 5.1,3.23 3.5,0 5.3,-2.7 5.3,-5.53 0,-3.03 -2.1,-5.44 -3.3,-6.69 l -8.4,-8.29 c -0.3,-0.32 -0.3,-0.39 -0.3,-1.36 h 14.3 z"
             inkscape:connector-curvature="0"
             style="fill:#000000;stroke-width:0" /><path
             id="path1345"
             d="m 1136.6,357.88 v -1.26 h 0.9 c 2.6,0 2.7,-0.34 2.7,-1.57 v -18.14 c 0,-1.19 -0.1,-1.58 -2.7,-1.58 h -0.9 v -1.25 h 13.7 l -0.9,1.25 h -4.3 c -1.7,0 -1.7,0.28 -1.7,1.36 v 18.58 c 0,1.07 0,1.35 1.7,1.35 h 4.3 c 2.9,0 5.5,-1.21 7.1,-3.28 1.4,-1.87 2,-4.53 2,-7.56 0,-4.03 -1,-6.12 -2.2,-7.59 -1.6,-1.78 -4.1,-2.86 -6.9,-2.86 l 0.9,-1.25 c 6.5,0 11.8,5.15 11.8,11.7 0,6.63 -5.3,12.1 -11.8,12.1 z"
             inkscape:connector-curvature="0"
             style="fill:#000000;stroke-width:0" /><path
             id="path1347"
             d="m 1215.2,362.74 h 0.1 0.1 0.2 l 0.1,0.01 v 0 l 0.1,0.01 0.1,0.01 v 0.01 l 0.1,0.01 0.1,0.01 v 0.02 l 0.1,0.02 0.1,0.02 v 0.03 l 0.1,0.02 v 0.03 l 0.1,0.04 0.1,0.04 v 0.04 0.04 l 0.1,0.05 v 0.03 0.03 0.03 0.03 l 0.1,0.03 v 0.03 0.03 0.04 0.03 0.04 0.04 0.04 0.04 0.04 0.05 0.04 c 0,1 -0.9,1 -1.6,1 h -29.8 c -0.7,0 -1.7,0 -1.7,-1 0,-0.98 1,-0.98 1.7,-0.98 z"
             inkscape:connector-curvature="0"
             style="fill:#000000;stroke-width:0" /><path
             id="path1349"
             d="m 1215.2,353.07 h 0.1 v 0 h 0.2 0.1 l 0.1,0.01 v 0 l 0.1,0.01 0.1,0.01 0.1,0.01 v 0.01 l 0.1,0.01 0.1,0.02 v 0.02 l 0.1,0.02 v 0.03 l 0.1,0.02 0.1,0.04 v 0.03 l 0.1,0.04 v 0.04 0.05 l 0.1,0.02 v 0.03 0.02 0.03 0.03 0.03 l 0.1,0.03 v 0.04 0.03 0.04 0.03 0.04 0.04 0.04 0.04 0.05 0.04 0.05 c 0,1 -0.9,1 -1.6,1 h -29.8 c -0.7,0 -1.7,0 -1.7,-1 0,-1 1,-1 1.7,-1 z"
             inkscape:connector-curvature="0"
             style="fill:#000000;stroke-width:0" /><path
             id="path1351"
             d="m 1248.2,378.33 v 0.06 0.05 0.05 0.05 0.05 0.05 0.04 0.05 0.04 0.04 0.04 0.04 0.04 0.04 0.03 0.04 0.06 0.06 0.05 0.05 0.05 l -0.1,0.04 v 0.04 0.04 0.03 l -0.1,0.03 v 0.02 0.02 l -0.1,0.02 v 0.01 0.01 h -0.1 v 0.01 0.01 0 l -0.1,0.01 v 0 0.01 h -0.1 v 0 0.01 h -0.1 v 0 h -0.1 v 0.01 h -0.1 v 0 0 h -0.1 v 0 h -0.1 c -3.1,-3.19 -7.5,-3.19 -9.1,-3.19 v -1.55 c 1,0 4,0 6.6,1.3 v -25.81 c 0,-1.8 -0.2,-2.39 -4.7,-2.39 h -1.6 v -1.55 c 1.8,0.16 6.1,0.16 8.1,0.16 2,0 6.3,0 8.1,-0.16 v 1.55 h -1.6 c -4.5,0 -4.7,0.55 -4.7,2.39 z"
             inkscape:connector-curvature="0"
             style="fill:#000000;stroke-width:0" /><path
             id="path1353"
             d="m 1280.4,381.91 v 0.03 l 0.1,0.03 v 0.03 0.03 0.03 0.02 0.03 0.02 0.05 0.05 l 0.1,0.05 v 0.04 0.04 0.04 0.03 0.04 0.03 0.03 0.03 0.03 l 0.1,0.02 v 0.02 0.03 0.02 0.01 0.02 0.02 0.01 0.01 0.02 0.01 0.01 0 0.01 0.01 0.01 c 0,0.54 -0.5,0.98 -1,0.98 -0.4,0 -0.7,-0.14 -0.9,-0.44 l -17.3,-47.48 c -0.2,-0.64 -0.2,-0.84 -0.2,-0.89 0,-0.55 0.4,-1 1,-1 0.6,0 0.8,0.34 1.1,1.19 z"
             inkscape:connector-curvature="0"
             style="fill:#000000;stroke-width:0" /><path
             id="path1355"
             d="m 1301.8,366.36 h 4.3 c 1,0 1.5,0 1.5,1 0,0.55 -0.5,0.55 -1.4,0.55 h -4.1 l 1,5.69 c 0.2,1.04 0.9,4.58 1.2,5.17 0.5,0.95 1.3,1.7 2.4,1.7 0.2,0 1.5,0 2.4,-0.9 -2.2,-0.19 -2.7,-1.94 -2.7,-2.69 0,-1.14 0.9,-1.74 1.9,-1.74 1.3,0 2.7,1.1 2.7,2.99 0,2.3 -2.3,3.44 -4.3,3.44 -1.7,0 -4.9,-0.89 -6.3,-5.83 -0.3,-1.05 -0.5,-1.55 -1.7,-7.83 h -3.4 c -1,0 -1.5,0 -1.5,-0.94 0,-0.61 0.4,-0.61 1.4,-0.61 h 3.3 l -3.8,-19.67 c -0.9,-4.83 -1.7,-9.37 -4.3,-9.37 -0.2,0 -1.5,0 -2.4,0.9 2.3,0.14 2.7,1.94 2.7,2.69 0,1.14 -0.9,1.75 -1.8,1.75 -1.3,0 -2.7,-1.09 -2.7,-3 0,-2.23 2.1,-3.44 4.2,-3.44 2.7,0 4.7,2.94 5.6,4.85 1.6,3.14 2.8,9.15 2.8,9.51 z"
             inkscape:connector-curvature="0"
             style="fill:#000000;stroke-width:0" /><path
             id="path1357"
             d="m 1328.4,362.19 0.2,1.28 3.4,13.57 c 0.4,1.73 0.5,1.89 2.6,1.89 h 4.8 c 4.2,0 6.8,-1.35 6.8,-4.79 0,-1.95 -1,-6.23 -2.9,-8.03 -2.5,-2.23 -5.5,-2.64 -7.7,-2.64 h -7 l -0.2,-1.28 h 8.4 c 7.1,0 14,5.17 14,10.75 0,3.85 -3.2,7.53 -9.8,7.53 h -16.1 c -1,0 -1.5,0 -1.5,-0.95 0,-0.59 0.4,-0.59 1.4,-0.59 0.7,0 1.6,-0.05 2.2,-0.1 0.8,-0.11 1.1,-0.25 1.1,-0.79 0,-0.21 -0.1,-0.36 -0.2,-0.96 l -6.7,-26.75 c -0.5,-1.95 -0.6,-2.34 -4.5,-2.34 -0.9,0 -1.4,0 -1.4,-0.95 0,-0.6 0.6,-0.6 0.7,-0.6 1.4,0 4.9,0.16 6.3,0.16 1.1,0 2.2,-0.06 3.2,-0.06 1.1,0 2.2,-0.1 3.3,-0.1 0.3,0 1,0 1,1 0,0.55 -0.5,0.55 -1.4,0.55 -1.9,0 -3.3,0 -3.3,0.89 0,0.3 0.1,0.55 0.2,0.84 z"
             inkscape:connector-curvature="0"
             style="fill:#000000;stroke-width:0" /><path
             id="path1359"
             d="m 1358.1,370.02 0.2,0.17 0.2,0.17 0.1,0.16 0.2,0.17 0.2,0.17 0.1,0.09 0.1,0.1 0.1,0.09 0.1,0.1 0.1,0.1 0.1,0.11 0.1,0.11 0.2,0.11 0.1,0.12 0.1,0.13 0.2,0.13 0.2,0.14 0.1,0.14 0.2,0.15 0.2,0.15 0.2,0.17 0.2,0.17 0.2,0.18 0.3,0.19 0.2,0.2 0.3,0.2 0.2,0.22 c 0.8,0.59 3.4,2.69 4.4,3.66 2.1,2.09 3.4,3.87 3.4,4.29 0,0.41 -0.4,0.41 -0.6,0.41 -0.3,0 -0.4,-0.06 -0.6,-0.34 -1,-1.6 -1.8,-2.13 -2.6,-2.13 -0.4,0 -0.9,0.03 -2,1.05 -1.2,1.19 -1.9,1.42 -2.7,1.42 -2.8,0 -4.7,-3.03 -4.7,-4.06 0,-0.33 0.4,-0.42 0.6,-0.42 0.4,0 0.5,0.09 0.6,0.48 0.5,1.22 2.5,1.3 3,1.3 0.8,0 1.8,-0.22 2.2,-0.33 2,-0.41 2.2,-0.41 3.1,-0.41 -0.9,-0.95 -1.6,-1.58 -4.9,-4.22 -2.7,-2.15 -3.6,-3.03 -4.3,-3.73 -2.1,-2.05 -3.1,-3.58 -3.1,-3.91 0,-0.4 0.5,-0.4 0.6,-0.4 0.3,0 0.4,0.06 0.6,0.34 0.9,1.33 2,2.13 3.2,2.13 0.4,0 0.9,-0.04 1.9,-0.91 1.1,-1.05 1.7,-1.56 2.9,-1.56 3.7,0 6,4.22 6,5.39 0,0.42 -0.4,0.45 -0.5,0.45 -0.5,0 -0.5,-0.17 -0.7,-0.55 -0.6,-1.75 -2.7,-2.57 -4.4,-2.57 -0.8,0 -1.7,0.17 -2.6,0.37 -1.6,0.34 -1.8,0.34 -2.5,0.34 0,0 -0.6,0 -0.8,-0.03 z"
             inkscape:connector-curvature="0"
             style="fill:#000000;stroke-width:0" /><path
             id="path1361"
             d="m 1354.8,345.72 0.3,-0.01 0.2,-0.01 0.3,-0.03 0.2,-0.04 0.3,-0.05 0.2,-0.06 0.2,-0.07 0.2,-0.08 0.2,-0.1 0.2,-0.1 0.2,-0.12 0.2,-0.13 0.2,-0.13 0.2,-0.15 0.1,-0.16 0.2,-0.17 0.1,-0.18 0.2,-0.19 0.1,-0.21 0.1,-0.21 0.2,-0.23 0.1,-0.23 0.1,-0.25 0.1,-0.26 v -0.26 l 0.1,-0.28 0.1,-0.29 v -0.3 l 0.1,-0.31 v -0.33 -0.33 -0.34 c 0,-4.33 -2.5,-5.61 -4.5,-5.61 -1.4,0 -4.5,0.38 -5.9,2.44 1.6,0.06 2,1.22 2,1.95 0,1.11 -0.9,1.91 -1.9,1.91 -1,0 -2,-0.6 -2,-2.02 0,-3.28 3.6,-5.4 7.8,-5.4 4.9,0 8.2,3.24 8.2,6.73 0,2.72 -2.2,5.44 -6,6.23 3.6,1.33 5,3.94 5,6.07 0,2.75 -3.2,4.81 -7.1,4.81 -3.9,0 -6.8,-1.89 -6.8,-4.67 0,-1.19 0.8,-1.85 1.8,-1.85 1.1,0 1.8,0.8 1.8,1.77 0,1.01 -0.7,1.75 -1.8,1.81 1.2,1.55 3.6,1.92 4.9,1.92 1.6,0 3.8,-0.76 3.8,-3.79 0,-1.47 -0.5,-3.07 -1.4,-4.14 -1.2,-1.33 -2.1,-1.41 -3.9,-1.5 -0.9,-0.08 -0.9,-0.08 -1.1,-0.11 -0.1,0 -0.4,-0.07 -0.4,-0.46 0,-0.48 0.3,-0.48 0.9,-0.48 z"
             inkscape:connector-curvature="0"
             style="fill:#000000;stroke-width:0" /><path
             id="path1363"
             d="m 1367.1,357.88 v -1.26 h 0.9 c 2.7,0 2.7,-0.34 2.7,-1.57 v -18.14 c 0,-1.19 0,-1.58 -2.7,-1.58 h -0.9 v -1.25 h 13.8 l -1,1.25 h -4.3 c -1.7,0 -1.7,0.28 -1.7,1.36 v 18.58 c 0,1.07 0,1.35 1.7,1.35 h 4.3 c 2.9,0 5.5,-1.21 7.1,-3.28 1.5,-1.87 2,-4.53 2,-7.56 0,-4.03 -1,-6.12 -2.2,-7.59 -1.6,-1.78 -4.1,-2.86 -6.9,-2.86 l 1,-1.25 c 6.4,0 11.7,5.15 11.7,11.7 0,6.63 -5.3,12.1 -11.7,12.1 z"
             inkscape:connector-curvature="0"
             style="fill:#000000;stroke-width:0" /></g>      </g>
      <g
         id="g1507"
         transform="translate(222.25008,-13.758332)">
        <g
           word-spacing="normal"
           letter-spacing="normal"
           font-size-adjust="none"
           font-stretch="normal"
           font-weight="normal"
           font-variant="normal"
           font-style="normal"
           stroke-miterlimit="10.433"
           xml:space="preserve"
           transform="matrix(0.08875577,0,0,-0.08875577,-15.532259,126.98111)"
           id="g1505"
           style="font-style:normal;font-variant:normal;font-weight:normal;font-stretch:normal;letter-spacing:normal;word-spacing:normal;text-anchor:start;fill:none;fill-opacity:1;fill-rule:evenodd;stroke:#000000;stroke-linecap:butt;stroke-linejoin:miter;stroke-miterlimit:10.43299961;stroke-dasharray:none;stroke-dashoffset:0;stroke-opacity:1"><path
             id="path1479"
             d="m 1097.9,362.19 0.2,1.28 3.3,13.57 c 0.5,1.73 0.6,1.89 2.7,1.89 h 4.8 c 4.2,0 6.8,-1.35 6.8,-4.79 0,-1.95 -1,-6.23 -2.9,-8.03 -2.5,-2.23 -5.5,-2.64 -7.7,-2.64 h -7 l -0.2,-1.28 h 8.4 c 7.1,0 14,5.17 14,10.75 0,3.85 -3.3,7.53 -9.8,7.53 h -16.1 c -1,0 -1.5,0 -1.5,-0.95 0,-0.59 0.4,-0.59 1.4,-0.59 0.7,0 1.6,-0.05 2.2,-0.1 0.8,-0.11 1.1,-0.25 1.1,-0.79 0,-0.21 -0.1,-0.36 -0.2,-0.96 l -6.7,-26.75 c -0.5,-1.95 -0.6,-2.34 -4.5,-2.34 -0.9,0 -1.4,0 -1.4,-0.95 0,-0.6 0.6,-0.6 0.7,-0.6 1.4,0 4.9,0.16 6.3,0.16 1.1,0 2.2,-0.06 3.2,-0.06 1.1,0 2.2,-0.1 3.3,-0.1 0.3,0 0.9,0 0.9,1 0,0.55 -0.4,0.55 -1.3,0.55 -1.9,0 -3.3,0 -3.3,0.89 0,0.3 0.1,0.55 0.2,0.84 z"
             inkscape:connector-curvature="0"
             style="fill:#000000;stroke-width:0" /><path
             id="path1481"
             d="m 1130.4,370.65 v -0.11 -0.12 l -0.1,-0.12 v -0.12 l -0.1,-0.12 v -0.13 l -0.1,-0.13 -0.1,-0.12 v -0.13 l -0.1,-0.13 -0.1,-0.13 -0.1,-0.13 -0.1,-0.12 -0.1,-0.12 -0.1,-0.12 -0.1,-0.12 -0.1,-0.12 -0.1,-0.11 -0.1,-0.1 -0.1,-0.1 -0.1,-0.1 -0.2,-0.09 -0.1,-0.08 -0.1,-0.08 -0.2,-0.07 -0.1,-0.06 -0.1,-0.06 -0.2,-0.04 -0.2,-0.04 -0.1,-0.02 -0.2,-0.02 h -0.1 c -0.1,0 -1.2,0 -1.9,0.48 1.4,0.45 1.5,1.72 1.5,1.92 0,0.77 -0.6,1.3 -1.4,1.3 -1,0 -2,-0.84 -2,-2.14 0,-1.74 2,-2.53 3.7,-2.53 1.6,0 3,1 3.9,2.47 0.8,-1.85 2.8,-2.47 4.1,-2.47 4.1,0 6.2,4.34 6.2,5.33 0,0.45 -0.5,0.45 -0.6,0.45 -0.5,0 -0.5,-0.17 -0.6,-0.6 -0.8,-2.4 -2.9,-4.21 -4.8,-4.21 -1.4,0 -2.1,0.93 -2.1,2.26 0,0.91 0.8,4.08 1.8,7.95 0.7,2.68 2.2,3.55 3.4,3.55 0,0 1.1,0 1.9,-0.48 -1.1,-0.32 -1.6,-1.3 -1.6,-1.92 0,-0.77 0.6,-1.29 1.4,-1.29 0.8,0 2,0.66 2,2.13 0,1.95 -2.3,2.53 -3.7,2.53 -1.7,0 -3.1,-1.14 -3.9,-2.47 -0.6,1.44 -2.2,2.47 -4.1,2.47 -3.9,0 -6.2,-4.28 -6.2,-5.33 0,-0.45 0.5,-0.45 0.6,-0.45 0.5,0 0.5,0.14 0.7,0.59 0.9,2.72 3.1,4.22 4.8,4.22 1.1,0 2.1,-0.62 2.1,-2.3 0,-0.7 -0.5,-2.43 -0.8,-3.62 z"
             inkscape:connector-curvature="0"
             style="fill:#000000;stroke-width:0" /><path
             id="path1483"
             d="m 1132.4,340.42 h -1.2 c -0.1,-0.76 -0.4,-2.83 -0.9,-3.17 -0.3,-0.2 -3,-0.2 -3.4,-0.2 h -6.5 c 3.7,3.23 4.9,4.2 7,5.84 2.6,2.06 5,4.22 5,7.53 0,4.22 -3.7,6.8 -8.2,6.8 -4.3,0 -7.2,-3.03 -7.2,-6.24 0,-1.78 1.5,-1.95 1.8,-1.95 0.9,0 1.9,0.59 1.9,1.85 0,0.62 -0.3,1.84 -2.1,1.84 1.1,2.47 3.5,3.23 5.1,3.23 3.5,0 5.3,-2.7 5.3,-5.53 0,-3.03 -2.1,-5.44 -3.3,-6.69 l -8.4,-8.29 c -0.3,-0.32 -0.3,-0.39 -0.3,-1.36 h 14.3 z"
             inkscape:connector-curvature="0"
             style="fill:#000000;stroke-width:0" /><path
             id="path1485"
             d="m 1136.6,357.88 v -1.26 h 0.9 c 2.6,0 2.7,-0.34 2.7,-1.57 v -18.14 c 0,-1.19 -0.1,-1.58 -2.7,-1.58 h -0.9 v -1.25 h 13.7 l -0.9,1.25 h -4.3 c -1.7,0 -1.7,0.28 -1.7,1.36 v 18.58 c 0,1.07 0,1.35 1.7,1.35 h 4.3 c 2.9,0 5.5,-1.21 7.1,-3.28 1.4,-1.87 2,-4.53 2,-7.56 0,-4.03 -1,-6.12 -2.2,-7.59 -1.6,-1.78 -4.1,-2.86 -6.9,-2.86 l 0.9,-1.25 c 6.5,0 11.8,5.15 11.8,11.7 0,6.63 -5.3,12.1 -11.8,12.1 z"
             inkscape:connector-curvature="0"
             style="fill:#000000;stroke-width:0" /><path
             id="path1487"
             d="m 1215.2,362.74 h 0.1 0.1 0.2 l 0.1,0.01 v 0 l 0.1,0.01 0.1,0.01 v 0.01 l 0.1,0.01 0.1,0.01 v 0.02 l 0.1,0.02 0.1,0.02 v 0.03 l 0.1,0.02 v 0.03 l 0.1,0.04 0.1,0.04 v 0.04 0.04 l 0.1,0.05 v 0.03 0.03 0.03 0.03 l 0.1,0.03 v 0.03 0.03 0.04 0.03 0.04 0.04 0.04 0.04 0.04 0.05 0.04 c 0,1 -0.9,1 -1.6,1 h -29.8 c -0.7,0 -1.7,0 -1.7,-1 0,-0.98 1,-0.98 1.7,-0.98 z"
             inkscape:connector-curvature="0"
             style="fill:#000000;stroke-width:0" /><path
             id="path1489"
             d="m 1215.2,353.07 h 0.1 v 0 h 0.2 0.1 l 0.1,0.01 v 0 l 0.1,0.01 0.1,0.01 0.1,0.01 v 0.01 l 0.1,0.01 0.1,0.02 v 0.02 l 0.1,0.02 v 0.03 l 0.1,0.02 0.1,0.04 v 0.03 l 0.1,0.04 v 0.04 0.05 l 0.1,0.02 v 0.03 0.02 0.03 0.03 0.03 l 0.1,0.03 v 0.04 0.03 0.04 0.03 0.04 0.04 0.04 0.04 0.05 0.04 0.05 c 0,1 -0.9,1 -1.6,1 h -29.8 c -0.7,0 -1.7,0 -1.7,-1 0,-1 1,-1 1.7,-1 z"
             inkscape:connector-curvature="0"
             style="fill:#000000;stroke-width:0" /><path
             id="path1491"
             d="m 1248.2,378.33 v 0.06 0.05 0.05 0.05 0.05 0.05 0.04 0.05 0.04 0.04 0.04 0.04 0.04 0.04 0.03 0.04 0.06 0.06 0.05 0.05 0.05 l -0.1,0.04 v 0.04 0.04 0.03 l -0.1,0.03 v 0.02 0.02 l -0.1,0.02 v 0.01 0.01 h -0.1 v 0.01 0.01 0 l -0.1,0.01 v 0 0.01 h -0.1 v 0 0.01 h -0.1 v 0 h -0.1 v 0.01 h -0.1 v 0 0 h -0.1 v 0 h -0.1 c -3.1,-3.19 -7.5,-3.19 -9.1,-3.19 v -1.55 c 1,0 4,0 6.6,1.3 v -25.81 c 0,-1.8 -0.2,-2.39 -4.7,-2.39 h -1.6 v -1.55 c 1.8,0.16 6.1,0.16 8.1,0.16 2,0 6.3,0 8.1,-0.16 v 1.55 h -1.6 c -4.5,0 -4.7,0.55 -4.7,2.39 z"
             inkscape:connector-curvature="0"
             style="fill:#000000;stroke-width:0" /><path
             id="path1493"
             d="m 1280.4,381.91 v 0.03 l 0.1,0.03 v 0.03 0.03 0.03 0.02 0.03 0.02 0.05 0.05 l 0.1,0.05 v 0.04 0.04 0.04 0.03 0.04 0.03 0.03 0.03 0.03 l 0.1,0.02 v 0.02 0.03 0.02 0.01 0.02 0.02 0.01 0.01 0.02 0.01 0.01 0 0.01 0.01 0.01 c 0,0.54 -0.5,0.98 -1,0.98 -0.4,0 -0.7,-0.14 -0.9,-0.44 l -17.3,-47.48 c -0.2,-0.64 -0.2,-0.84 -0.2,-0.89 0,-0.55 0.4,-1 1,-1 0.6,0 0.8,0.34 1.1,1.19 z"
             inkscape:connector-curvature="0"
             style="fill:#000000;stroke-width:0" /><path
             id="path1495"
             d="m 1301.8,366.36 h 4.3 c 1,0 1.5,0 1.5,1 0,0.55 -0.5,0.55 -1.4,0.55 h -4.1 l 1,5.69 c 0.2,1.04 0.9,4.58 1.2,5.17 0.5,0.95 1.3,1.7 2.4,1.7 0.2,0 1.5,0 2.4,-0.9 -2.2,-0.19 -2.7,-1.94 -2.7,-2.69 0,-1.14 0.9,-1.74 1.9,-1.74 1.3,0 2.7,1.1 2.7,2.99 0,2.3 -2.3,3.44 -4.3,3.44 -1.7,0 -4.9,-0.89 -6.3,-5.83 -0.3,-1.05 -0.5,-1.55 -1.7,-7.83 h -3.4 c -1,0 -1.5,0 -1.5,-0.94 0,-0.61 0.4,-0.61 1.4,-0.61 h 3.3 l -3.8,-19.67 c -0.9,-4.83 -1.7,-9.37 -4.3,-9.37 -0.2,0 -1.5,0 -2.4,0.9 2.3,0.14 2.7,1.94 2.7,2.69 0,1.14 -0.9,1.75 -1.8,1.75 -1.3,0 -2.7,-1.09 -2.7,-3 0,-2.23 2.1,-3.44 4.2,-3.44 2.7,0 4.7,2.94 5.6,4.85 1.6,3.14 2.8,9.15 2.8,9.51 z"
             inkscape:connector-curvature="0"
             style="fill:#000000;stroke-width:0" /><path
             id="path1497"
             d="m 1328.4,362.19 0.2,1.28 3.4,13.57 c 0.4,1.73 0.5,1.89 2.6,1.89 h 4.8 c 4.2,0 6.8,-1.35 6.8,-4.79 0,-1.95 -1,-6.23 -2.9,-8.03 -2.5,-2.23 -5.5,-2.64 -7.7,-2.64 h -7 l -0.2,-1.28 h 8.4 c 7.1,0 14,5.17 14,10.75 0,3.85 -3.2,7.53 -9.8,7.53 h -16.1 c -1,0 -1.5,0 -1.5,-0.95 0,-0.59 0.4,-0.59 1.4,-0.59 0.7,0 1.6,-0.05 2.2,-0.1 0.8,-0.11 1.1,-0.25 1.1,-0.79 0,-0.21 -0.1,-0.36 -0.2,-0.96 l -6.7,-26.75 c -0.5,-1.95 -0.6,-2.34 -4.5,-2.34 -0.9,0 -1.4,0 -1.4,-0.95 0,-0.6 0.6,-0.6 0.7,-0.6 1.4,0 4.9,0.16 6.3,0.16 1.1,0 2.2,-0.06 3.2,-0.06 1.1,0 2.2,-0.1 3.3,-0.1 0.3,0 1,0 1,1 0,0.55 -0.5,0.55 -1.4,0.55 -1.9,0 -3.3,0 -3.3,0.89 0,0.3 0.1,0.55 0.2,0.84 z"
             inkscape:connector-curvature="0"
             style="fill:#000000;stroke-width:0" /><path
             id="path1499"
             d="m 1360.9,370.65 v -0.11 -0.12 l -0.1,-0.12 v -0.12 l -0.1,-0.12 v -0.13 l -0.1,-0.13 -0.1,-0.12 v -0.13 l -0.1,-0.13 -0.1,-0.13 -0.1,-0.13 -0.1,-0.12 v -0.12 l -0.1,-0.12 -0.1,-0.12 -0.2,-0.12 -0.1,-0.11 -0.1,-0.1 -0.1,-0.1 -0.1,-0.1 -0.1,-0.09 -0.2,-0.08 -0.1,-0.08 -0.1,-0.07 -0.2,-0.06 -0.1,-0.06 -0.2,-0.04 -0.1,-0.04 -0.2,-0.02 -0.1,-0.02 h -0.2 c -0.1,0 -1.2,0 -1.9,0.48 1.4,0.45 1.5,1.72 1.5,1.92 0,0.77 -0.6,1.3 -1.4,1.3 -0.9,0 -2,-0.84 -2,-2.14 0,-1.74 2,-2.53 3.7,-2.53 1.6,0 3,1 3.9,2.47 0.8,-1.85 2.8,-2.47 4.2,-2.47 4,0 6.1,4.34 6.1,5.33 0,0.45 -0.5,0.45 -0.6,0.45 -0.4,0 -0.5,-0.17 -0.6,-0.6 -0.8,-2.4 -2.8,-4.21 -4.8,-4.21 -1.4,0 -2.1,0.93 -2.1,2.26 0,0.91 0.8,4.08 1.8,7.95 0.7,2.68 2.3,3.55 3.4,3.55 0.1,0 1.2,0 1.9,-0.48 -1.1,-0.32 -1.6,-1.3 -1.6,-1.92 0,-0.77 0.6,-1.29 1.4,-1.29 0.8,0 2,0.66 2,2.13 0,1.95 -2.2,2.53 -3.6,2.53 -1.8,0 -3.2,-1.14 -3.9,-2.47 -0.7,1.44 -2.3,2.47 -4.2,2.47 -3.9,0 -6.1,-4.28 -6.1,-5.33 0,-0.45 0.4,-0.45 0.5,-0.45 0.5,0 0.5,0.14 0.7,0.59 0.9,2.72 3.1,4.22 4.8,4.22 1.1,0 2.1,-0.62 2.1,-2.3 0,-0.7 -0.5,-2.43 -0.8,-3.62 z"
             inkscape:connector-curvature="0"
             style="fill:#000000;stroke-width:0" /><path
             id="path1501"
             d="m 1354.8,345.72 0.3,-0.01 0.2,-0.01 0.3,-0.03 0.2,-0.04 0.3,-0.05 0.2,-0.06 0.2,-0.07 0.2,-0.08 0.2,-0.1 0.2,-0.1 0.2,-0.12 0.2,-0.13 0.2,-0.13 0.2,-0.15 0.1,-0.16 0.2,-0.17 0.1,-0.18 0.2,-0.19 0.1,-0.21 0.1,-0.21 0.2,-0.23 0.1,-0.23 0.1,-0.25 0.1,-0.26 v -0.26 l 0.1,-0.28 0.1,-0.29 v -0.3 l 0.1,-0.31 v -0.33 -0.33 -0.34 c 0,-4.33 -2.5,-5.61 -4.5,-5.61 -1.4,0 -4.5,0.38 -5.9,2.44 1.6,0.06 2,1.22 2,1.95 0,1.11 -0.9,1.91 -1.9,1.91 -1,0 -2,-0.6 -2,-2.02 0,-3.28 3.6,-5.4 7.8,-5.4 4.9,0 8.2,3.24 8.2,6.73 0,2.72 -2.2,5.44 -6,6.23 3.6,1.33 5,3.94 5,6.07 0,2.75 -3.2,4.81 -7.1,4.81 -3.9,0 -6.8,-1.89 -6.8,-4.67 0,-1.19 0.8,-1.85 1.8,-1.85 1.1,0 1.8,0.8 1.8,1.77 0,1.01 -0.7,1.75 -1.8,1.81 1.2,1.55 3.6,1.92 4.9,1.92 1.6,0 3.8,-0.76 3.8,-3.79 0,-1.47 -0.5,-3.07 -1.4,-4.14 -1.2,-1.33 -2.1,-1.41 -3.9,-1.5 -0.9,-0.08 -0.9,-0.08 -1.1,-0.11 -0.1,0 -0.4,-0.07 -0.4,-0.46 0,-0.48 0.3,-0.48 0.9,-0.48 z"
             inkscape:connector-curvature="0"
             style="fill:#000000;stroke-width:0" /><path
             id="path1503"
             d="m 1367.1,357.88 v -1.26 h 0.9 c 2.7,0 2.7,-0.34 2.7,-1.57 v -18.14 c 0,-1.19 0,-1.58 -2.7,-1.58 h -0.9 v -1.25 h 13.8 l -1,1.25 h -4.3 c -1.7,0 -1.7,0.28 -1.7,1.36 v 18.58 c 0,1.07 0,1.35 1.7,1.35 h 4.3 c 2.9,0 5.5,-1.21 7.1,-3.28 1.5,-1.87 2,-4.53 2,-7.56 0,-4.03 -1,-6.12 -2.2,-7.59 -1.6,-1.78 -4.1,-2.86 -6.9,-2.86 l 1,-1.25 c 6.4,0 11.7,5.15 11.7,11.7 0,6.63 -5.3,12.1 -11.7,12.1 z"
             inkscape:connector-curvature="0"
             style="fill:#000000;stroke-width:0" /></g>      </g>
      <text
         xml:space="preserve"
         style="font-style:normal;font-weight:normal;font-size:10.58333302px;line-height:125%;font-family:sans-serif;letter-spacing:0px;word-spacing:0px;fill:#000000;fill-opacity:1;stroke:none;stroke-width:0.26458332px;stroke-linecap:butt;stroke-linejoin:miter;stroke-opacity:1"
         x="418.38696"
         y="58.432247"
         id="text1532"><tspan
           sodipodi:role="line"
           id="tspan1530"
           x="418.38696"
           y="67.969505"
           style="stroke-width:0.26458332px" /></text>
    </g>
    <g
       id="g1557"
       transform="translate(95.250005)">
      <rect
         style="opacity:1;fill:none;fill-opacity:1;stroke:#000000;stroke-width:0.35277778;stroke-miterlimit:4;stroke-dasharray:none;stroke-opacity:1"
         id="rect1553"
         width="73.70536"
         height="35.907738"
         x="17.008928"
         y="27.502975" />
      <rect
         style="opacity:0.497;fill:#eb1c44;fill-opacity:0.59042556;stroke:#000000;stroke-width:0.35277778;stroke-miterlimit:4;stroke-dasharray:none;stroke-opacity:1"
         id="rect1555"
         width="10.205358"
         height="35.907738"
         x="17.008917"
         y="27.502975" />
    </g>
  </g>
</svg>
