<?xml version="1.0" encoding="utf-8" standalone="no"?>
<!DOCTYPE svg PUBLIC "-//W3C//DTD SVG 1.1//EN"
  "http://www.w3.org/Graphics/SVG/1.1/DTD/svg11.dtd">
<!-- Created with matplotlib (http://matplotlib.org/) -->
<svg height="223.343359pt" version="1.1" viewBox="0 0 231.670703 223.343359" width="231.670703pt" xmlns="http://www.w3.org/2000/svg" xmlns:xlink="http://www.w3.org/1999/xlink">
 <defs>
  <style type="text/css">
*{stroke-linecap:butt;stroke-linejoin:round;}
  </style>
 </defs>
 <g id="figure_1">
  <g id="patch_1">
   <path d="M 0 223.343359 
L 231.670703 223.343359 
L 231.670703 0 
L 0 0 
z
" style="fill:none;"/>
  </g>
  <g id="axes_1">
   <g id="patch_2">
    <path d="M 44.570703 187.1 
L 220.970703 187.1 
L 220.970703 10.7 
L 44.570703 10.7 
z
" style="fill:none;"/>
   </g>
   <g id="matplotlib.axis_1">
    <g id="xtick_1">
     <g id="line2d_1">
      <defs>
       <path d="M 0 0 
L 0 3.5 
" id="m13ca0109d3" style="stroke:#000000;stroke-width:0.85;"/>
      </defs>
      <g>
       <use style="stroke:#000000;stroke-width:0.85;" x="55.667717" xlink:href="#m13ca0109d3" y="187.1"/>
      </g>
     </g>
     <g id="text_1">
      <text style="font-family:Helvetica;font-size:7.5px;font-style:normal;font-weight:500;text-anchor:middle;" transform="rotate(-0, 55.667717, 199.480078)" x="55.667717" y="199.480078">2</text>
     </g>
    </g>
    <g id="xtick_2">
     <g id="line2d_2">
      <g>
       <use style="stroke:#000000;stroke-width:0.85;" x="90.345886" xlink:href="#m13ca0109d3" y="187.1"/>
      </g>
     </g>
     <g id="text_2">
      <text style="font-family:Helvetica;font-size:7.5px;font-style:normal;font-weight:500;text-anchor:middle;" transform="rotate(-0, 90.345886, 199.480078)" x="90.345886" y="199.480078">3</text>
     </g>
    </g>
    <g id="xtick_3">
     <g id="line2d_3">
      <g>
       <use style="stroke:#000000;stroke-width:0.85;" x="125.024056" xlink:href="#m13ca0109d3" y="187.1"/>
      </g>
     </g>
     <g id="text_3">
      <text style="font-family:Helvetica;font-size:7.5px;font-style:normal;font-weight:500;text-anchor:middle;" transform="rotate(-0, 125.024056, 199.480078)" x="125.024056" y="199.480078">4</text>
     </g>
    </g>
    <g id="xtick_4">
     <g id="line2d_4">
      <g>
       <use style="stroke:#000000;stroke-width:0.85;" x="159.702225" xlink:href="#m13ca0109d3" y="187.1"/>
      </g>
     </g>
     <g id="text_4">
      <text style="font-family:Helvetica;font-size:7.5px;font-style:normal;font-weight:500;text-anchor:middle;" transform="rotate(-0, 159.702225, 199.480078)" x="159.702225" y="199.480078">5</text>
     </g>
    </g>
    <g id="xtick_5">
     <g id="line2d_5">
      <g>
       <use style="stroke:#000000;stroke-width:0.85;" x="194.380394" xlink:href="#m13ca0109d3" y="187.1"/>
      </g>
     </g>
     <g id="text_5">
      <text style="font-family:Helvetica;font-size:7.5px;font-style:normal;font-weight:500;text-anchor:middle;" transform="rotate(-0, 194.380394, 199.480078)" x="194.380394" y="199.480078">6</text>
     </g>
    </g>
    <g id="text_6">
     <!-- Thickness ($\AA$) -->
     <g transform="translate(109.820703 214.568359)">
      <text>
       <tspan style="font-family:Helvetica;font-size:7.5px;font-style:regular;font-weight:regular;" x="0 4.581299 8.752441 10.418701 14.168701 17.918701 22.089844 26.260986 30.010986 33.760986 35.844727 43.344727" y="-0.125">Thickness ()</tspan>
       <tspan style="font-family:Arial;font-size:7.5px;font-style:italic;font-weight:italic;" x="38.342285" y="-0.125">Å</tspan>
      </text>
     </g>
    </g>
   </g>
   <g id="matplotlib.axis_2">
    <g id="ytick_1">
     <g id="line2d_6">
      <defs>
       <path d="M 0 0 
L -3.5 0 
" id="m0f3cff485f" style="stroke:#000000;stroke-width:0.85;"/>
      </defs>
      <g>
       <use style="stroke:#000000;stroke-width:0.85;" x="44.570703" xlink:href="#m0f3cff485f" y="175.430915"/>
      </g>
     </g>
     <g id="text_7">
      <text style="font-family:Helvetica;font-size:7.5px;font-style:normal;font-weight:500;text-anchor:end;" transform="rotate(-0, 37.570703, 178.120954)" x="37.570703" y="178.120954">0.15</text>
     </g>
    </g>
    <g id="ytick_2">
     <g id="line2d_7">
      <g>
       <use style="stroke:#000000;stroke-width:0.85;" x="44.570703" xlink:href="#m0f3cff485f" y="151.26067"/>
      </g>
     </g>
     <g id="text_8">
      <text style="font-family:Helvetica;font-size:7.5px;font-style:normal;font-weight:500;text-anchor:end;" transform="rotate(-0, 37.570703, 153.950709)" x="37.570703" y="153.950709">0.20</text>
     </g>
    </g>
    <g id="ytick_3">
     <g id="line2d_8">
      <g>
       <use style="stroke:#000000;stroke-width:0.85;" x="44.570703" xlink:href="#m0f3cff485f" y="127.090426"/>
      </g>
     </g>
     <g id="text_9">
      <text style="font-family:Helvetica;font-size:7.5px;font-style:normal;font-weight:500;text-anchor:end;" transform="rotate(-0, 37.570703, 129.780465)" x="37.570703" y="129.780465">0.25</text>
     </g>
    </g>
    <g id="ytick_4">
     <g id="line2d_9">
      <g>
       <use style="stroke:#000000;stroke-width:0.85;" x="44.570703" xlink:href="#m0f3cff485f" y="102.920181"/>
      </g>
     </g>
     <g id="text_10">
      <text style="font-family:Helvetica;font-size:7.5px;font-style:normal;font-weight:500;text-anchor:end;" transform="rotate(-0, 37.570703, 105.61022)" x="37.570703" y="105.61022">0.30</text>
     </g>
    </g>
    <g id="ytick_5">
     <g id="line2d_10">
      <g>
       <use style="stroke:#000000;stroke-width:0.85;" x="44.570703" xlink:href="#m0f3cff485f" y="78.749936"/>
      </g>
     </g>
     <g id="text_11">
      <text style="font-family:Helvetica;font-size:7.5px;font-style:normal;font-weight:500;text-anchor:end;" transform="rotate(-0, 37.570703, 81.439975)" x="37.570703" y="81.439975">0.35</text>
     </g>
    </g>
    <g id="ytick_6">
     <g id="line2d_11">
      <g>
       <use style="stroke:#000000;stroke-width:0.85;" x="44.570703" xlink:href="#m0f3cff485f" y="54.579692"/>
      </g>
     </g>
     <g id="text_12">
      <text style="font-family:Helvetica;font-size:7.5px;font-style:normal;font-weight:500;text-anchor:end;" transform="rotate(-0, 37.570703, 57.269731)" x="37.570703" y="57.269731">0.40</text>
     </g>
    </g>
    <g id="ytick_7">
     <g id="line2d_12">
      <g>
       <use style="stroke:#000000;stroke-width:0.85;" x="44.570703" xlink:href="#m0f3cff485f" y="30.409447"/>
      </g>
     </g>
     <g id="text_13">
      <text style="font-family:Helvetica;font-size:7.5px;font-style:normal;font-weight:500;text-anchor:end;" transform="rotate(-0, 37.570703, 33.099486)" x="37.570703" y="33.099486">0.45</text>
     </g>
    </g>
    <g id="text_14">
     <!-- $\alpha_{zz}$ ($\AA$) -->
     <g transform="translate(13.725 109.925)rotate(-90)">
      <text>
       <tspan style="font-family:Arial;font-size:7.5px;font-style:italic;font-weight:italic;" x="0 14.482002" y="-0.125">αÅ</tspan>
       <tspan style="font-family:Arial;font-size:5.25px;font-style:italic;font-weight:italic;" x="4.277344 6.902344" y="2.11515625">zz</tspan>
       <tspan style="font-family:Helvetica;font-size:7.5px;font-style:regular;font-weight:regular;" x="9.900703 11.984443 19.484443" y="-0.125"> ()</tspan>
      </text>
     </g>
    </g>
   </g>
   <g id="line2d_13">
    <defs>
     <path d="M 0 3.25 
C 0.86191 3.25 1.688635 2.907559 2.298097 2.298097 
C 2.907559 1.688635 3.25 0.86191 3.25 0 
C 3.25 -0.86191 2.907559 -1.688635 2.298097 -2.298097 
C 1.688635 -2.907559 0.86191 -3.25 0 -3.25 
C -0.86191 -3.25 -1.688635 -2.907559 -2.298097 -2.298097 
C -2.907559 -1.688635 -3.25 -0.86191 -3.25 0 
C -3.25 0.86191 -2.907559 1.688635 -2.298097 2.298097 
C -1.688635 2.907559 -0.86191 3.25 0 3.25 
z
" id="mc4e6e49f4a"/>
    </defs>
    <g clip-path="url(#pa117798db3)">
     <use style="fill:#1f77b4;opacity:0.5;" x="107.684971" xlink:href="#mc4e6e49f4a" y="146.855959"/>
     <use style="fill:#1f77b4;opacity:0.5;" x="159.570746" xlink:href="#mc4e6e49f4a" y="85.817189"/>
     <use style="fill:#1f77b4;opacity:0.5;" x="167.97244" xlink:href="#mc4e6e49f4a" y="74.232346"/>
     <use style="fill:#1f77b4;opacity:0.5;" x="178.836877" xlink:href="#mc4e6e49f4a" y="66.74007"/>
     <use style="fill:#1f77b4;opacity:0.5;" x="186.234213" xlink:href="#mc4e6e49f4a" y="55.761824"/>
     <use style="fill:#1f77b4;opacity:0.5;" x="210.293378" xlink:href="#mc4e6e49f4a" y="27.429787"/>
     <use style="fill:#1f77b4;opacity:0.5;" x="117.048102" xlink:href="#mc4e6e49f4a" y="128.512319"/>
     <use style="fill:#1f77b4;opacity:0.5;" x="185.296758" xlink:href="#mc4e6e49f4a" y="48.961659"/>
     <use style="fill:#1f77b4;opacity:0.5;" x="207.218252" xlink:href="#mc4e6e49f4a" y="22.188738"/>
     <use style="fill:#1f77b4;opacity:0.5;" x="97.934209" xlink:href="#mc4e6e49f4a" y="127.868033"/>
     <use style="fill:#1f77b4;opacity:0.5;" x="140.659327" xlink:href="#mc4e6e49f4a" y="76.128933"/>
     <use style="fill:#1f77b4;opacity:0.5;" x="105.508511" xlink:href="#mc4e6e49f4a" y="132.678177"/>
     <use style="fill:#1f77b4;opacity:0.5;" x="166.082339" xlink:href="#mc4e6e49f4a" y="64.887206"/>
     <use style="fill:#1f77b4;opacity:0.5;" x="99.987813" xlink:href="#mc4e6e49f4a" y="132.10445"/>
     <use style="fill:#1f77b4;opacity:0.5;" x="145.489158" xlink:href="#mc4e6e49f4a" y="75.473442"/>
     <use style="fill:#1f77b4;opacity:0.5;" x="160.607908" xlink:href="#mc4e6e49f4a" y="60.677404"/>
     <use style="fill:#1f77b4;opacity:0.5;" x="102.064495" xlink:href="#mc4e6e49f4a" y="137.966949"/>
     <use style="fill:#1f77b4;opacity:0.5;" x="117.220233" xlink:href="#mc4e6e49f4a" y="121.206914"/>
     <use style="fill:#1f77b4;opacity:0.5;" x="161.614476" xlink:href="#mc4e6e49f4a" y="70.737187"/>
     <use style="fill:#1f77b4;opacity:0.5;" x="171.089236" xlink:href="#mc4e6e49f4a" y="57.409487"/>
     <use style="fill:#1f77b4;opacity:0.5;" x="180.018848" xlink:href="#mc4e6e49f4a" y="51.829688"/>
     <use style="fill:#1f77b4;opacity:0.5;" x="99.213027" xlink:href="#mc4e6e49f4a" y="144.518956"/>
     <use style="fill:#1f77b4;opacity:0.5;" x="163.865763" xlink:href="#mc4e6e49f4a" y="70.827282"/>
     <use style="fill:#1f77b4;opacity:0.5;" x="181.89208" xlink:href="#mc4e6e49f4a" y="52.85151"/>
     <use style="fill:#1f77b4;opacity:0.5;" x="117.889859" xlink:href="#mc4e6e49f4a" y="129.303941"/>
     <use style="fill:#1f77b4;opacity:0.5;" x="168.219005" xlink:href="#mc4e6e49f4a" y="67.49568"/>
     <use style="fill:#1f77b4;opacity:0.5;" x="186.007447" xlink:href="#mc4e6e49f4a" y="48.990148"/>
     <use style="fill:#1f77b4;opacity:0.5;" x="207.69419" xlink:href="#mc4e6e49f4a" y="22.234598"/>
     <use style="fill:#1f77b4;opacity:0.5;" x="107.684971" xlink:href="#mc4e6e49f4a" y="143.808459"/>
     <use style="fill:#1f77b4;opacity:0.5;" x="168.030125" xlink:href="#mc4e6e49f4a" y="68.745414"/>
     <use style="fill:#1f77b4;opacity:0.5;" x="179.163981" xlink:href="#mc4e6e49f4a" y="62.053384"/>
     <use style="fill:#1f77b4;opacity:0.5;" x="186.513614" xlink:href="#mc4e6e49f4a" y="50.651871"/>
     <use style="fill:#1f77b4;opacity:0.5;" x="211.134427" xlink:href="#mc4e6e49f4a" y="22.281569"/>
     <use style="fill:#1f77b4;opacity:0.5;" x="70.232548" xlink:href="#mc4e6e49f4a" y="153.366636"/>
     <use style="fill:#1f77b4;opacity:0.5;" x="44.570703" xlink:href="#mc4e6e49f4a" y="174.268792"/>
     <use style="fill:#1f77b4;opacity:0.5;" x="70.926112" xlink:href="#mc4e6e49f4a" y="155.254689"/>
     <use style="fill:#1f77b4;opacity:0.5;" x="84.797379" xlink:href="#mc4e6e49f4a" y="145.89844"/>
     <use style="fill:#1f77b4;opacity:0.5;" x="156.78034" xlink:href="#mc4e6e49f4a" y="103.792261"/>
     <use style="fill:#1f77b4;opacity:0.5;" x="202.045408" xlink:href="#mc4e6e49f4a" y="50.376656"/>
     <use style="fill:#1f77b4;opacity:0.5;" x="169.41952" xlink:href="#mc4e6e49f4a" y="87.53368"/>
     <use style="fill:#1f77b4;opacity:0.5;" x="214.056655" xlink:href="#mc4e6e49f4a" y="34.336974"/>
     <use style="fill:#1f77b4;opacity:0.5;" x="133.692867" xlink:href="#mc4e6e49f4a" y="82.214632"/>
     <use style="fill:#1f77b4;opacity:0.5;" x="220.970703" xlink:href="#mc4e6e49f4a" y="10.7"/>
    </g>
   </g>
   <g id="line2d_14">
    <path clip-path="url(#pa117798db3)" d="M 44.570703 187.1 
L 48.170703 183.655355 
L 51.770703 180.210709 
L 55.370703 176.766064 
L 58.970703 173.321419 
L 62.570703 169.876774 
L 66.170703 166.432128 
L 69.770703 162.987483 
L 73.370703 159.542838 
L 76.970703 156.098193 
L 80.570703 152.653547 
L 84.170703 149.208902 
L 87.770703 145.764257 
L 91.370703 142.319612 
L 94.970703 138.874966 
L 98.570703 135.430321 
L 102.170703 131.985676 
L 105.770703 128.541031 
L 109.370703 125.096385 
L 112.970703 121.65174 
L 116.570703 118.207095 
L 120.170703 114.76245 
L 123.770703 111.317804 
L 127.370703 107.873159 
L 130.970703 104.428514 
L 134.570703 100.983868 
L 138.170703 97.539223 
L 141.770703 94.094578 
L 145.370703 90.649933 
L 148.970703 87.205287 
L 152.570703 83.760642 
L 156.170703 80.315997 
L 159.770703 76.871352 
L 163.370703 73.426706 
L 166.970703 69.982061 
L 170.570703 66.537416 
L 174.170703 63.092771 
L 177.770703 59.648125 
L 181.370703 56.20348 
L 184.970703 52.758835 
L 188.570703 49.31419 
L 192.170703 45.869544 
L 195.770703 42.424899 
L 199.370703 38.980254 
L 202.970703 35.535609 
L 206.570703 32.090963 
L 210.170703 28.646318 
L 213.770703 25.201673 
L 217.370703 21.757027 
L 220.970703 18.312382 
" style="fill:none;stroke:#ff7f0e;stroke-dasharray:3.145,1.36;stroke-dashoffset:0;stroke-width:0.85;"/>
   </g>
   <g id="patch_3">
    <path d="M 44.570703 187.1 
L 44.570703 10.7 
" style="fill:none;stroke:#000000;stroke-linecap:square;stroke-linejoin:miter;stroke-width:0.85;"/>
   </g>
   <g id="patch_4">
    <path d="M 220.970703 187.1 
L 220.970703 10.7 
" style="fill:none;stroke:#000000;stroke-linecap:square;stroke-linejoin:miter;stroke-width:0.85;"/>
   </g>
   <g id="patch_5">
    <path d="M 44.570703 187.1 
L 220.970703 187.1 
" style="fill:none;stroke:#000000;stroke-linecap:square;stroke-linejoin:miter;stroke-width:0.85;"/>
   </g>
   <g id="patch_6">
    <path d="M 44.570703 10.7 
L 220.970703 10.7 
" style="fill:none;stroke:#000000;stroke-linecap:square;stroke-linejoin:miter;stroke-width:0.85;"/>
   </g>
   <g id="text_15">
    <!-- $y=0.07x+0.01,\ R^2=0.97$ -->
    <g transform="translate(73.006802 54.579692)">
     <text>
      <tspan style="font-family:Arial;font-size:7.5px;font-style:italic;font-weight:italic;" x="0 25.226074 55.867899" y="-0.7479687500000018">yxR</tspan>
      <tspan style="font-family:Arial;font-size:7.5px;font-style:regular;font-weight:regular;" x="4.999512 10.628906 14.800049 16.883789 21.054932 30.225586 35.85498 40.026123 42.109863 46.281006 50.452148 66.194056 71.823451 75.994593 78.078334 82.249476" y="-0.7479687500000018">=0.07+0.01,=0.97</tspan>
      <tspan style="font-family:Arial;font-size:5.25px;font-style:regular;font-weight:regular;" x="61.651385" y="-5.975000000000001">2</tspan>
     </text>
    </g>
   </g>
  </g>
 </g>
 <defs>
  <clipPath id="pa117798db3">
   <rect height="176.4" width="176.4" x="44.570703" y="10.7"/>
  </clipPath>
 </defs>
</svg>
