<?xml version="1.0" encoding="utf-8" standalone="no"?>
<!DOCTYPE svg PUBLIC "-//W3C//DTD SVG 1.1//EN"
  "http://www.w3.org/Graphics/SVG/1.1/DTD/svg11.dtd">
<!-- Created with matplotlib (http://matplotlib.org/) -->
<svg height="223.343359pt" version="1.1" viewBox="0 0 221.320703 223.343359" width="221.320703pt" xmlns="http://www.w3.org/2000/svg" xmlns:xlink="http://www.w3.org/1999/xlink">
 <defs>
  <style type="text/css">
*{stroke-linecap:butt;stroke-linejoin:round;}
  </style>
 </defs>
 <g id="figure_1">
  <g id="patch_1">
   <path d="M 0 223.343359 
L 221.320703 223.343359 
L 221.320703 0 
L 0 0 
z
" style="fill:none;"/>
  </g>
  <g id="axes_1">
   <g id="patch_2">
    <path d="M 34.220703 187.1 
L 210.620703 187.1 
L 210.620703 10.7 
L 34.220703 10.7 
z
" style="fill:none;"/>
   </g>
   <g id="matplotlib.axis_1">
    <g id="xtick_1">
     <g id="line2d_1">
      <defs>
       <path d="M 0 0 
L 0 3.5 
" id="m5b2e0e6a1f" style="stroke:#000000;stroke-width:0.85;"/>
      </defs>
      <g>
       <use style="stroke:#000000;stroke-width:0.85;" x="45.317717" xlink:href="#m5b2e0e6a1f" y="187.1"/>
      </g>
     </g>
     <g id="text_1">
      <text style="font-family:Helvetica;font-size:7.5px;font-style:normal;font-weight:500;text-anchor:middle;" transform="rotate(-0, 45.317717, 199.480078)" x="45.317717" y="199.480078">2</text>
     </g>
    </g>
    <g id="xtick_2">
     <g id="line2d_2">
      <g>
       <use style="stroke:#000000;stroke-width:0.85;" x="79.995886" xlink:href="#m5b2e0e6a1f" y="187.1"/>
      </g>
     </g>
     <g id="text_2">
      <text style="font-family:Helvetica;font-size:7.5px;font-style:normal;font-weight:500;text-anchor:middle;" transform="rotate(-0, 79.995886, 199.480078)" x="79.995886" y="199.480078">3</text>
     </g>
    </g>
    <g id="xtick_3">
     <g id="line2d_3">
      <g>
       <use style="stroke:#000000;stroke-width:0.85;" x="114.674056" xlink:href="#m5b2e0e6a1f" y="187.1"/>
      </g>
     </g>
     <g id="text_3">
      <text style="font-family:Helvetica;font-size:7.5px;font-style:normal;font-weight:500;text-anchor:middle;" transform="rotate(-0, 114.674056, 199.480078)" x="114.674056" y="199.480078">4</text>
     </g>
    </g>
    <g id="xtick_4">
     <g id="line2d_4">
      <g>
       <use style="stroke:#000000;stroke-width:0.85;" x="149.352225" xlink:href="#m5b2e0e6a1f" y="187.1"/>
      </g>
     </g>
     <g id="text_4">
      <text style="font-family:Helvetica;font-size:7.5px;font-style:normal;font-weight:500;text-anchor:middle;" transform="rotate(-0, 149.352225, 199.480078)" x="149.352225" y="199.480078">5</text>
     </g>
    </g>
    <g id="xtick_5">
     <g id="line2d_5">
      <g>
       <use style="stroke:#000000;stroke-width:0.85;" x="184.030394" xlink:href="#m5b2e0e6a1f" y="187.1"/>
      </g>
     </g>
     <g id="text_5">
      <text style="font-family:Helvetica;font-size:7.5px;font-style:normal;font-weight:500;text-anchor:middle;" transform="rotate(-0, 184.030394, 199.480078)" x="184.030394" y="199.480078">6</text>
     </g>
    </g>
    <g id="text_6">
     <!-- Thickness ($\AA$) -->
     <g transform="translate(99.470703 214.568359)">
      <text>
       <tspan style="font-family:Helvetica;font-size:7.5px;font-style:regular;font-weight:regular;" x="0 4.581299 8.752441 10.418701 14.168701 17.918701 22.089844 26.260986 30.010986 33.760986 35.844727 43.344727" y="-0.125">Thickness ()</tspan>
       <tspan style="font-family:Arial;font-size:7.5px;font-style:italic;font-weight:italic;" x="38.342285" y="-0.125">Å</tspan>
      </text>
     </g>
    </g>
   </g>
   <g id="matplotlib.axis_2">
    <g id="ytick_1">
     <g id="line2d_6">
      <defs>
       <path d="M 0 0 
L -3.5 0 
" id="m4852c3a3c4" style="stroke:#000000;stroke-width:0.85;"/>
      </defs>
      <g>
       <use style="stroke:#000000;stroke-width:0.85;" x="34.220703" xlink:href="#m4852c3a3c4" y="171.00537"/>
      </g>
     </g>
     <g id="text_7">
      <text style="font-family:Helvetica;font-size:7.5px;font-style:normal;font-weight:500;text-anchor:end;" transform="rotate(-0, 27.220703, 173.695409)" x="27.220703" y="173.695409">2</text>
     </g>
    </g>
    <g id="ytick_2">
     <g id="line2d_7">
      <g>
       <use style="stroke:#000000;stroke-width:0.85;" x="34.220703" xlink:href="#m4852c3a3c4" y="132.537231"/>
      </g>
     </g>
     <g id="text_8">
      <text style="font-family:Helvetica;font-size:7.5px;font-style:normal;font-weight:500;text-anchor:end;" transform="rotate(-0, 27.220703, 135.22727)" x="27.220703" y="135.22727">3</text>
     </g>
    </g>
    <g id="ytick_3">
     <g id="line2d_8">
      <g>
       <use style="stroke:#000000;stroke-width:0.85;" x="34.220703" xlink:href="#m4852c3a3c4" y="94.069092"/>
      </g>
     </g>
     <g id="text_9">
      <text style="font-family:Helvetica;font-size:7.5px;font-style:normal;font-weight:500;text-anchor:end;" transform="rotate(-0, 27.220703, 96.759131)" x="27.220703" y="96.759131">4</text>
     </g>
    </g>
    <g id="ytick_4">
     <g id="line2d_9">
      <g>
       <use style="stroke:#000000;stroke-width:0.85;" x="34.220703" xlink:href="#m4852c3a3c4" y="55.600953"/>
      </g>
     </g>
     <g id="text_10">
      <text style="font-family:Helvetica;font-size:7.5px;font-style:normal;font-weight:500;text-anchor:end;" transform="rotate(-0, 27.220703, 58.290992)" x="27.220703" y="58.290992">5</text>
     </g>
    </g>
    <g id="ytick_5">
     <g id="line2d_10">
      <g>
       <use style="stroke:#000000;stroke-width:0.85;" x="34.220703" xlink:href="#m4852c3a3c4" y="17.132814"/>
      </g>
     </g>
     <g id="text_11">
      <text style="font-family:Helvetica;font-size:7.5px;font-style:normal;font-weight:500;text-anchor:end;" transform="rotate(-0, 27.220703, 19.822853)" x="27.220703" y="19.822853">6</text>
     </g>
    </g>
    <g id="text_12">
     <!-- $\alpha_{zz} / \epsilon_0$ ($\AA$) -->
     <g transform="translate(13.725 114.2375)rotate(-90)">
      <text>
       <tspan style="font-family:Arial;font-size:7.5px;font-style:italic;font-weight:italic;" x="0 11.984443 23.1548" y="-0.125">αεÅ</tspan>
       <tspan style="font-family:Arial;font-size:5.25px;font-style:italic;font-weight:italic;" x="4.277344 6.902344" y="2.11515625">zz</tspan>
       <tspan style="font-family:Arial;font-size:7.5px;font-style:regular;font-weight:regular;" x="9.900703" y="-0.125">/</tspan>
       <tspan style="font-family:Arial;font-size:5.25px;font-style:regular;font-weight:regular;" x="15.280342" y="2.11515625">0</tspan>
       <tspan style="font-family:Helvetica;font-size:7.5px;font-style:regular;font-weight:regular;" x="18.573501 20.657241 28.157241" y="-0.125"> ()</tspan>
      </text>
     </g>
    </g>
   </g>
   <g id="line2d_11">
    <defs>
     <path d="M 0 3.25 
C 0.86191 3.25 1.688635 2.907559 2.298097 2.298097 
C 2.907559 1.688635 3.25 0.86191 3.25 0 
C 3.25 -0.86191 2.907559 -1.688635 2.298097 -2.298097 
C 1.688635 -2.907559 0.86191 -3.25 0 -3.25 
C -0.86191 -3.25 -1.688635 -2.907559 -2.298097 -2.298097 
C -2.907559 -1.688635 -3.25 -0.86191 -3.25 0 
C -3.25 0.86191 -2.907559 1.688635 -2.298097 2.298097 
C -1.688635 2.907559 -0.86191 3.25 0 3.25 
z
" id="md3f80fc817"/>
    </defs>
    <g clip-path="url(#pc899910283)">
     <use style="fill:#1f77b4;opacity:0.5;" x="97.334971" xlink:href="#md3f80fc817" y="146.855959"/>
     <use style="fill:#1f77b4;opacity:0.5;" x="149.220746" xlink:href="#md3f80fc817" y="85.817189"/>
     <use style="fill:#1f77b4;opacity:0.5;" x="157.62244" xlink:href="#md3f80fc817" y="74.232346"/>
     <use style="fill:#1f77b4;opacity:0.5;" x="168.486877" xlink:href="#md3f80fc817" y="66.74007"/>
     <use style="fill:#1f77b4;opacity:0.5;" x="175.884213" xlink:href="#md3f80fc817" y="55.761824"/>
     <use style="fill:#1f77b4;opacity:0.5;" x="199.943378" xlink:href="#md3f80fc817" y="27.429787"/>
     <use style="fill:#1f77b4;opacity:0.5;" x="106.698102" xlink:href="#md3f80fc817" y="128.512319"/>
     <use style="fill:#1f77b4;opacity:0.5;" x="174.946758" xlink:href="#md3f80fc817" y="48.961659"/>
     <use style="fill:#1f77b4;opacity:0.5;" x="196.868252" xlink:href="#md3f80fc817" y="22.188738"/>
     <use style="fill:#1f77b4;opacity:0.5;" x="87.584209" xlink:href="#md3f80fc817" y="127.868033"/>
     <use style="fill:#1f77b4;opacity:0.5;" x="130.309327" xlink:href="#md3f80fc817" y="76.128933"/>
     <use style="fill:#1f77b4;opacity:0.5;" x="95.158511" xlink:href="#md3f80fc817" y="132.678177"/>
     <use style="fill:#1f77b4;opacity:0.5;" x="155.732339" xlink:href="#md3f80fc817" y="64.887206"/>
     <use style="fill:#1f77b4;opacity:0.5;" x="89.637813" xlink:href="#md3f80fc817" y="132.10445"/>
     <use style="fill:#1f77b4;opacity:0.5;" x="135.139158" xlink:href="#md3f80fc817" y="75.473442"/>
     <use style="fill:#1f77b4;opacity:0.5;" x="150.257908" xlink:href="#md3f80fc817" y="60.677404"/>
     <use style="fill:#1f77b4;opacity:0.5;" x="91.714495" xlink:href="#md3f80fc817" y="137.966949"/>
     <use style="fill:#1f77b4;opacity:0.5;" x="106.870233" xlink:href="#md3f80fc817" y="121.206914"/>
     <use style="fill:#1f77b4;opacity:0.5;" x="151.264476" xlink:href="#md3f80fc817" y="70.737187"/>
     <use style="fill:#1f77b4;opacity:0.5;" x="160.739236" xlink:href="#md3f80fc817" y="57.409487"/>
     <use style="fill:#1f77b4;opacity:0.5;" x="169.668848" xlink:href="#md3f80fc817" y="51.829688"/>
     <use style="fill:#1f77b4;opacity:0.5;" x="88.863027" xlink:href="#md3f80fc817" y="144.518956"/>
     <use style="fill:#1f77b4;opacity:0.5;" x="153.515763" xlink:href="#md3f80fc817" y="70.827282"/>
     <use style="fill:#1f77b4;opacity:0.5;" x="171.54208" xlink:href="#md3f80fc817" y="52.85151"/>
     <use style="fill:#1f77b4;opacity:0.5;" x="107.539859" xlink:href="#md3f80fc817" y="129.303941"/>
     <use style="fill:#1f77b4;opacity:0.5;" x="157.869005" xlink:href="#md3f80fc817" y="67.49568"/>
     <use style="fill:#1f77b4;opacity:0.5;" x="175.657447" xlink:href="#md3f80fc817" y="48.990148"/>
     <use style="fill:#1f77b4;opacity:0.5;" x="197.34419" xlink:href="#md3f80fc817" y="22.234598"/>
     <use style="fill:#1f77b4;opacity:0.5;" x="97.334971" xlink:href="#md3f80fc817" y="143.808459"/>
     <use style="fill:#1f77b4;opacity:0.5;" x="157.680125" xlink:href="#md3f80fc817" y="68.745414"/>
     <use style="fill:#1f77b4;opacity:0.5;" x="168.813981" xlink:href="#md3f80fc817" y="62.053384"/>
     <use style="fill:#1f77b4;opacity:0.5;" x="176.163614" xlink:href="#md3f80fc817" y="50.651871"/>
     <use style="fill:#1f77b4;opacity:0.5;" x="200.784427" xlink:href="#md3f80fc817" y="22.281569"/>
     <use style="fill:#1f77b4;opacity:0.5;" x="59.882548" xlink:href="#md3f80fc817" y="153.366636"/>
     <use style="fill:#1f77b4;opacity:0.5;" x="34.220703" xlink:href="#md3f80fc817" y="174.268792"/>
     <use style="fill:#1f77b4;opacity:0.5;" x="60.576112" xlink:href="#md3f80fc817" y="155.254689"/>
     <use style="fill:#1f77b4;opacity:0.5;" x="74.447379" xlink:href="#md3f80fc817" y="145.89844"/>
     <use style="fill:#1f77b4;opacity:0.5;" x="146.43034" xlink:href="#md3f80fc817" y="103.792261"/>
     <use style="fill:#1f77b4;opacity:0.5;" x="191.695408" xlink:href="#md3f80fc817" y="50.376656"/>
     <use style="fill:#1f77b4;opacity:0.5;" x="159.06952" xlink:href="#md3f80fc817" y="87.53368"/>
     <use style="fill:#1f77b4;opacity:0.5;" x="203.706655" xlink:href="#md3f80fc817" y="34.336974"/>
     <use style="fill:#1f77b4;opacity:0.5;" x="123.342867" xlink:href="#md3f80fc817" y="82.214632"/>
     <use style="fill:#1f77b4;opacity:0.5;" x="210.620703" xlink:href="#md3f80fc817" y="10.7"/>
    </g>
   </g>
   <g id="line2d_12">
    <path clip-path="url(#pc899910283)" d="M 34.220703 187.1 
L 37.820703 183.655355 
L 41.420703 180.210709 
L 45.020703 176.766064 
L 48.620703 173.321419 
L 52.220703 169.876774 
L 55.820703 166.432128 
L 59.420703 162.987483 
L 63.020703 159.542838 
L 66.620703 156.098193 
L 70.220703 152.653547 
L 73.820703 149.208902 
L 77.420703 145.764257 
L 81.020703 142.319612 
L 84.620703 138.874966 
L 88.220703 135.430321 
L 91.820703 131.985676 
L 95.420703 128.541031 
L 99.020703 125.096385 
L 102.620703 121.65174 
L 106.220703 118.207095 
L 109.820703 114.76245 
L 113.420703 111.317804 
L 117.020703 107.873159 
L 120.620703 104.428514 
L 124.220703 100.983868 
L 127.820703 97.539223 
L 131.420703 94.094578 
L 135.020703 90.649933 
L 138.620703 87.205287 
L 142.220703 83.760642 
L 145.820703 80.315997 
L 149.420703 76.871352 
L 153.020703 73.426706 
L 156.620703 69.982061 
L 160.220703 66.537416 
L 163.820703 63.092771 
L 167.420703 59.648125 
L 171.020703 56.20348 
L 174.620703 52.758835 
L 178.220703 49.31419 
L 181.820703 45.869544 
L 185.420703 42.424899 
L 189.020703 38.980254 
L 192.620703 35.535609 
L 196.220703 32.090963 
L 199.820703 28.646318 
L 203.420703 25.201673 
L 207.020703 21.757027 
L 210.620703 18.312382 
" style="fill:none;stroke:#ff7f0e;stroke-dasharray:3.145,1.36;stroke-dashoffset:0;stroke-width:0.85;"/>
   </g>
   <g id="patch_3">
    <path d="M 34.220703 187.1 
L 34.220703 10.7 
" style="fill:none;stroke:#000000;stroke-linecap:square;stroke-linejoin:miter;stroke-width:0.85;"/>
   </g>
   <g id="patch_4">
    <path d="M 210.620703 187.1 
L 210.620703 10.7 
" style="fill:none;stroke:#000000;stroke-linecap:square;stroke-linejoin:miter;stroke-width:0.85;"/>
   </g>
   <g id="patch_5">
    <path d="M 34.220703 187.1 
L 210.620703 187.1 
" style="fill:none;stroke:#000000;stroke-linecap:square;stroke-linejoin:miter;stroke-width:0.85;"/>
   </g>
   <g id="patch_6">
    <path d="M 34.220703 10.7 
L 210.620703 10.7 
" style="fill:none;stroke:#000000;stroke-linecap:square;stroke-linejoin:miter;stroke-width:0.85;"/>
   </g>
   <g id="text_13">
    <!-- $y=0.86x+0.13,\ R^2=0.97$ -->
    <g transform="translate(62.656802 55.600953)">
     <text>
      <tspan style="font-family:Arial;font-size:7.5px;font-style:italic;font-weight:italic;" x="0 25.226074 55.867899" y="-0.7479687500000018">yxR</tspan>
      <tspan style="font-family:Arial;font-size:7.5px;font-style:regular;font-weight:regular;" x="4.999512 10.628906 14.800049 16.883789 21.054932 30.225586 35.85498 40.026123 42.109863 46.281006 50.452148 66.194056 71.823451 75.994593 78.078334 82.249476" y="-0.7479687500000018">=0.86+0.13,=0.97</tspan>
      <tspan style="font-family:Arial;font-size:5.25px;font-style:regular;font-weight:regular;" x="61.651385" y="-5.975000000000001">2</tspan>
     </text>
    </g>
   </g>
  </g>
 </g>
 <defs>
  <clipPath id="pc899910283">
   <rect height="176.4" width="176.4" x="34.220703" y="10.7"/>
  </clipPath>
 </defs>
</svg>
